#N canvas 0 0 1272 685 10;
#N canvas 652 10 574 683 pureffects 0;
#N canvas 562 335 450 300 aging 0;
#X obj 126 60 cnv 15 100 60 empty empty Aging 20 30 0 42 -259648 -203904
0;
#X obj 144 13 inlet;
#X obj 194 13 inlet;
#X obj 97 13 inlet;
#X obj 97 151 outlet;
#X floatatom 131 69 3 0 0 0 - - -;
#X floatatom 135 97 3 0 0 0 - - -;
#X obj 113 126 pdp_aging;
#X obj 126 60 cnv 10 10 10 empty empty empty 20 12 0 14 -260097 -66577
0;
#X obj 172 60 cnv 10 10 10 empty empty empty 20 12 0 14 -260097 -66577
0;
#X obj 216 60 cnv 10 10 10 empty empty empty 20 12 0 14 -260097 -66577
0;
#X obj 126 110 cnv 10 10 10 empty empty empty 20 12 0 14 -260097 -66577
0;
#X text 158 104 scratches;
#X text 161 71 Dust;
#X connect 1 0 5 0;
#X connect 2 0 6 0;
#X connect 3 0 7 0;
#X connect 5 0 7 1;
#X connect 6 0 7 2;
#X connect 7 0 4 0;
#X coords 0 -1 1 1 102 62 1 125 59;
#X restore 10 8 pd aging;
#N canvas 365 31 450 300 edge 0;
#X obj 49 56 inlet;
#X obj 49 170 pdp_edge;
#X obj 101 101 cnv 15 100 60 empty empty Edge 20 30 0 42 -162303 -567
0;
#X obj 101 101 cnv 10 10 10 empty empty empty 20 12 0 14 -260097 -66577
0;
#X obj 101 152 cnv 10 10 10 empty empty empty 20 12 0 14 -260097 -66577
0;
#X obj 92 194 outlet;
#X connect 0 0 1 0;
#X connect 1 0 5 0;
#X coords 0 -1 1 1 102 62 1 100 100;
#X restore 10 77 pd edge;
#N canvas 0 0 450 300 warhol 0;
#X obj 27 179 pdp_warhol;
#X obj 27 9 inlet;
#X obj 38 19 inlet;
#X obj 48 29 inlet;
#X obj 58 39 inlet;
#X obj 68 49 inlet;
#X obj 78 59 inlet;
#X obj 88 69 inlet;
#X obj 27 227 outlet;
#X obj 101 101 cnv 15 100 60 empty empty Warhol 20 30 0 42 -261790
-203904 0;
#X floatatom 110 109 3 0 0 0 - - -;
#X floatatom 148 109 3 0 0 0 - - -;
#X obj 182 213 hdl 15 1 0 9 empty empty empty 0 -6 0 8 -262144 -1 -1
0;
#X floatatom 111 144 3 0 0 0 - - -;
#X floatatom 135 144 3 0 0 0 - - -;
#X floatatom 159 144 3 0 0 0 - - -;
#X text 252 235 Y component;
#X text 280 255 U component;
#X text 303 280 V component;
#X floatatom 111 126 5 0 0 0 - - -;
#X text 135 111 X;
#X text 177 146 yuv;
#X obj 101 152 cnv 10 10 10 empty empty empty 20 12 0 14 -260097 -66577
0;
#X obj 101 100 cnv 10 10 10 empty empty empty 20 12 0 14 -260097 -66577
0;
#X obj 115 100 cnv 10 10 10 empty empty empty 20 12 0 14 -260097 -66577
0;
#X obj 130 100 cnv 10 10 10 empty empty empty 20 12 0 14 -260097 -66577
0;
#X obj 146 100 cnv 10 10 10 empty empty empty 20 12 0 14 -260097 -66577
0;
#X obj 161 100 cnv 10 10 10 empty empty empty 20 12 0 14 -260097 -66577
0;
#X obj 176 100 cnv 10 10 10 empty empty empty 20 12 0 14 -260097 -66577
0;
#X obj 192 100 cnv 10 10 10 empty empty empty 20 12 0 14 -260097 -66577
0;
#X text 150 124 box;
#X text 173 111 Y;
#X connect 0 0 8 0;
#X connect 1 0 0 0;
#X connect 2 0 10 0;
#X connect 3 0 11 0;
#X connect 4 0 12 0;
#X connect 5 0 13 0;
#X connect 6 0 14 0;
#X connect 7 0 15 0;
#X connect 10 0 0 1;
#X connect 11 0 0 2;
#X connect 12 0 19 0;
#X coords 0 -1 1 1 102 62 1 100 100;
#X restore 10 146 pd warhol;
#N canvas 0 0 450 300 cycle 0;
#X obj 12 190 pdp_cycle;
#X obj 12 41 inlet;
#X obj 21 222 outlet;
#X obj 101 101 cnv 15 100 60 empty empty Cycle 20 30 0 42 -232576 -203904
0;
#X obj 105 107 tgl 15 0 empty empty empty 0 -6 0 8 -262144 -1 -1 0
1;
#X obj 105 125 tgl 15 0 empty empty empty 0 -6 0 8 -262144 -1 -1 0
1;
#X obj 105 143 tgl 15 0 empty empty empty 0 -6 0 8 -262144 -1 -1 0
1;
#X obj 22 51 inlet;
#X obj 32 61 inlet;
#X obj 42 71 inlet;
#X obj 192 100 cnv 10 10 10 empty empty empty 20 12 0 14 -260097 -66577
0;
#X obj 100 100 cnv 10 10 10 empty empty empty 20 12 0 14 -260097 -66577
0;
#X obj 130 100 cnv 10 10 10 empty empty empty 20 12 0 14 -260097 -66577
0;
#X obj 160 100 cnv 10 10 10 empty empty empty 20 12 0 14 -260097 -66577
0;
#X obj 101 151 cnv 10 10 10 empty empty empty 20 12 0 14 -260097 -66577
0;
#X text 119 142 V;
#X text 119 125 U;
#X text 119 108 Y;
#X connect 0 0 2 0;
#X connect 1 0 0 0;
#X connect 4 0 0 1;
#X connect 5 0 0 2;
#X connect 6 0 0 3;
#X connect 7 0 4 0;
#X connect 8 0 5 0;
#X connect 9 0 6 0;
#X coords 0 -1 1 1 102 62 1 100 100;
#X restore 116 8 pd cycle;
#N canvas 0 0 450 300 ascii 0;
#X obj 10 190 pdp_ascii;
#X obj 10 122 inlet;
#X obj 101 101 cnv 15 100 60 empty empty ASCii 20 30 0 42 -204786 -203904
0;
#X obj 192 100 cnv 10 10 10 empty empty empty 20 12 0 14 -260097 -66577
0;
#X obj 100 100 cnv 10 10 10 empty empty empty 20 12 0 14 -260097 -66577
0;
#X obj 130 100 cnv 10 10 10 empty empty empty 20 12 0 14 -260097 -66577
0;
#X obj 160 100 cnv 10 10 10 empty empty empty 20 12 0 14 -260097 -66577
0;
#X msg 112 197 color \$1;
#X obj 107 108 tgl 15 0 empty empty empty 0 -6 0 8 -262144 -1 -1 0
1;
#X msg 112 222 brightness \$1;
#X floatatom 107 126 3 0 0 0 - - -;
#X floatatom 107 143 3 0 0 0 - - -;
#X text 121 111 colors;
#X text 131 129 bright;
#X text 129 144 char size;
#X obj 100 152 cnv 10 10 10 empty empty empty 20 12 0 14 -260097 -66577
0;
#X obj 38 266 outlet;
#X connect 0 0 16 0;
#X connect 1 0 0 0;
#X connect 7 0 0 0;
#X connect 8 0 7 0;
#X connect 9 0 0 0;
#X connect 10 0 9 0;
#X connect 11 0 0 1;
#X coords 0 -1 1 1 102 62 1 100 100;
#X restore 116 74 pd ascii;
#N canvas 0 0 450 300 baltan 0;
#X obj 101 101 cnv 15 100 60 empty empty Baltan 20 30 0 42 -258016
-203904 0;
#X obj 7 112 pdp_baltan;
#X obj 7 24 inlet;
#X obj 7 176 outlet;
#X floatatom 110 125 10 0 0 0 - - -;
#X msg 84 48 1.65798e+07;
#X obj 104 18 loadbang;
#X obj 192 100 cnv 10 10 10 empty empty empty 20 12 0 14 -260097 -66577
0;
#X obj 100 100 cnv 10 10 10 empty empty empty 20 12 0 14 -260097 -66577
0;
#X obj 100 152 cnv 10 10 10 empty empty empty 20 12 0 14 -260097 -66577
0;
#X obj 224 84 inlet;
#X connect 1 0 3 0;
#X connect 2 0 1 0;
#X connect 4 0 1 1;
#X connect 5 0 4 0;
#X connect 6 0 5 0;
#X connect 10 0 4 0;
#X coords 0 -1 1 1 102 62 1 100 100;
#X restore 116 146 pd baltan;
#N canvas 84 101 450 300 binary 0;
#X obj 14 224 pdp_binary;
#X obj 14 8 inlet;
#X obj 14 257 outlet;
#X obj 101 101 cnv 15 100 60 empty empty Binary 20 30 0 42 -261233
-203904 0;
#X obj 158 100 cnv 10 10 10 empty empty empty 20 12 0 14 -260097 -66577
0;
#X obj 100 100 cnv 10 10 10 empty empty empty 20 12 0 14 -260097 -66577
0;
#X obj 120 100 cnv 10 10 10 empty empty empty 20 12 0 14 -260097 -66577
0;
#X obj 140 100 cnv 10 10 10 empty empty empty 20 12 0 14 -260097 -66577
0;
#X obj 100 152 cnv 10 10 10 empty empty empty 20 12 0 14 -260097 -66577
0;
#X floatatom 103 118 3 0 0 0 - - -;
#X floatatom 124 118 3 0 0 0 - - -;
#X floatatom 145 119 3 0 0 0 - - -;
#X floatatom 103 136 3 0 0 0 - - -;
#X floatatom 128 136 3 0 0 0 - - -;
#X text 282 221 X coordinate of cursor ( pick );
#X text 291 246 Y coordinate of cursor ( pick );
#X floatatom 168 137 3 0 0 0 - - -;
#X text 302 269 Tolerance ( default = 55 );
#X obj 192 100 cnv 10 10 10 empty empty empty 20 12 0 14 -260097 -66577
0;
#X obj 176 100 cnv 10 10 10 empty empty empty 20 12 0 14 -260097 -66577
0;
#X obj 60 9 inlet;
#X obj 105 10 inlet;
#X obj 151 10 inlet;
#X obj 195 10 inlet;
#X obj 241 10 inlet;
#X obj 291 10 inlet;
#X text 164 118 Y;
#X text 172 118 U;
#X text 179 118 V;
#X text 150 131 xy;
#X text 187 137 T;
#X obj 131 152 cnv 10 10 10 empty empty empty 20 12 0 14 -260097 -66577
0;
#X obj 161 152 cnv 10 10 10 empty empty empty 20 12 0 14 -260097 -66577
0;
#X obj 192 152 cnv 10 10 10 empty empty empty 20 12 0 14 -260097 -66577
0;
#X obj 102 260 outlet;
#X obj 112 270 outlet;
#X obj 122 280 outlet;
#X connect 0 0 2 0;
#X connect 0 1 34 0;
#X connect 0 2 35 0;
#X connect 0 3 36 0;
#X connect 1 0 0 0;
#X connect 9 0 0 1;
#X connect 10 0 0 2;
#X connect 11 0 0 3;
#X connect 12 0 0 4;
#X connect 13 0 0 5;
#X connect 16 0 0 5;
#X connect 20 0 9 0;
#X connect 21 0 10 0;
#X connect 22 0 11 0;
#X connect 23 0 12 0;
#X connect 24 0 13 0;
#X connect 25 0 16 0;
#X coords 0 -1 1 1 102 62 1 100 100;
#X restore 222 8 pd binary;
#N canvas 0 0 450 300 nervous 0;
#X obj 11 154 pdp_nervous;
#X obj 14 70 inlet;
#X obj 24 251 outlet;
#X obj 101 101 cnv 15 100 60 empty empty Nervous 20 30 0 42 -258113
-203904 0;
#X text 131 140 Mode;
#X obj 111 138 tgl 15 0 empty empty empty 0 -6 0 8 -262144 -1 -1 0
1;
#X floatatom 110 110 3 0 0 0 - - -;
#X text 138 108 frames;
#X obj 192 100 cnv 10 10 10 empty empty empty 20 12 0 14 -260097 -66577
0;
#X obj 101 100 cnv 10 10 10 empty empty empty 20 12 0 14 -260097 -66577
0;
#X obj 101 152 cnv 10 10 10 empty empty empty 20 12 0 14 -260097 -66577
0;
#X connect 0 0 2 0;
#X connect 1 0 0 0;
#X coords 0 -1 1 1 102 62 1 100 100;
#X restore 222 75 pd nervous;
#N canvas 461 11 450 300 cmap 0;
#X obj 101 101 cnv 15 100 60 empty empty MapCor 20 30 0 54 -14789 -228856
0;
#X obj 13 299 pdp_glx;
#X floatatom 129 112 3 0 0 0 - - -;
#X floatatom 138 128 3 0 0 0 - - -;
#X floatatom 146 144 3 0 0 0 - - -;
#X floatatom 208 31 3 0 0 0 - - -;
#X floatatom 217 55 3 0 0 0 - - -;
#X msg -8 93 pick;
#X floatatom 262 148 3 0 0 0 - - -;
#X msg 273 176 luminosity \$1;
#X obj 374 178 tgl 15 0 empty empty empty 0 -6 0 8 -262144 -1 -1 0
1;
#X text 397 179 Use luminosity in color detection;
#X obj 358 201 tgl 15 0 empty empty empty 0 -6 0 8 -262144 -1 -1 0
1;
#X msg 282 200 cursor \$1;
#X text 381 202 Show cursor or not;
#X obj 80 186 pdp_cmap ----;
#X obj 198 10 hdl 15 1 0 10 empty empty empty 0 -6 0 8 -262144 -1 -1
0;
#X text 352 10 Select color index ( capacity is 10 by default );
#X text -19 70 Pick up the color;
#X text 256 30 X coordinate of cursor;
#X text 265 54 Y coordinate of cursor;
#X text 308 147 Tolerance ( default = 10 );
#X msg 290 224 clear;
#X msg 298 248 delete \$1;
#X text 420 250 Delete a mapping;
#X msg 321 275 resize 20;
#X floatatom 373 250 5 0 0 0 - - -;
#X obj 649 39 tgl 15 0 empty empty empty 0 -6 0 8 -262144 -1 -1 0 1
;
#X obj 649 91 pdp_control;
#X msg 649 64 thread \$1;
#X floatatom 649 152 5 0 0 0 - - -;
#X obj 649 123 route pdp_drop;
#X msg 63 299 cursor \$1;
#X obj 138 300 tgl 15 0 empty empty empty 0 -6 0 8 -262144 -1 -1 0
1;
#X text 381 202 Show cursor or not;
#X text 405 276 Resize the color table;
#X text 351 224 Clear the color table;
#X text -22 161 Set the cursor;
#X msg -18 127 setcur \$1 \$2;
#X msg 188 295 dim 160 120;
#X obj 80 234 outlet;
#X text 153 112 R;
#X text 161 127 G;
#X text 169 143 B;
#X obj 192 100 cnv 10 10 10 empty empty empty 20 12 0 14 -260097 -66577
0;
#X obj 100 100 cnv 10 10 10 empty empty empty 20 12 0 14 -260097 -66577
0;
#X obj 130 100 cnv 10 10 10 empty empty empty 20 12 0 14 -260097 -66577
0;
#X obj 160 100 cnv 10 10 10 empty empty empty 20 12 0 14 -260097 -66577
0;
#X obj 101 151 cnv 10 10 10 empty empty empty 20 12 0 14 -260097 -66577
0;
#X obj 36 26 inlet;
#X obj 129 21 inlet;
#X obj 139 31 inlet;
#X obj 149 41 inlet;
#X obj 216 274 loadbang;
#X connect 1 0 38 0;
#X connect 2 0 15 4;
#X connect 3 0 15 5;
#X connect 4 0 15 6;
#X connect 5 0 15 2;
#X connect 6 0 15 3;
#X connect 7 0 15 0;
#X connect 8 0 15 7;
#X connect 9 0 15 0;
#X connect 10 0 9 0;
#X connect 12 0 13 0;
#X connect 13 0 15 0;
#X connect 15 0 1 0;
#X connect 15 0 40 0;
#X connect 16 0 15 1;
#X connect 22 0 15 0;
#X connect 23 0 15 0;
#X connect 25 0 15 0;
#X connect 26 0 23 0;
#X connect 27 0 29 0;
#X connect 28 0 31 0;
#X connect 29 0 28 0;
#X connect 31 0 30 0;
#X connect 32 0 1 0;
#X connect 33 0 32 0;
#X connect 38 0 15 0;
#X connect 38 0 7 0;
#X connect 39 0 1 0;
#X connect 49 0 15 0;
#X connect 50 0 2 0;
#X connect 51 0 3 0;
#X connect 52 0 4 0;
#X connect 53 0 39 0;
#X coords 0 -1 1 1 102 62 1 100 100;
#X restore 222 144 pd cmap;
#N canvas 0 0 450 300 dice 0;
#X obj 39 72 inlet;
#X obj 35 106 pdp_dice;
#X obj 35 251 outlet;
#X obj 101 101 cnv 15 100 60 empty empty Dice 20 30 0 54 -55857 -228856
0;
#X floatatom 143 132 3 0 0 0 - - -;
#X obj 100 100 cnv 10 10 10 empty empty empty 20 12 0 14 -260097 -66577
0;
#X obj 100 152 cnv 10 10 10 empty empty empty 20 12 0 14 -260097 -66577
0;
#X obj 192 100 cnv 10 10 10 empty empty empty 20 12 0 14 -260097 -66577
0;
#X obj 209 52 inlet;
#X connect 0 0 1 0;
#X connect 1 0 2 0;
#X connect 4 0 1 1;
#X connect 8 0 4 0;
#X coords 0 -1 1 1 102 62 1 100 100;
#X restore 328 8 pd dice;
#N canvas 0 0 450 300 dilate 0;
#X obj 101 101 cnv 15 100 60 empty empty Dilate 20 30 0 42 -261234
-203904 0;
#X obj 192 100 cnv 10 10 10 empty empty empty 20 12 0 14 -260097 -66577
0;
#X obj 100 100 cnv 10 10 10 empty empty empty 20 12 0 14 -260097 -66577
0;
#X obj 130 100 cnv 10 10 10 empty empty empty 20 12 0 14 -260097 -66577
0;
#X obj 160 100 cnv 10 10 10 empty empty empty 20 12 0 14 -260097 -66577
0;
#X obj 101 151 cnv 10 10 10 empty empty empty 20 12 0 14 -260097 -66577
0;
#X obj 24 158 pdp_dilate;
#X floatatom 108 111 3 0 0 0 - - -;
#X floatatom 119 127 3 0 0 0 - - -;
#X floatatom 130 144 3 0 0 0 - - -;
#X text 133 110 passes 1;
#X msg 256 41 1;
#X msg 269 96 3;
#X msg 243 68 3;
#X obj 40 37 inlet;
#X obj 108 27 inlet;
#X obj 119 47 inlet;
#X obj 130 67 inlet;
#X obj 39 216 outlet;
#X text 146 126 width;
#X text 155 142 height;
#X connect 6 0 18 0;
#X connect 7 0 6 1;
#X connect 8 0 6 2;
#X connect 9 0 6 3;
#X connect 11 0 7 0;
#X connect 12 0 9 0;
#X connect 13 0 8 0;
#X connect 14 0 6 0;
#X connect 15 0 7 0;
#X connect 16 0 8 0;
#X connect 17 0 9 0;
#X coords 0 -1 1 1 102 62 1 100 100;
#X restore 328 74 pd dilate;
#X obj 180 335 pdp_frei0r;
#N canvas 6 86 1274 714 FF_bckdrp 0;
#X obj 53 255 pdp_freeframe;
#X floatatom 344 47 5 0 0 0 - - -;
#X obj 12 185 pdp_scale 320 240;
#X obj 392 22 hradio 15 1 0 44 empty empty empty 0 -6 0 8 -262144 -1
-1 0;
#X obj 401 148 hsl 128 15 0 1 0 0 empty vparam3 empty -2 -6 0 8 -262144
-1 -1 0 1;
#X obj 541 148 hsl 128 15 0 1 0 0 empty vparam4 empty -2 -6 0 8 -262144
-1 -1 0 1;
#X obj 681 148 hsl 128 15 0 1 0 0 empty vparam5 empty -2 -6 0 8 -262144
-1 -1 0 1;
#X msg 398 168 param 3 \$1;
#X msg 538 167 param 4 \$1;
#X msg 679 167 param 5 \$1;
#X text 394 2 Select the plugin;
#X text 398 49 Adjust plugin parameters.;
#X symbolatom 106 408 20 0 0 0 - - -;
#X text 259 408 <-- plugin name;
#X floatatom 125 386 5 0 0 0 - - -;
#X text 173 384 <-- number of parameters;
#X text 224 358 <-- parameter name;
#X text 251 330 <-- parameter type;
#X text 267 301 <-- parameter default;
#X obj 403 89 hsl 128 15 0 1 0 0 empty vparam0 empty -2 -6 0 8 -262144
-1 -1 0 1;
#X obj 541 89 hsl 128 15 0 1 0 0 empty vparam1 empty -2 -6 0 8 -262144
-1 -1 0 1;
#X obj 682 89 hsl 128 15 0 1 0 0 empty vparam2 empty -2 -6 0 8 -262144
-1 -1 0 1;
#X obj 401 211 hsl 128 15 0 1 0 0 empty vparam6 empty -2 -6 0 8 -262144
-1 -1 0 1;
#X obj 542 211 hsl 128 15 0 1 0 0 empty vparam7 empty -2 -6 0 8 -262144
-1 -1 0 1;
#X obj 684 211 hsl 128 15 0 1 0 0 empty vparam8 empty -2 -6 0 8 -262144
-1 -1 0 1;
#X msg 400 108 param 0 \$1;
#X msg 538 108 param 1 \$1;
#X msg 679 108 param 2 \$1;
#X msg 400 231 param 6 \$1;
#X msg 539 230 param 7 \$1;
#X msg 681 230 param 8 \$1;
#N canvas 0 0 996 665 pname 0;
#X obj 51 119 l2s;
#X obj 80 119 l2s;
#X obj 111 119 l2s;
#X obj 143 119 l2s;
#X obj 207 120 l2s;
#X obj 236 120 l2s;
#X obj 267 120 l2s;
#X obj 298 119 l2s;
#X obj 97 86 route 0 1 2 3 4 5 6 7 8;
#X obj 327 119 l2s;
#X obj 97 51 inlet;
#X obj 51 154 s ffparam0;
#X obj 79 178 s ffparam1;
#X obj 118 205 s ffparam2;
#X obj 148 227 s ffparam3;
#X obj 185 157 s ffparam4;
#X obj 213 181 s ffparam5;
#X obj 255 206 s ffparam6;
#X obj 283 230 s ffparam7;
#X obj 305 155 s ffparam8;
#X obj 391 53 inlet;
#X msg 390 79 symbol;
#X connect 0 0 11 0;
#X connect 1 0 12 0;
#X connect 2 0 13 0;
#X connect 3 0 14 0;
#X connect 4 0 15 0;
#X connect 5 0 16 0;
#X connect 6 0 17 0;
#X connect 7 0 18 0;
#X connect 8 0 0 0;
#X connect 8 1 1 0;
#X connect 8 2 2 0;
#X connect 8 3 3 0;
#X connect 8 4 4 0;
#X connect 8 5 5 0;
#X connect 8 6 6 0;
#X connect 8 7 7 0;
#X connect 8 8 9 0;
#X connect 9 0 19 0;
#X connect 10 0 8 0;
#X connect 20 0 21 0;
#X connect 21 0 11 0;
#X connect 21 0 12 0;
#X connect 21 0 13 0;
#X connect 21 0 14 0;
#X connect 21 0 15 0;
#X connect 21 0 16 0;
#X connect 21 0 17 0;
#X connect 21 0 18 0;
#X connect 21 0 19 0;
#X restore 156 358 pd pname;
#X symbolatom 400 70 18 0 0 0 - ffparam0 -;
#X symbolatom 539 69 18 0 0 0 - ffparam1 -;
#X symbolatom 678 69 18 0 0 0 - ffparam2 -;
#X symbolatom 401 131 18 0 0 0 - ffparam3 -;
#X symbolatom 540 130 18 0 0 0 - ffparam4 -;
#X symbolatom 679 130 18 0 0 0 - ffparam5 -;
#X symbolatom 401 191 18 0 0 0 - ffparam6 -;
#X symbolatom 540 190 18 0 0 0 - ffparam7 -;
#X symbolatom 679 190 18 0 0 0 - ffparam8 -;
#N canvas 0 0 996 665 default 0;
#X obj 97 86 route 0 1 2 3 4 5 6 7 8;
#X obj 97 51 inlet;
#X obj 391 53 inlet;
#X obj 51 154 s vparam0;
#X obj 393 114 float 0;
#X msg 392 88 bang;
#X obj 79 178 s vparam1;
#X obj 118 205 s vparam2;
#X obj 148 227 s vparam3;
#X obj 184 159 s vparam4;
#X obj 213 181 s vparam5;
#X obj 255 206 s vparam6;
#X obj 283 230 s vparam7;
#X obj 304 155 s vparam8;
#X connect 0 0 3 0;
#X connect 0 1 6 0;
#X connect 0 2 7 0;
#X connect 0 3 8 0;
#X connect 0 4 9 0;
#X connect 0 5 10 0;
#X connect 0 6 11 0;
#X connect 0 7 12 0;
#X connect 0 8 13 0;
#X connect 1 0 0 0;
#X connect 2 0 5 0;
#X connect 4 0 3 0;
#X connect 4 0 6 0;
#X connect 4 0 7 0;
#X connect 4 0 8 0;
#X connect 4 0 9 0;
#X connect 4 0 10 0;
#X connect 4 0 11 0;
#X connect 4 0 12 0;
#X connect 4 0 13 0;
#X connect 5 0 4 0;
#X restore 190 300 pd default;
#X obj 174 330 print type;
#X obj 12 10 inlet;
#X obj 18 381 outlet;
#X obj 209 13 loadbang;
#X obj 101 101 cnv 15 100 60 empty empty DropBG 20 30 0 42 -261234
-203904 0;
#X obj 146 100 cnv 10 10 10 empty empty empty 20 12 0 14 -260097 -66577
0;
#X obj 192 100 cnv 10 10 10 empty empty empty 20 12 0 14 -260097 -66577
0;
#X obj 101 100 cnv 10 10 10 empty empty empty 20 12 0 14 -260097 -66577
0;
#X obj 101 151 cnv 10 10 10 empty empty empty 20 12 0 14 -260097 -66577
0;
#X obj 68 16 inlet;
#X obj 118 26 inlet;
#X msg 400 36 pluginsdir /usr/lib/FreeFrame/plugins_binary;
#X msg 210 45 0;
#X obj 110 116 hsl 64 10 0 1 0 0 empty empty empty -2 -8 0 10 -262144
-1 -1 0 1;
#X obj 130 146 hsl 64 10 0 1 0 0 empty empty empty -2 -8 0 10 -262144
-1 -1 0 1;
#X connect 0 0 44 0;
#X connect 0 1 12 0;
#X connect 0 2 14 0;
#X connect 0 3 31 0;
#X connect 0 4 42 0;
#X connect 0 5 41 0;
#X connect 1 0 0 1;
#X connect 2 0 0 0;
#X connect 3 0 1 0;
#X connect 4 0 7 0;
#X connect 5 0 8 0;
#X connect 6 0 9 0;
#X connect 7 0 0 0;
#X connect 8 0 0 0;
#X connect 9 0 0 0;
#X connect 14 0 31 1;
#X connect 14 0 41 1;
#X connect 19 0 25 0;
#X connect 20 0 26 0;
#X connect 21 0 27 0;
#X connect 22 0 28 0;
#X connect 23 0 29 0;
#X connect 24 0 30 0;
#X connect 25 0 0 0;
#X connect 26 0 0 0;
#X connect 27 0 0 0;
#X connect 28 0 0 0;
#X connect 29 0 0 0;
#X connect 30 0 0 0;
#X connect 43 0 2 0;
#X connect 45 0 54 0;
#X connect 45 0 53 0;
#X connect 51 0 55 0;
#X connect 52 0 56 0;
#X connect 53 0 0 0;
#X connect 54 0 3 0;
#X connect 55 0 19 0;
#X connect 56 0 20 0;
#X coords 0 -1 1 1 102 62 1 100 100;
#X restore 13 365 pd FF_bckdrp;
#N canvas 256 219 639 300 FF_bk-light 0;
#X obj 53 255 pdp_freeframe;
#X floatatom 347 24 5 0 0 0 - - -;
#X obj 12 185 pdp_scale 320 240;
#X obj 392 22 hradio 15 1 0 44 empty empty empty 0 -6 0 8 -262144 -1
-1 1;
#X obj 401 148 hsl 128 15 0 1 0 0 empty vparam3 empty -2 -6 0 8 -262144
-1 -1 0 1;
#X obj 541 148 hsl 128 15 0 1 0 0 empty vparam4 empty -2 -6 0 8 -262144
-1 -1 0 1;
#X obj 681 148 hsl 128 15 0 1 0 0 empty vparam5 empty -2 -6 0 8 -262144
-1 -1 0 1;
#X msg 398 168 param 3 \$1;
#X msg 538 167 param 4 \$1;
#X msg 679 167 param 5 \$1;
#X text 394 2 Select the plugin;
#X text 398 49 Adjust plugin parameters.;
#X symbolatom 106 408 20 0 0 0 - - -;
#X text 259 408 <-- plugin name;
#X floatatom 125 386 5 0 0 0 - - -;
#X text 173 384 <-- number of parameters;
#X text 224 358 <-- parameter name;
#X text 251 330 <-- parameter type;
#X text 267 301 <-- parameter default;
#X obj 403 89 hsl 128 15 0 1 0 0 empty vparam0 empty -2 -6 0 8 -262144
-1 -1 0 1;
#X obj 541 89 hsl 128 15 0 1 0 0 empty vparam1 empty -2 -6 0 8 -262144
-1 -1 0 1;
#X obj 682 89 hsl 128 15 0 1 0 0 empty vparam2 empty -2 -6 0 8 -262144
-1 -1 0 1;
#X obj 401 211 hsl 128 15 0 1 0 0 empty vparam6 empty -2 -6 0 8 -262144
-1 -1 0 1;
#X obj 542 211 hsl 128 15 0 1 0 0 empty vparam7 empty -2 -6 0 8 -262144
-1 -1 0 1;
#X obj 684 211 hsl 128 15 0 1 0 0 empty vparam8 empty -2 -6 0 8 -262144
-1 -1 0 1;
#X msg 400 108 param 0 \$1;
#X msg 538 108 param 1 \$1;
#X msg 679 108 param 2 \$1;
#X msg 400 231 param 6 \$1;
#X msg 539 230 param 7 \$1;
#X msg 681 230 param 8 \$1;
#N canvas 0 0 996 665 pname 0;
#X obj 51 119 l2s;
#X obj 80 119 l2s;
#X obj 111 119 l2s;
#X obj 143 119 l2s;
#X obj 207 120 l2s;
#X obj 236 120 l2s;
#X obj 267 120 l2s;
#X obj 298 119 l2s;
#X obj 97 86 route 0 1 2 3 4 5 6 7 8;
#X obj 327 119 l2s;
#X obj 97 51 inlet;
#X obj 51 154 s ffparam0;
#X obj 79 178 s ffparam1;
#X obj 118 205 s ffparam2;
#X obj 148 227 s ffparam3;
#X obj 185 157 s ffparam4;
#X obj 213 181 s ffparam5;
#X obj 255 206 s ffparam6;
#X obj 283 230 s ffparam7;
#X obj 305 155 s ffparam8;
#X obj 391 53 inlet;
#X msg 390 79 symbol;
#X connect 0 0 11 0;
#X connect 1 0 12 0;
#X connect 2 0 13 0;
#X connect 3 0 14 0;
#X connect 4 0 15 0;
#X connect 5 0 16 0;
#X connect 6 0 17 0;
#X connect 7 0 18 0;
#X connect 8 0 0 0;
#X connect 8 1 1 0;
#X connect 8 2 2 0;
#X connect 8 3 3 0;
#X connect 8 4 4 0;
#X connect 8 5 5 0;
#X connect 8 6 6 0;
#X connect 8 7 7 0;
#X connect 8 8 9 0;
#X connect 9 0 19 0;
#X connect 10 0 8 0;
#X connect 20 0 21 0;
#X connect 21 0 11 0;
#X connect 21 0 12 0;
#X connect 21 0 13 0;
#X connect 21 0 14 0;
#X connect 21 0 15 0;
#X connect 21 0 16 0;
#X connect 21 0 17 0;
#X connect 21 0 18 0;
#X connect 21 0 19 0;
#X restore 156 358 pd pname;
#X symbolatom 400 70 18 0 0 0 - ffparam0 -;
#X symbolatom 539 69 18 0 0 0 - ffparam1 -;
#X symbolatom 678 69 18 0 0 0 - ffparam2 -;
#X symbolatom 401 131 18 0 0 0 - ffparam3 -;
#X symbolatom 540 130 18 0 0 0 - ffparam4 -;
#X symbolatom 679 130 18 0 0 0 - ffparam5 -;
#X symbolatom 401 191 18 0 0 0 - ffparam6 -;
#X symbolatom 540 190 18 0 0 0 - ffparam7 -;
#X symbolatom 679 190 18 0 0 0 - ffparam8 -;
#N canvas 0 0 996 665 default 0;
#X obj 97 86 route 0 1 2 3 4 5 6 7 8;
#X obj 97 51 inlet;
#X obj 391 53 inlet;
#X obj 51 154 s vparam0;
#X obj 393 114 float 0;
#X msg 392 88 bang;
#X obj 79 178 s vparam1;
#X obj 118 205 s vparam2;
#X obj 148 227 s vparam3;
#X obj 184 159 s vparam4;
#X obj 213 181 s vparam5;
#X obj 255 206 s vparam6;
#X obj 283 230 s vparam7;
#X obj 304 155 s vparam8;
#X connect 0 0 3 0;
#X connect 0 1 6 0;
#X connect 0 2 7 0;
#X connect 0 3 8 0;
#X connect 0 4 9 0;
#X connect 0 5 10 0;
#X connect 0 6 11 0;
#X connect 0 7 12 0;
#X connect 0 8 13 0;
#X connect 1 0 0 0;
#X connect 2 0 5 0;
#X connect 4 0 3 0;
#X connect 4 0 6 0;
#X connect 4 0 7 0;
#X connect 4 0 8 0;
#X connect 4 0 9 0;
#X connect 4 0 10 0;
#X connect 4 0 11 0;
#X connect 4 0 12 0;
#X connect 4 0 13 0;
#X connect 5 0 4 0;
#X restore 190 300 pd default;
#X obj 174 330 print type;
#X obj 12 10 inlet;
#X obj 18 381 outlet;
#X obj 209 13 loadbang;
#X obj 101 101 cnv 15 100 60 empty empty BKlight 20 30 0 42 -204786
-203904 0;
#X obj 134 100 cnv 10 10 10 empty empty empty 20 12 0 14 -260097 -66577
0;
#X obj 192 100 cnv 10 10 10 empty empty empty 20 12 0 14 -260097 -66577
0;
#X obj 101 100 cnv 10 10 10 empty empty empty 20 12 0 14 -260097 -66577
0;
#X obj 101 151 cnv 10 10 10 empty empty empty 20 12 0 14 -260097 -66577
0;
#X obj 68 16 inlet;
#X obj 118 26 inlet;
#X msg 400 36 pluginsdir /usr/lib/FreeFrame/plugins_binary;
#X obj 165 100 cnv 10 10 10 empty empty empty 20 12 0 14 -260097 -66577
0;
#X msg 210 45 1;
#X obj 110 116 hsl 64 10 0 1 0 0 empty empty empty -2 -8 0 10 -262144
-1 -1 0 1;
#X obj 120 131 hsl 64 10 0 1 0 0 empty empty empty -2 -8 0 10 -262144
-1 -1 0 1;
#X obj 130 146 hsl 64 10 0 1 0 0 empty empty empty -2 -8 0 10 -262144
-1 -1 0 1;
#X obj 156 54 inlet;
#X connect 0 0 44 0;
#X connect 0 1 12 0;
#X connect 0 2 14 0;
#X connect 0 3 31 0;
#X connect 0 4 42 0;
#X connect 0 5 41 0;
#X connect 1 0 0 1;
#X connect 2 0 0 0;
#X connect 3 0 1 0;
#X connect 4 0 7 0;
#X connect 5 0 8 0;
#X connect 6 0 9 0;
#X connect 7 0 0 0;
#X connect 8 0 0 0;
#X connect 9 0 0 0;
#X connect 14 0 31 1;
#X connect 14 0 41 1;
#X connect 19 0 25 0;
#X connect 20 0 26 0;
#X connect 21 0 27 0;
#X connect 22 0 28 0;
#X connect 23 0 29 0;
#X connect 24 0 30 0;
#X connect 25 0 0 0;
#X connect 26 0 0 0;
#X connect 27 0 0 0;
#X connect 28 0 0 0;
#X connect 29 0 0 0;
#X connect 30 0 0 0;
#X connect 43 0 2 0;
#X connect 45 0 55 0;
#X connect 45 0 53 0;
#X connect 51 0 56 0;
#X connect 52 0 57 0;
#X connect 53 0 0 0;
#X connect 55 0 3 0;
#X connect 56 0 19 0;
#X connect 57 0 20 0;
#X connect 58 0 21 0;
#X connect 59 0 58 0;
#X coords 0 -1 1 1 102 62 1 100 100;
#X restore 142 364 pd FF_bk-light;
#N canvas 0 0 1274 714 FF-bloom 0;
#X obj 53 255 pdp_freeframe;
#X floatatom 347 24 5 0 0 0 - - -;
#X obj 12 185 pdp_scale 320 240;
#X obj 392 22 hradio 15 1 0 44 empty empty empty 0 -6 0 8 -262144 -1
-1 2;
#X obj 401 148 hsl 128 15 0 1 0 0 empty vparam3 empty -2 -6 0 8 -262144
-1 -1 0 1;
#X obj 541 148 hsl 128 15 0 1 0 0 empty vparam4 empty -2 -6 0 8 -262144
-1 -1 0 1;
#X obj 681 148 hsl 128 15 0 1 0 0 empty vparam5 empty -2 -6 0 8 -262144
-1 -1 0 1;
#X msg 398 168 param 3 \$1;
#X msg 538 167 param 4 \$1;
#X msg 679 167 param 5 \$1;
#X text 394 2 Select the plugin;
#X text 398 49 Adjust plugin parameters.;
#X symbolatom 106 408 20 0 0 0 - - -;
#X text 259 408 <-- plugin name;
#X floatatom 125 386 5 0 0 0 - - -;
#X text 173 384 <-- number of parameters;
#X text 224 358 <-- parameter name;
#X text 251 330 <-- parameter type;
#X text 267 301 <-- parameter default;
#X obj 403 89 hsl 128 15 0 1 0 0 empty vparam0 empty -2 -6 0 8 -262144
-1 -1 0 1;
#X obj 541 89 hsl 128 15 0 1 0 0 empty vparam1 empty -2 -6 0 8 -262144
-1 -1 0 1;
#X obj 682 89 hsl 128 15 0 1 0 0 empty vparam2 empty -2 -6 0 8 -262144
-1 -1 0 1;
#X obj 401 211 hsl 128 15 0 1 0 0 empty vparam6 empty -2 -6 0 8 -262144
-1 -1 0 1;
#X obj 542 211 hsl 128 15 0 1 0 0 empty vparam7 empty -2 -6 0 8 -262144
-1 -1 0 1;
#X obj 684 211 hsl 128 15 0 1 0 0 empty vparam8 empty -2 -6 0 8 -262144
-1 -1 0 1;
#X msg 400 108 param 0 \$1;
#X msg 538 108 param 1 \$1;
#X msg 679 108 param 2 \$1;
#X msg 400 231 param 6 \$1;
#X msg 539 230 param 7 \$1;
#X msg 681 230 param 8 \$1;
#N canvas 0 0 996 665 pname 0;
#X obj 51 119 l2s;
#X obj 80 119 l2s;
#X obj 111 119 l2s;
#X obj 143 119 l2s;
#X obj 207 120 l2s;
#X obj 236 120 l2s;
#X obj 267 120 l2s;
#X obj 298 119 l2s;
#X obj 97 86 route 0 1 2 3 4 5 6 7 8;
#X obj 327 119 l2s;
#X obj 97 51 inlet;
#X obj 51 154 s ffparam0;
#X obj 79 178 s ffparam1;
#X obj 118 205 s ffparam2;
#X obj 148 227 s ffparam3;
#X obj 185 157 s ffparam4;
#X obj 213 181 s ffparam5;
#X obj 255 206 s ffparam6;
#X obj 283 230 s ffparam7;
#X obj 305 155 s ffparam8;
#X obj 391 53 inlet;
#X msg 390 79 symbol;
#X connect 0 0 11 0;
#X connect 1 0 12 0;
#X connect 2 0 13 0;
#X connect 3 0 14 0;
#X connect 4 0 15 0;
#X connect 5 0 16 0;
#X connect 6 0 17 0;
#X connect 7 0 18 0;
#X connect 8 0 0 0;
#X connect 8 1 1 0;
#X connect 8 2 2 0;
#X connect 8 3 3 0;
#X connect 8 4 4 0;
#X connect 8 5 5 0;
#X connect 8 6 6 0;
#X connect 8 7 7 0;
#X connect 8 8 9 0;
#X connect 9 0 19 0;
#X connect 10 0 8 0;
#X connect 20 0 21 0;
#X connect 21 0 11 0;
#X connect 21 0 12 0;
#X connect 21 0 13 0;
#X connect 21 0 14 0;
#X connect 21 0 15 0;
#X connect 21 0 16 0;
#X connect 21 0 17 0;
#X connect 21 0 18 0;
#X connect 21 0 19 0;
#X restore 156 358 pd pname;
#X symbolatom 400 70 18 0 0 0 - ffparam0 -;
#X symbolatom 539 69 18 0 0 0 - ffparam1 -;
#X symbolatom 678 69 18 0 0 0 - ffparam2 -;
#X symbolatom 401 131 18 0 0 0 - ffparam3 -;
#X symbolatom 540 130 18 0 0 0 - ffparam4 -;
#X symbolatom 679 130 18 0 0 0 - ffparam5 -;
#X symbolatom 401 191 18 0 0 0 - ffparam6 -;
#X symbolatom 540 190 18 0 0 0 - ffparam7 -;
#X symbolatom 679 190 18 0 0 0 - ffparam8 -;
#N canvas 0 0 996 665 default 0;
#X obj 97 86 route 0 1 2 3 4 5 6 7 8;
#X obj 97 51 inlet;
#X obj 391 53 inlet;
#X obj 51 154 s vparam0;
#X obj 393 114 float 0;
#X msg 392 88 bang;
#X obj 79 178 s vparam1;
#X obj 118 205 s vparam2;
#X obj 148 227 s vparam3;
#X obj 184 159 s vparam4;
#X obj 213 181 s vparam5;
#X obj 255 206 s vparam6;
#X obj 283 230 s vparam7;
#X obj 304 155 s vparam8;
#X connect 0 0 3 0;
#X connect 0 1 6 0;
#X connect 0 2 7 0;
#X connect 0 3 8 0;
#X connect 0 4 9 0;
#X connect 0 5 10 0;
#X connect 0 6 11 0;
#X connect 0 7 12 0;
#X connect 0 8 13 0;
#X connect 1 0 0 0;
#X connect 2 0 5 0;
#X connect 4 0 3 0;
#X connect 4 0 6 0;
#X connect 4 0 7 0;
#X connect 4 0 8 0;
#X connect 4 0 9 0;
#X connect 4 0 10 0;
#X connect 4 0 11 0;
#X connect 4 0 12 0;
#X connect 4 0 13 0;
#X connect 5 0 4 0;
#X restore 190 300 pd default;
#X obj 174 330 print type;
#X obj 12 10 inlet;
#X obj 18 381 outlet;
#X obj 299 3 loadbang;
#X obj 101 101 cnv 15 100 60 empty empty Bloom 20 30 0 42 -203904 -257985
0;
#X obj 133 100 cnv 10 10 10 empty empty empty 20 12 0 14 -260097 -66577
0;
#X obj 192 100 cnv 10 10 10 empty empty empty 20 12 0 14 -260097 -66577
0;
#X obj 101 100 cnv 10 10 10 empty empty empty 20 12 0 14 -260097 -66577
0;
#X obj 101 151 cnv 10 10 10 empty empty empty 20 12 0 14 -260097 -66577
0;
#X obj 48 9 inlet;
#X obj 88 9 inlet;
#X msg 400 36 pluginsdir /usr/lib/FreeFrame/plugins_binary;
#X obj 165 100 cnv 10 10 10 empty empty empty 20 12 0 14 -260097 -66577
0;
#X obj 120 137 hsl 64 10 0 1 0 0 empty empty empty -2 -8 0 10 -262144
-1 -1 0 1;
#X obj 130 149 hsl 64 10 0 1 0 0 empty empty empty -2 -8 0 10 -262144
-1 -1 0 1;
#X obj 126 7 inlet;
#X msg 300 35 2;
#X obj 110 116 knob 16 16 0 127 0 0 empty empty empty 0 -8 0 8 -262144
-1 -1 0 1;
#X obj 130 116 knob 16 16 0 127 0 0 empty empty empty 0 -8 0 8 -262144
-1 -1 0 1;
#X obj 150 116 knob 16 16 0 127 0 0 empty empty empty 0 -8 0 8 -262144
-1 -1 0 1;
#X obj 170 116 knob 16 16 0 127 0 0 empty empty empty 0 -8 0 8 -262144
-1 -1 0 1;
#X obj 117 100 cnv 10 10 10 empty empty empty 20 12 0 14 -260097 -66577
0;
#X obj 179 100 cnv 10 10 10 empty empty empty 20 12 0 14 -260097 -66577
0;
#X obj 150 100 cnv 10 10 10 empty empty empty 20 12 0 14 -260097 -66577
0;
#X obj 165 8 inlet;
#X obj 205 8 inlet;
#X obj 243 6 inlet;
#X connect 0 0 44 0;
#X connect 0 1 12 0;
#X connect 0 2 14 0;
#X connect 0 3 31 0;
#X connect 0 4 42 0;
#X connect 0 5 41 0;
#X connect 1 0 0 1;
#X connect 2 0 0 0;
#X connect 3 0 1 0;
#X connect 4 0 7 0;
#X connect 5 0 8 0;
#X connect 6 0 9 0;
#X connect 7 0 0 0;
#X connect 8 0 0 0;
#X connect 9 0 0 0;
#X connect 14 0 31 1;
#X connect 14 0 41 1;
#X connect 19 0 25 0;
#X connect 20 0 26 0;
#X connect 21 0 27 0;
#X connect 22 0 28 0;
#X connect 23 0 29 0;
#X connect 24 0 30 0;
#X connect 25 0 0 0;
#X connect 26 0 0 0;
#X connect 27 0 0 0;
#X connect 28 0 0 0;
#X connect 29 0 0 0;
#X connect 30 0 0 0;
#X connect 43 0 2 0;
#X connect 45 0 58 0;
#X connect 45 0 53 0;
#X connect 51 0 59 0;
#X connect 52 0 60 0;
#X connect 53 0 0 0;
#X connect 55 0 20 0;
#X connect 56 0 21 0;
#X connect 57 0 61 0;
#X connect 58 0 3 0;
#X connect 59 0 19 0;
#X connect 60 0 4 0;
#X connect 61 0 5 0;
#X connect 62 0 6 0;
#X connect 66 0 62 0;
#X connect 67 0 55 0;
#X connect 68 0 56 0;
#X coords 0 -1 1 1 102 62 1 100 100;
#X restore 267 365 pd FF-bloom;
#N canvas 0 0 1274 714 FF-burn 0;
#X obj 53 255 pdp_freeframe;
#X floatatom 336 50 5 0 0 0 - - -;
#X obj 392 22 hradio 15 1 0 44 empty empty empty 0 -6 0 8 -262144 -1
-1 3;
#X obj 401 148 hsl 128 15 0 1 0 0 empty vparam3 empty -2 -6 0 8 -262144
-1 -1 0 1;
#X obj 541 148 hsl 128 15 0 1 0 0 empty vparam4 empty -2 -6 0 8 -262144
-1 -1 0 1;
#X obj 681 148 hsl 128 15 0 1 0 0 empty vparam5 empty -2 -6 0 8 -262144
-1 -1 0 1;
#X msg 398 168 param 3 \$1;
#X msg 538 167 param 4 \$1;
#X msg 679 167 param 5 \$1;
#X text 394 2 Select the plugin;
#X text 398 49 Adjust plugin parameters.;
#X symbolatom 106 408 20 0 0 0 - - -;
#X text 259 408 <-- plugin name;
#X floatatom 125 386 5 0 0 0 - - -;
#X text 173 384 <-- number of parameters;
#X text 224 358 <-- parameter name;
#X text 251 330 <-- parameter type;
#X text 267 301 <-- parameter default;
#X obj 403 89 hsl 128 15 0 1 0 0 empty vparam0 empty -2 -6 0 8 -262144
-1 -1 0 1;
#X obj 541 89 hsl 128 15 0 1 0 0 empty vparam1 empty -2 -6 0 8 -262144
-1 -1 0 1;
#X obj 682 89 hsl 128 15 0 1 0 0 empty vparam2 empty -2 -6 0 8 -262144
-1 -1 0 1;
#X obj 401 211 hsl 128 15 0 1 0 0 empty vparam6 empty -2 -6 0 8 -262144
-1 -1 0 1;
#X obj 542 211 hsl 128 15 0 1 0 0 empty vparam7 empty -2 -6 0 8 -262144
-1 -1 0 1;
#X obj 684 211 hsl 128 15 0 1 0 0 empty vparam8 empty -2 -6 0 8 -262144
-1 -1 0 1;
#X msg 400 108 param 0 \$1;
#X msg 538 108 param 1 \$1;
#X msg 679 108 param 2 \$1;
#X msg 400 231 param 6 \$1;
#X msg 539 230 param 7 \$1;
#X msg 681 230 param 8 \$1;
#N canvas 0 0 996 665 pname 0;
#X obj 51 119 l2s;
#X obj 80 119 l2s;
#X obj 111 119 l2s;
#X obj 143 119 l2s;
#X obj 207 120 l2s;
#X obj 236 120 l2s;
#X obj 267 120 l2s;
#X obj 298 119 l2s;
#X obj 97 86 route 0 1 2 3 4 5 6 7 8;
#X obj 327 119 l2s;
#X obj 97 51 inlet;
#X obj 51 154 s ffparam0;
#X obj 79 178 s ffparam1;
#X obj 118 205 s ffparam2;
#X obj 148 227 s ffparam3;
#X obj 185 157 s ffparam4;
#X obj 213 181 s ffparam5;
#X obj 255 206 s ffparam6;
#X obj 283 230 s ffparam7;
#X obj 305 155 s ffparam8;
#X obj 391 53 inlet;
#X msg 390 79 symbol;
#X connect 0 0 11 0;
#X connect 1 0 12 0;
#X connect 2 0 13 0;
#X connect 3 0 14 0;
#X connect 4 0 15 0;
#X connect 5 0 16 0;
#X connect 6 0 17 0;
#X connect 7 0 18 0;
#X connect 8 0 0 0;
#X connect 8 1 1 0;
#X connect 8 2 2 0;
#X connect 8 3 3 0;
#X connect 8 4 4 0;
#X connect 8 5 5 0;
#X connect 8 6 6 0;
#X connect 8 7 7 0;
#X connect 8 8 9 0;
#X connect 9 0 19 0;
#X connect 10 0 8 0;
#X connect 20 0 21 0;
#X connect 21 0 11 0;
#X connect 21 0 12 0;
#X connect 21 0 13 0;
#X connect 21 0 14 0;
#X connect 21 0 15 0;
#X connect 21 0 16 0;
#X connect 21 0 17 0;
#X connect 21 0 18 0;
#X connect 21 0 19 0;
#X restore 156 358 pd pname;
#X symbolatom 400 70 18 0 0 0 - ffparam0 -;
#X symbolatom 539 69 18 0 0 0 - ffparam1 -;
#X symbolatom 678 69 18 0 0 0 - ffparam2 -;
#X symbolatom 401 131 18 0 0 0 - ffparam3 -;
#X symbolatom 540 130 18 0 0 0 - ffparam4 -;
#X symbolatom 679 130 18 0 0 0 - ffparam5 -;
#X symbolatom 401 191 18 0 0 0 - ffparam6 -;
#X symbolatom 540 190 18 0 0 0 - ffparam7 -;
#X symbolatom 679 190 18 0 0 0 - ffparam8 -;
#N canvas 0 0 996 665 default 0;
#X obj 97 86 route 0 1 2 3 4 5 6 7 8;
#X obj 97 51 inlet;
#X obj 391 53 inlet;
#X obj 51 154 s vparam0;
#X obj 393 114 float 0;
#X msg 392 88 bang;
#X obj 79 178 s vparam1;
#X obj 118 205 s vparam2;
#X obj 148 227 s vparam3;
#X obj 184 159 s vparam4;
#X obj 213 181 s vparam5;
#X obj 255 206 s vparam6;
#X obj 283 230 s vparam7;
#X obj 304 155 s vparam8;
#X connect 0 0 3 0;
#X connect 0 1 6 0;
#X connect 0 2 7 0;
#X connect 0 3 8 0;
#X connect 0 4 9 0;
#X connect 0 5 10 0;
#X connect 0 6 11 0;
#X connect 0 7 12 0;
#X connect 0 8 13 0;
#X connect 1 0 0 0;
#X connect 2 0 5 0;
#X connect 4 0 3 0;
#X connect 4 0 6 0;
#X connect 4 0 7 0;
#X connect 4 0 8 0;
#X connect 4 0 9 0;
#X connect 4 0 10 0;
#X connect 4 0 11 0;
#X connect 4 0 12 0;
#X connect 4 0 13 0;
#X connect 5 0 4 0;
#X restore 190 300 pd default;
#X obj 174 330 print type;
#X obj 12 10 inlet;
#X obj 5 377 outlet;
#X obj 209 13 loadbang;
#X obj 101 101 cnv 15 100 60 empty empty Burn 20 30 0 42 -130162 -203904
0;
#X obj 192 100 cnv 10 10 10 empty empty empty 20 12 0 14 -260097 -66577
0;
#X obj 101 100 cnv 10 10 10 empty empty empty 20 12 0 14 -260097 -66577
0;
#X obj 101 151 cnv 10 10 10 empty empty empty 20 12 0 14 -260097 -66577
0;
#X obj 118 26 inlet;
#X msg 400 36 pluginsdir /usr/lib/FreeFrame/plugins_binary;
#X msg 210 45 3;
#X obj 142 124 tgl 15 0 empty empty empty 17 7 0 10 -262144 -1 -1 0
1;
#X obj 8 149 pdp_spigot;
#X obj 45 193 pdp_scale 640 480;
#X connect 0 0 43 0;
#X connect 0 1 11 0;
#X connect 0 2 13 0;
#X connect 0 3 30 0;
#X connect 0 4 41 0;
#X connect 0 5 40 0;
#X connect 1 0 0 1;
#X connect 2 0 1 0;
#X connect 3 0 6 0;
#X connect 4 0 7 0;
#X connect 5 0 8 0;
#X connect 6 0 0 0;
#X connect 7 0 0 0;
#X connect 8 0 0 0;
#X connect 13 0 30 1;
#X connect 13 0 40 1;
#X connect 18 0 24 0;
#X connect 19 0 25 0;
#X connect 20 0 26 0;
#X connect 21 0 27 0;
#X connect 22 0 28 0;
#X connect 23 0 29 0;
#X connect 24 0 0 0;
#X connect 25 0 0 0;
#X connect 26 0 0 0;
#X connect 27 0 0 0;
#X connect 28 0 0 0;
#X connect 29 0 0 0;
#X connect 42 0 53 0;
#X connect 44 0 51 0;
#X connect 44 0 50 0;
#X connect 49 0 52 0;
#X connect 50 0 0 0;
#X connect 51 0 2 0;
#X connect 52 0 53 1;
#X connect 53 0 43 0;
#X connect 53 1 54 0;
#X connect 54 0 0 0;
#X coords 0 -1 1 1 102 62 1 100 100;
#X restore 385 366 pd FF-burn;
#N canvas 0 0 450 300 scope~ 0;
#X obj 47 210 pdp_scope~;
#X obj 47 54 metro 40;
#X floatatom 104 28 5 0 0 0 - - -;
#X msg 211 171 type grey;
#X msg 211 149 type yv12;
#X msg 211 197 dim 320 240;
#X text 141 76 a very simple oscilloscope;
#X text 162 213 set output image type and dimensions;
#X obj 47 265 outlet;
#X obj 56 127 adc~;
#X obj 101 101 cnv 15 100 60 empty empty Scope~ 20 40 0 48 -232576
-191407 0;
#X obj 184 134 bng 15 250 50 0 empty empty empty 0 -6 0 8 -262144 -1
-1;
#X text 102 114 senoide do audio;
#X text 102 102 ~~~~~~~~~~;
#X obj 101 146 cnv 15 15 15 empty empty empty 20 12 0 14 -260097 -66577
0;
#X connect 0 0 8 0;
#X connect 1 0 0 0;
#X connect 2 0 1 1;
#X connect 3 0 0 0;
#X connect 4 0 0 0;
#X connect 5 0 0 0;
#X connect 9 0 0 0;
#X connect 9 1 0 0;
#X connect 11 0 1 0;
#X coords 0 -1 1 1 102 62 1 100 100;
#X restore 11 217 pd scope~;
#N canvas 0 0 492 376 del 0;
#X floatatom 117 126 5 0 0 0 - - -;
#X floatatom 74 217 5 0 0 0 - - -;
#X obj 30 246 pdp_mix;
#X msg 74 193 0.5;
#X obj 52 157 pdp_del 50;
#X obj 30 70 inlet;
#X floatatom 147 215 5 0 0 0 - - -;
#X floatatom 104 306 5 0 0 0 - - -;
#X obj 60 335 pdp_mix;
#X msg 104 282 0.5;
#X obj 82 246 pdp_del 50;
#X floatatom 247 126 5 0 0 0 - - -;
#X floatatom 204 217 5 0 0 0 - - -;
#X obj 160 246 pdp_mix;
#X msg 204 193 0.5;
#X obj 182 157 pdp_del 50;
#X floatatom 277 215 5 0 0 0 - - -;
#X floatatom 234 306 5 0 0 0 - - -;
#X obj 190 335 pdp_mix;
#X msg 234 282 0.5;
#X obj 212 246 pdp_del 50;
#X floatatom 377 126 5 0 0 0 - - -;
#X floatatom 334 217 5 0 0 0 - - -;
#X obj 290 246 pdp_mix;
#X msg 334 193 0.5;
#X obj 312 157 pdp_del 50;
#X floatatom 407 215 5 0 0 0 - - -;
#X floatatom 364 306 5 0 0 0 - - -;
#X obj 320 335 pdp_mix;
#X msg 364 282 0.5;
#X obj 342 246 pdp_del 50;
#X obj 406 352 outlet;
#X obj 101 51 cnv 15 100 60 empty empty Delay6 20 30 0 48 -223317 -228856
0;
#X obj 101 101 cnv 10 10 10 empty empty empty 20 12 0 14 -260097 -66577
0;
#X obj 101 51 cnv 10 10 10 empty empty empty 20 12 0 14 -260097 -66577
0;
#X connect 0 0 4 1;
#X connect 1 0 2 2;
#X connect 2 0 10 0;
#X connect 2 0 8 0;
#X connect 3 0 1 0;
#X connect 4 0 2 1;
#X connect 5 0 2 0;
#X connect 5 0 4 0;
#X connect 6 0 10 1;
#X connect 7 0 8 2;
#X connect 8 0 15 0;
#X connect 8 0 13 0;
#X connect 9 0 7 0;
#X connect 10 0 8 1;
#X connect 11 0 15 1;
#X connect 12 0 13 2;
#X connect 13 0 20 0;
#X connect 13 0 18 0;
#X connect 14 0 12 0;
#X connect 15 0 13 1;
#X connect 16 0 20 1;
#X connect 17 0 18 2;
#X connect 18 0 25 0;
#X connect 19 0 17 0;
#X connect 20 0 18 1;
#X connect 21 0 25 1;
#X connect 22 0 23 2;
#X connect 23 0 30 0;
#X connect 23 0 28 0;
#X connect 24 0 22 0;
#X connect 25 0 23 1;
#X connect 26 0 30 1;
#X connect 27 0 28 2;
#X connect 28 0 31 0;
#X connect 29 0 27 0;
#X connect 30 0 28 1;
#X coords 0 -1 1 1 102 62 1 100 50;
#X restore 328 144 pd del;
#N canvas 0 0 553 522 feedback 0;
#X obj 20 21 bng 15 250 50 0 empty empty empty 0 -6 0 8 -262144 -1
-1;
#X obj 130 127 pdp_grey;
#X obj 445 204 pdp_control;
#X msg 445 177 thread 0;
#X obj 131 234 pdp_reg;
#X floatatom 91 17 5 0 0 0 - - -;
#X msg 45 20 stop;
#X floatatom 197 351 5 0 0 0 - - -;
#X obj 130 420 pdp_zrot;
#X floatatom 198 399 5 0 0 0 - - -;
#X obj 130 463 pdp_blur;
#X floatatom 198 445 5 0 0 0 - - -;
#X obj 130 102 pdp_noise;
#X obj 130 80 bng 15 250 50 0 empty empty empty 0 -6 0 8 -262144 -1
-1;
#N canvas 623 175 567 478 nlmap 0;
#X obj 89 138 pdp_affine;
#X msg 123 108 -1;
#X msg 156 108 1;
#X obj 92 161 pdp_mul;
#X obj 95 189 pdp_gain;
#X floatatom 234 159 5 0 0 0 - - -;
#X msg 259 119 3.73;
#X obj 100 272 pdp_affine;
#X msg 134 242 -1;
#X msg 167 242 1;
#X obj 103 295 pdp_mul;
#X obj 106 323 pdp_gain;
#X floatatom 168 299 5 0 0 0 - - -;
#X msg 185 271 3.73;
#X obj 254 54 inlet;
#X obj 79 55 inlet;
#X obj 98 405 outlet;
#X obj 164 60 loadbang;
#X obj 190 84 bng 15 250 50 0 empty empty empty 0 -6 0 8 -262144 -1
-1;
#X text 260 220 this computes f(f(image));
#X text 261 236 with f(x) = k*x*(1-x);
#X text 286 160 k;
#X text 260 253 the logistic map;
#X text 173 353 2 iterations are used to eliminate most of the high
frequency flickering;
#X connect 0 0 3 0;
#X connect 1 0 0 1;
#X connect 2 0 0 2;
#X connect 3 0 4 0;
#X connect 4 0 10 1;
#X connect 4 0 7 0;
#X connect 5 0 4 1;
#X connect 5 0 12 0;
#X connect 6 0 5 0;
#X connect 7 0 10 0;
#X connect 8 0 7 1;
#X connect 9 0 7 2;
#X connect 10 0 11 0;
#X connect 11 0 16 0;
#X connect 12 0 11 1;
#X connect 13 0 12 0;
#X connect 14 0 5 0;
#X connect 15 0 3 1;
#X connect 15 0 0 0;
#X connect 17 0 18 0;
#X connect 18 0 2 0;
#X connect 18 0 1 0;
#X connect 18 0 6 0;
#X connect 18 0 8 0;
#X connect 18 0 9 0;
#X restore 131 284 pd nlmap;
#X obj 83 586 pdp_xv;
#X floatatom 190 242 5 0 0 0 - - -;
#X text 206 285 2 iterations of the logistic map function;
#X obj 131 153 pdp_mul;
#X obj 307 104 pdp_noise;
#X obj 307 82 bng 15 250 50 0 empty empty empty 0 -6 0 8 -262144 -1
-1;
#X obj 307 131 pdp_mul;
#X obj 83 531 pdp_saturation;
#X floatatom 176 500 5 0 0 0 - - -;
#X obj 40 46 metro 70;
#X msg 191 216 3.8;
#X msg 196 328 1.17;
#X msg 198 378 -2.33;
#X text 252 351 zoom;
#X text 251 401 rotate;
#X msg 198 424 0.33;
#X text 149 22 feedback with nonlinear mapping + zoom + rotate + blur
;
#X msg 92 -5 40;
#X msg 126 -5 500;
#X text 121 57 grey1;
#X obj 222 129 pdp_grey;
#X obj 222 104 pdp_noise;
#X obj 222 82 bng 15 250 50 0 empty empty empty 0 -6 0 8 -262144 -1
-1;
#X text 213 59 grey2;
#X text 297 60 colour1;
#X obj 398 105 pdp_noise;
#X obj 398 83 bng 15 250 50 0 empty empty empty 0 -6 0 8 -262144 -1
-1;
#X text 388 61 colour2;
#X msg 248 473 -0.5;
#X msg 292 473 0.5;
#X obj 145 587 pdp_glx;
#X text 225 584 by Tom Schouten;
#X connect 0 0 24 0;
#X connect 1 0 18 1;
#X connect 1 0 18 0;
#X connect 3 0 2 0;
#X connect 4 0 14 0;
#X connect 5 0 24 1;
#X connect 6 0 24 0;
#X connect 7 0 8 1;
#X connect 8 0 10 0;
#X connect 9 0 8 2;
#X connect 10 0 4 1;
#X connect 11 0 10 1;
#X connect 12 0 1 0;
#X connect 13 0 12 0;
#X connect 14 0 8 0;
#X connect 14 0 22 0;
#X connect 16 0 14 1;
#X connect 18 0 4 0;
#X connect 19 0 21 1;
#X connect 19 0 21 0;
#X connect 20 0 19 0;
#X connect 21 0 4 0;
#X connect 22 0 15 0;
#X connect 23 0 22 1;
#X connect 24 0 4 0;
#X connect 25 0 16 0;
#X connect 26 0 7 0;
#X connect 27 0 9 0;
#X connect 30 0 11 0;
#X connect 32 0 5 0;
#X connect 33 0 5 0;
#X connect 35 0 4 0;
#X connect 36 0 35 0;
#X connect 37 0 36 0;
#X connect 40 0 4 0;
#X connect 41 0 40 0;
#X connect 43 0 23 0;
#X connect 44 0 23 0;
#X restore 342 286 pd feedback;
#X coords 0 0 1 1 800 210 0;
#X restore 67 -1 pd pureffects;
#N canvas 373 349 597 224 sources 0;
#N canvas 192 398 669 300 v4l 0;
#X obj 101 59 inlet;
#X obj 141 59 inlet;
#X obj 181 59 inlet;
#X obj 98 196 outlet;
#X obj 101 101 cnv 15 100 60 empty empty V4L 20 12 0 48 -135233 -228856
0;
#X obj 16 170 metro 40;
#X obj 117 139 tgl 15 0 empty empty empty 17 7 0 10 -262144 -1 -1 0
1;
#X symbolatom 140 124 3 0 0 0 - - -;
#X text 163 125 dev;
#X msg 257 213 open /dev/video\$1;
#X obj 101 101 cnv 10 10 10 empty empty empty 20 12 0 14 -260097 -66577
0;
#X obj 147 101 cnv 10 10 10 empty empty empty 20 12 0 14 -260097 -66577
0;
#X obj 191 101 cnv 10 10 10 empty empty empty 20 12 0 14 -260097 -66577
0;
#X obj 101 151 cnv 10 10 10 empty empty empty 20 12 0 14 -260097 -66577
0;
#X obj 14 214 pdp_v4l;
#X text 142 140 comment;
#X connect 1 0 6 0;
#X connect 2 0 7 0;
#X connect 5 0 14 0;
#X connect 6 0 5 0;
#X connect 7 0 9 0;
#X connect 9 0 14 0;
#X connect 14 0 3 0;
#X coords 0 -1 1 1 102 62 1 100 100;
#X restore 8 -42 pd v4l;
#N canvas 693 366 450 300 v4l2 0;
#X floatatom 17 102 5 0 0 0 - - -;
#X msg 17 122 format \$1;
#X obj 101 59 inlet;
#X obj 141 59 inlet;
#X obj 181 59 inlet;
#X obj 98 196 outlet;
#X obj 101 101 cnv 15 100 60 empty empty V4L2 20 12 0 48 -45633 -228856
0;
#X obj 16 170 metro 40;
#X obj 117 139 tgl 15 0 empty empty empty 17 7 0 10 -262144 -1 -1 0
1;
#X symbolatom 140 124 3 0 0 0 - - -;
#X text 163 125 dev;
#X msg 257 213 open /dev/video\$1;
#X obj 101 101 cnv 10 10 10 empty empty empty 20 12 0 14 -260097 -66577
0;
#X obj 147 101 cnv 10 10 10 empty empty empty 20 12 0 14 -260097 -66577
0;
#X obj 191 101 cnv 10 10 10 empty empty empty 20 12 0 14 -260097 -66577
0;
#X obj 101 151 cnv 10 10 10 empty empty empty 20 12 0 14 -260097 -66577
0;
#X obj 79 265 pdp_xv;
#X obj 14 214 pdp_v4l2;
#X connect 0 0 1 0;
#X connect 1 0 17 0;
#X connect 3 0 8 0;
#X connect 4 0 9 0;
#X connect 7 0 17 0;
#X connect 8 0 7 0;
#X connect 9 0 11 0;
#X connect 11 0 17 0;
#X connect 17 0 5 0;
#X connect 17 0 16 0;
#X coords 0 -1 1 1 102 62 1 100 100;
#X restore 9 31 pd v4l2;
#N canvas 491 138 677 609 yqt 0;
#X obj 101 101 cnv 15 100 60 empty empty yQT 20 12 0 48 -135263 -228856
0;
#X obj 101 101 cnv 10 10 10 empty empty empty 20 12 0 14 -260097 -66577
0;
#X obj 147 101 cnv 10 10 10 empty empty empty 20 12 0 14 -260097 -66577
0;
#X obj 191 101 cnv 10 10 10 empty empty empty 20 12 0 14 -260097 -66577
0;
#X obj 101 151 cnv 10 10 10 empty empty empty 20 12 0 14 -260097 -66577
0;
#X msg 63 246 loop \$1;
#X obj 154 144 tgl 15 0 empty empty empty 20 8 0 8 -262144 -1 -1 0
1;
#X msg 310 154 open \$1;
#X obj 309 130 openpanel;
#X obj 132 111 bng 15 250 50 0 empty empty empty 20 8 0 8 -262144 -1
-1;
#X floatatom 256 209 5 0 0 0 - - -;
#X obj 263 178 hsl 300 15 0 1000 0 0 empty empty empty -2 -6 0 8 -262144
-1 -1 0 1;
#X obj 197 245 metro 70;
#X obj 498 382 tgl 15 0 empty empty empty 0 -6 0 8 -262144 -1 -1 0
1;
#X obj 498 434 pdp_control;
#X msg 498 407 thread \$1;
#X floatatom 498 495 5 0 0 0 - - -;
#X obj 498 466 route pdp_drop;
#X floatatom 101 120 5 0 0 0 - - -;
#X floatatom 237 417 5 0 0 0 - - -;
#X text 257 392 Number of frames decoded;
#X text 286 416 Total number of frames;
#X floatatom 257 274 5 0 0 0 - - -;
#X text 308 274 Frame command;
#X obj 256 293 t b f;
#X obj 260 369 dac~;
#X text 21 470 pdp_yqt : quicktime movie reader with audio support
;
#X text 22 502 with big plundering from pdp_qt ( Tom Schouten );
#X text 21 486 written by Yves Degoyon;
#X floatatom 114 141 3 0 0 0 - - -;
#X text 317 441 Frame rate;
#X obj 165 333 pdp_yqt ----------;
#X obj 143 127 tgl 15 0 empty empty empty 17 7 0 10 -262144 -1 -1 0
1;
#X obj 56 20 inlet;
#X obj 96 20 inlet;
#X obj 136 20 inlet;
#X text 160 125 on-off;
#X text 173 143 loop;
#X obj 82 366 outlet;
#X obj 165 412 pdp_xv;
#X text 149 111 dialog;
#X connect 5 0 31 0;
#X connect 6 0 5 0;
#X connect 7 0 31 0;
#X connect 8 0 7 0;
#X connect 9 0 8 0;
#X connect 10 0 12 1;
#X connect 11 0 10 0;
#X connect 12 0 31 0;
#X connect 13 0 15 0;
#X connect 14 0 17 0;
#X connect 15 0 14 0;
#X connect 17 0 16 0;
#X connect 22 0 24 0;
#X connect 24 0 31 0;
#X connect 24 1 31 1;
#X connect 31 0 38 0;
#X connect 31 0 39 0;
#X connect 31 1 18 0;
#X connect 31 2 19 0;
#X connect 31 3 29 0;
#X connect 31 4 25 0;
#X connect 31 5 25 1;
#X connect 32 0 12 0;
#X connect 33 0 9 0;
#X connect 34 0 32 0;
#X connect 35 0 6 0;
#X coords 0 -1 1 1 102 62 1 100 100;
#X restore 125 -43 pd yqt;
#N canvas 0 0 450 300 plasma 0;
#X obj 101 101 cnv 15 100 60 empty empty Plasma 20 12 0 48 -98944 -228856
0;
#X obj 101 101 cnv 10 10 10 empty empty empty 20 12 0 14 -260097 -66577
0;
#X obj 191 101 cnv 10 10 10 empty empty empty 20 12 0 14 -260097 -66577
0;
#X obj 101 151 cnv 10 10 10 empty empty empty 20 12 0 14 -260097 -66577
0;
#X obj 59 156 bng 15 250 50 0 empty empty empty 0 -6 0 8 -262144 -1
-1;
#X msg 224 81 dim 320 240;
#X text 320 81 set packet dimensions;
#X msg 224 108 type grey;
#X msg 224 131 type yv12;
#X text 320 110 generate greyscale;
#X text 320 129 generate colour (default);
#X msg 224 162 seed 123;
#X text 320 162 set seed value;
#X text 217 31 pdp_noise creates a random image (with uniform distribution
between -1 and 1) when a bang is received;
#X obj 96 208 pdp_plasma;
#X floatatom 159 120 5 0 0 0 - - -;
#X text 320 186 turbulence;
#X obj 96 251 pdp_reg;
#X obj 163 231 bng 15 250 50 0 empty empty empty 0 -6 0 8 -262144 -1
-1;
#X obj 49 264 outlet;
#X obj 72 47 inlet;
#X obj 134 52 inlet;
#X obj 36 119 metro 100;
#X obj 110 120 tgl 15 0 empty empty empty 17 7 0 10 -262144 -1 -1 0
1;
#X text 116 134 ON-OFF;
#X connect 4 0 14 0;
#X connect 5 0 14 0;
#X connect 7 0 14 0;
#X connect 8 0 14 0;
#X connect 11 0 14 0;
#X connect 14 0 17 0;
#X connect 15 0 14 1;
#X connect 17 0 19 0;
#X connect 18 0 17 0;
#X connect 20 0 23 0;
#X connect 21 0 15 0;
#X connect 22 0 4 0;
#X connect 23 0 22 0;
#X coords 0 -1 1 1 102 62 1 100 100;
#X restore 125 32 pd plasma;
#N canvas 393 26 634 471 background 0;
#X obj 122 176 bng 15 250 50 0 empty empty empty 20 8 0 8 -262144 -1
-1;
#X msg 83 175 stop;
#X obj 111 210 metro 70;
#X obj 320 507 tgl 15 0 empty empty empty 0 -6 0 8 -262144 -1 -1 0
1;
#X obj 320 559 pdp_control;
#X msg 320 532 thread \$1;
#X floatatom 320 620 5 0 0 0 - - -;
#X obj 320 591 route pdp_drop;
#X obj 157 284 pdp_background;
#X obj 128 325 pdp_convert image/YCrCb/*;
#X msg 53 210 bang;
#X floatatom 183 250 5 0 0 0 - - -;
#X text 190 235 Red;
#X floatatom 231 249 5 0 0 0 - - -;
#X floatatom 283 249 5 0 0 0 - - -;
#X text 231 234 Green;
#X text 285 233 Blue;
#X obj 34 369 outlet;
#X obj 265 139 inlet;
#X obj 201 144 inlet;
#X obj 146 140 inlet;
#X obj 1 1 cnv 15 100 22 empty empty bg_color 20 12 0 34 -261682 -66577
0;
#X obj 1 13 cnv 10 10 10 empty empty empty 20 12 0 14 -260097 -66577
0;
#X obj 64 5 tgl 15 0 empty empty empty 17 7 0 10 -262144 -1 -1 0 1
;
#X obj 66 78 sel 0 1;
#X connect 0 0 2 0;
#X connect 1 0 2 0;
#X connect 2 0 8 0;
#X connect 3 0 5 0;
#X connect 4 0 7 0;
#X connect 5 0 4 0;
#X connect 7 0 6 0;
#X connect 8 0 9 0;
#X connect 9 0 17 0;
#X connect 10 0 8 0;
#X connect 11 0 8 1;
#X connect 13 0 8 2;
#X connect 14 0 8 3;
#X connect 18 0 14 0;
#X connect 19 0 13 0;
#X connect 20 0 11 0;
#X connect 23 0 24 0;
#X connect 24 0 1 0;
#X connect 24 1 0 0;
#X coords 0 -1 1 1 102 24 1 0 0;
#X restore 319 81 pd background;
#X obj 235 31 pdp_colorgrid pdp_colorgrid1 256 0 256 50 0 50 0 1 1
10 10 330 48;
#N canvas 0 0 450 300 noise 0;
#X obj 123 219 pdp_noise;
#X obj 123 170 bng 15 250 50 0 empty empty empty 0 -6 0 8 -262144 -1
-1;
#X msg 251 92 dim 320 240;
#X msg 251 119 type grey;
#X msg 251 142 type yv12;
#X msg 251 173 seed 123;
#X obj 101 101 cnv 15 100 60 empty empty Noise 20 12 0 42 -233431 -191407
0;
#X obj 158 118 tgl 15 0 empty empty empty 17 7 0 10 -262144 -1 -1 0
1;
#X text 177 117 B/W;
#X obj 123 269 outlet;
#X obj 100 152 cnv 10 10 10 empty empty empty 20 12 0 14 -260097 -66577
0;
#X obj 44 171 metro 100;
#X obj 119 134 tgl 15 0 empty empty empty 17 7 0 10 -262144 -1 -1 0
1;
#X text 135 134 start;
#X obj 157 47 inlet;
#X obj 167 57 inlet;
#X obj 350 138 sel 0 1;
#X obj 101 101 cnv 10 10 10 empty empty empty 20 12 0 14 -260097 -66577
0;
#X obj 191 101 cnv 10 10 10 empty empty empty 20 12 0 14 -260097 -66577
0;
#X connect 0 0 9 0;
#X connect 1 0 0 0;
#X connect 2 0 0 0;
#X connect 3 0 0 0;
#X connect 4 0 0 0;
#X connect 5 0 0 0;
#X connect 7 0 16 0;
#X connect 11 0 1 0;
#X connect 12 0 11 0;
#X connect 14 0 12 0;
#X connect 15 0 7 0;
#X connect 16 0 3 0;
#X connect 16 1 4 0;
#X coords 0 -1 1 1 102 62 1 100 100;
#X restore 240 -43 pd noise;
#N canvas 0 0 1274 714 text 0;
#X obj 101 101 cnv 15 100 60 empty empty Text 20 12 0 42 -233017 -66577
0;
#X obj 658 461 tgl 15 0 empty empty empty 0 -6 0 8 -262144 -1 -1 0
1;
#X obj 658 513 pdp_control;
#X msg 658 486 thread \$1;
#X floatatom 658 574 5 0 0 0 - - -;
#X obj 658 545 route pdp_drop;
#X text 231 627 pdp_text : text rendering in PDP;
#X text 232 641 written by Yves Degoyon (ydegoyon@free.fr);
#X msg 196 394 text %34%48%49:37:58%34 20 220;
#X msg 187 369 text "01:37:58" 230 220;
#X msg 181 340 text a%32hundred%32%% 120 128 255 0 0;
#X obj 214 435 hdl 15 1 0 10 empty empty empty 0 -6 0 8 -262144 -1
-1 0;
#X text 374 434 Select current text ( 10 items by default );
#X text 318 292 Add a simple text;
#X text 359 315 Add a text with special characters;
#X text 448 340 Add a real percent now ( but in red );
#X text 365 369 Have to put a quote (%34) before starting numbers;
#X text 419 394 This time \, it's real quotes ( tricky \, hey?? );
#X floatatom 229 461 5 0 0 0 - - -;
#X text 277 460 X coordinate;
#X floatatom 250 482 5 0 0 0 - - -;
#X floatatom 275 503 5 0 0 0 - - -;
#X floatatom 293 523 5 0 0 0 - - -;
#X floatatom 313 543 5 0 0 0 - - -;
#X text 298 481 Y coordinate;
#X text 323 502 R component;
#X text 341 522 G component;
#X text 361 542 B component;
#X msg 39 362 clear;
#X msg 40 397 delete 1;
#X msg 40 431 resize 20;
#X msg 40 499 font helmetr/14;
#X obj 165 608 pdp_text -----------------;
#X text 149 264 text <text> x y [ r g b angle ];
#X floatatom 341 564 5 0 0 0 - - -;
#X text 389 563 Angle;
#X msg 71 526 dither \$1;
#X floatatom 23 528 5 0 0 0 - - -;
#X floatatom 24 551 5 0 0 0 - - -;
#X msg 73 550 blend \$1;
#X floatatom 24 572 5 0 0 0 - - -;
#X msg 74 570 antialias \$1;
#X msg 39 468 font helmetr/5;
#X floatatom 364 582 5 0 0 0 - - -;
#X text 410 582 Scroll;
#X obj 390 604 hsl 128 15 0 1 0 0 empty empty empty -2 -6 0 8 -262144
-1 -1 0 1;
#X text 527 604 Alpha ( global );
#X msg 173 314 text on%32air!! 150 78;
#X obj 36 21 inlet;
#X symbolatom 131 134 10 0 0 0 - - -;
#X msg 154 292 text \$1 34 58;
#X obj 162 637 outlet;
#X obj 101 151 cnv 10 10 10 empty empty empty 20 12 0 14 -260097 -66577
0;
#X obj 101 101 cnv 10 10 10 empty empty empty 20 12 0 14 -260097 -66577
0;
#X connect 1 0 3 0;
#X connect 2 0 5 0;
#X connect 3 0 2 0;
#X connect 5 0 4 0;
#X connect 8 0 32 0;
#X connect 9 0 32 0;
#X connect 10 0 32 0;
#X connect 11 0 32 1;
#X connect 18 0 32 2;
#X connect 20 0 32 3;
#X connect 21 0 32 4;
#X connect 22 0 32 5;
#X connect 23 0 32 6;
#X connect 28 0 32 0;
#X connect 29 0 32 0;
#X connect 30 0 32 0;
#X connect 31 0 32 0;
#X connect 32 0 51 0;
#X connect 34 0 32 7;
#X connect 36 0 32 0;
#X connect 37 0 36 0;
#X connect 38 0 39 0;
#X connect 39 0 32 0;
#X connect 40 0 41 0;
#X connect 41 0 32 0;
#X connect 42 0 32 0;
#X connect 43 0 32 8;
#X connect 45 0 32 9;
#X connect 47 0 32 0;
#X connect 48 0 32 0;
#X connect 49 0 50 0;
#X connect 50 0 32 0;
#X coords 0 -1 1 1 102 62 1 100 100;
#X restore 351 -43 pd text;
#N canvas 0 0 450 300 imgloader 0;
#X obj 218 125 pdp_imgloader;
#X obj 101 101 cnv 15 100 60 empty empty Img 20 12 0 54 -159808 -228856
0;
#X floatatom 241 74 5 0 0 0 - - -;
#X text 241 56 X Offset;
#X floatatom 299 74 5 0 0 0 - - -;
#X text 299 56 Y Offset;
#X obj 365 74 hsl 128 15 0 1 0 0 empty empty empty -2 -6 0 8 -262144
-1 -1 0 1;
#X text 364 57 Blending factor;
#X obj 196 -8 openpanel;
#X obj 112 113 bng 15 250 50 0 empty empty empty 0 -6 0 8 -262144 -1
-1;
#X msg 250 28 clear;
#X msg 196 16 load \$1 64 32;
#X obj 59 -13 inlet;
#X obj 59 202 outlet;
#X obj 101 101 cnv 10 10 10 empty empty empty 20 12 0 14 -260097 -66577
0;
#X obj 101 151 cnv 10 10 10 empty empty empty 20 12 0 14 -260097 -66577
0;
#X floatatom 136 125 3 0 0 0 - - -;
#X floatatom 156 135 3 0 0 0 - - -;
#X obj 129 152 hsl 64 8 0 1 0 0 empty empty empty -2 -8 0 10 -262144
-1 -1 0 1;
#X text 125 109 file;
#X text 161 124 X;
#X text 180 137 Y;
#X connect 0 0 13 0;
#X connect 2 0 0 1;
#X connect 4 0 0 2;
#X connect 6 0 0 3;
#X connect 8 0 11 0;
#X connect 9 0 8 0;
#X connect 10 0 0 0;
#X connect 11 0 0 0;
#X connect 12 0 0 0;
#X connect 16 0 2 0;
#X connect 17 0 4 0;
#X connect 18 0 6 0;
#X coords 0 -1 1 1 102 62 1 100 100;
#X restore 462 -44 pd imgloader;
#N canvas 418 197 607 420 forms 0;
#X obj 203 107 hdl 15 1 0 10 empty empty empty 0 -6 0 8 -262144 -1
-1 0;
#X floatatom 221 133 5 0 0 0 - - -;
#X floatatom 237 157 5 0 0 0 - - -;
#X floatatom 280 224 5 0 0 0 - - -;
#X floatatom 298 244 5 0 0 0 - - -;
#X floatatom 318 264 5 0 0 0 - - -;
#X text 328 223 R component;
#X text 346 243 G component;
#X text 366 263 B component;
#X msg 43 97 clear;
#X msg 44 132 delete 1;
#X msg 44 166 resize 20;
#X text 363 106 Select current form ( 10 items by default );
#X text 266 132 X1 coordinate;
#X text 285 156 Y1 coordinate;
#X floatatom 250 179 5 0 0 0 - - -;
#X floatatom 258 201 5 0 0 0 - - -;
#X text 298 27 Add a line;
#X text 402 78 Add an ellipse;
#X msg 158 27 line 24 56 134 200;
#X text 391 50 Add a rectangle ( but in red );
#X text 295 178 X2 coordinate or ray for ellipse;
#X text 306 200 Y2 coordinate or ray for ellipse;
#X text 157 6 line|rectangle|ellipse x1 y1 x2|r y2|r [ r g b angle
];
#X msg 177 49 rectangle 56 45 123 78 255 0 0;
#X msg 193 78 ellipse 89 120 56 78 0 255 0;
#X obj 158 307 pdp_form -----------------;
#X obj 360 285 hsl 128 15 0 1 0 0 empty empty empty -2 -6 0 8 -262144
-1 -1 0 1;
#X text 501 285 alpha ( global );
#X obj 102 74 inlet;
#X obj 25 366 outlet;
#X obj 101 101 cnv 15 100 60 empty empty Ellipse 20 12 0 34 -183865
-66577 0;
#X obj 101 101 cnv 10 10 10 empty empty empty 20 12 0 14 -260097 -66577
0;
#X obj 101 152 cnv 10 10 10 empty empty empty 20 12 0 14 -260097 -66577
0;
#X obj 82 31 loadbang;
#X connect 0 0 26 1;
#X connect 1 0 26 2;
#X connect 2 0 26 3;
#X connect 3 0 26 6;
#X connect 4 0 26 7;
#X connect 5 0 26 8;
#X connect 9 0 26 0;
#X connect 10 0 26 0;
#X connect 11 0 26 0;
#X connect 15 0 26 4;
#X connect 16 0 26 5;
#X connect 19 0 26 0;
#X connect 24 0 26 0;
#X connect 25 0 26 0;
#X connect 26 0 30 0;
#X connect 27 0 26 9;
#X connect 29 0 26 0;
#X connect 34 0 25 0;
#X coords 0 -1 1 1 102 62 1 100 100;
#X restore 499 31 pd forms;
#X connect 5 0 4 0;
#X connect 5 1 4 1;
#X connect 5 2 4 2;
#X restore 1 -1 pd sources;
#N canvas 822 364 300 144 outputs 0;
#N canvas 0 0 450 300 glx 0;
#X obj 76 200 pdp_glx;
#X obj 101 101 cnv 15 100 60 empty empty GLX 20 12 0 54 -228856 -66577
0;
#X obj 100 100 cnv 15 15 15 empty empty empty 20 12 0 14 -260097 -66577
0;
#X obj 31 125 inlet;
#X connect 3 0 0 0;
#X coords 0 -1 1 1 102 62 1 100 100;
#X restore 19 -26 pd glx;
#X restore 151 -1 pd outputs;
#N canvas 624 358 450 300 controles 0;
#N canvas 0 0 450 300 midi 0;
#X restore 82 13 pd midi;
#N canvas 330 149 646 534 OSC 0;
#X obj 69 406 sendOSC;
#X floatatom 69 433 5 0 0 0 - - -;
#X msg 54 129 disconnect;
#X msg 36 103 connect localhost 9999;
#X msg 67 274 send /yps/blo 7.8 9.1 zehnkommaelf;
#X text 18 152 ========================================;
#X msg 284 102 connect localhost 10001;
#X msg 159 311 typetags 1;
#X msg 154 343 typetags 0;
#X text 485 122 typetags;
#X text 485 139 sendOSC now by default uses;
#X text 487 155 typetags.;
#X text 487 176 dumOSC on the other hand;
#X text 487 196 should be able to interpret;
#X text 488 218 this.;
#X text 484 103 new (or again):;
#X msg 433 304 [;
#X msg 433 331 ];
#X msg 266 259 send /bla 1 2 3 \, send /bli 3 4 5 \, send /blo 4 5
6;
#X text 472 322 when last bundle is closed the buffer is sent.;
#X text 473 343 so: first "[" \, then add messages with send /bla;
#X text 476 361 open nested nudle etc \, close with "]";
#X floatatom 123 435 5 0 0 0 - - -;
#X text 172 438 bundleDepth;
#X text 34 21 sendOSC: send OSC formatted packet to network. at the
moment over UDP only is supported.;
#X text 38 48 supported int \, flot + string.;
#X text 472 301 open / close bundles here.;
#X text 475 382 watch the bundleDepth index change while you do this.
;
#X text 241 309 switch usage of typetags;
#X text 242 326 on/off.;
#X text 241 342 default: on;
#X text 475 402 MAX_BUNDLE_NESTING: 32;
#X msg 325 164 send;
#X msg 325 189 send /;
#X msg 378 166 send /bang;
#X text 472 68 use something like this to broadcast on UDP;
#X text 617 445 for more info \, get help on:;
#X msg 275 67 connect 192.168.0.107 9999;
#X msg 89 173 send /effect_key/enable \$1;
#X obj 150 120 tgl 15 0 empty empty empty 17 7 0 10 -262144 -1 -1 0
1;
#X obj 211 70 adc~;
#X obj 213 98 bonk~;
#X obj 205 127 bng 15 250 50 0 empty empty empty 17 7 0 10 -262144
-1 -1;
#X floatatom 280 168 5 0 0 0 - - -;
#X obj 349 403 dumpOSC 9999;
#X obj 341 434 print;
#X msg 32 195 send /effect_key/parameter/value/set 1 0 \$1;
#X obj 315 107 bng 15 250 50 0 empty empty empty 17 7 0 10 -262144
-1 -1;
#X obj 307 136 hsl 128 15 0 10 0 0 empty empty empty -2 -8 0 10 -262144
-1 -1 0 1;
#X msg 42 212 send /effect_key/parameter/value/set 1 1 \$1;
#X obj 349 224 hsl 128 15 0 1.2 0 0 empty empty empty -2 -8 0 10 -262144
-1 -1 0 1;
#X floatatom 473 93 5 0 0 0 - - -;
#X msg 52 232 send /effect_key/parameter/value/set 1 2 \$1;
#X obj 437 57 line 0 10;
#X obj 438 28 tgl 15 0 empty empty empty 17 7 0 10 -262144 -1 -1 0
1;
#X floatatom 567 299 5 0 0 0 - - -;
#X obj 639 302 + 0.1;
#X floatatom 635 343 5 0 0 0 - - -;
#X obj 457 469 autoscale 0 1;
#X connect 0 0 1 0;
#X connect 0 1 22 0;
#X connect 2 0 0 0;
#X connect 3 0 0 0;
#X connect 4 0 0 0;
#X connect 6 0 0 0;
#X connect 7 0 0 0;
#X connect 8 0 0 0;
#X connect 16 0 0 0;
#X connect 17 0 0 0;
#X connect 18 0 0 0;
#X connect 32 0 0 0;
#X connect 33 0 0 0;
#X connect 34 0 0 0;
#X connect 37 0 0 0;
#X connect 38 0 0 0;
#X connect 39 0 38 0;
#X connect 40 0 41 0;
#X connect 41 0 42 0;
#X connect 43 0 46 0;
#X connect 44 0 45 0;
#X connect 46 0 0 0;
#X connect 48 0 43 0;
#X connect 49 0 0 0;
#X connect 50 0 49 0;
#X connect 50 0 52 0;
#X connect 53 0 48 0;
#X connect 54 0 53 0;
#X connect 55 0 58 0;
#X connect 56 0 57 0;
#X connect 58 0 50 0;
#X restore 132 13 pd OSC;
#N canvas 0 0 450 300 NET 0;
#X restore 176 13 pd NET;
#N canvas 140 175 450 300 numbers 0;
#X obj 26 94 random;
#X obj 26 61 delay;
#X obj 26 31 metro;
#N canvas 0 0 588 555 random-counter 0;
#X floatatom 194 248 5 0 0 0 - - -;
#X obj 224 143 f;
#X obj 185 228 random 4;
#X obj 107 227 random 2;
#X floatatom 116 249 5 0 0 0 - - -;
#X obj 224 168 t b b f;
#X obj 107 283 sel 0 1;
#X obj 240 358 +;
#X obj 224 117 metro 100;
#X obj 224 95 tgl 15 0 empty empty empty 0 -6 0 8 -262144 -1 -1 0 1
;
#X obj 185 282 + 1;
#X floatatom 323 183 5 0 0 0 - - -;
#X obj 163 339 *;
#X msg 107 312 -1;
#X obj 323 113 moses 0;
#X obj 397 113 moses 100;
#X obj 323 137 * -1;
#X obj 474 116 * -1;
#X obj 474 141 + 200;
#X msg 141 312 1;
#X text 120 39 Random walk generator;
#X text 244 94 on/off;
#X text 379 182 output;
#X text 103 405 A random walk is a special case of a Markov chain \,
in which the states are integers and the transitions add or subtract
a small amount from the previous state to get a new one. Here the "f"
holds the state. When it gets a bang \, the previous state is added
to a random number (from 1 to 4) multiplied by a random sign (-1 or
1). The new value is then coerced into the range from 0 to 100;
#X text 116 265 sign;
#X text 194 264 magnitude;
#X text 284 343 add prev value;
#X text 281 360 to random increment;
#X text 337 60 coercion to range 0-100 \; if out of range \, reflect
;
#X text 336 90 us back in.;
#X text 404 522 updated for Pd version 0.37-1;
#X obj 336 278 outlet;
#X obj 101 101 cnv 15 105 60 empty empty rndWalk 20 12 0 28 -261234
-228856 0;
#X obj 101 151 cnv 10 10 10 empty empty empty 20 12 0 14 -260097 -66577
0;
#X floatatom 103 115 5 0 0 0 - - -;
#X floatatom 118 133 5 0 0 0 - - -;
#X obj 173 111 tgl 15 0 empty empty empty 17 7 0 10 -262144 -1 -1 0
1;
#X text 136 115 min;
#X text 155 135 max;
#X connect 1 0 5 0;
#X connect 2 0 0 0;
#X connect 2 0 10 0;
#X connect 3 0 4 0;
#X connect 3 0 6 0;
#X connect 5 0 3 0;
#X connect 5 1 2 0;
#X connect 5 2 7 1;
#X connect 6 0 13 0;
#X connect 6 1 19 0;
#X connect 7 0 14 0;
#X connect 8 0 1 0;
#X connect 9 0 8 0;
#X connect 10 0 12 1;
#X connect 11 0 1 1;
#X connect 12 0 7 0;
#X connect 13 0 12 0;
#X connect 14 0 16 0;
#X connect 14 1 15 0;
#X connect 15 0 11 0;
#X connect 15 1 17 0;
#X connect 16 0 11 0;
#X connect 17 0 18 0;
#X connect 18 0 11 0;
#X connect 19 0 12 0;
#X connect 34 0 14 1;
#X connect 35 0 15 1;
#X connect 36 0 9 0;
#X coords 0 -1 1 1 102 62 1 100 100;
#X restore 86 21 pd random-counter;
#X obj 181 166 counter;
#X restore 14 13 pd numbers;
#X restore 217 -1 pd controles;
#N canvas 777 414 450 300 analisers 0;
#X obj 32 55 snapshot~;
#X obj 111 59 bonk~;
#X obj 169 56 filterbank~ 100 10000 12;
#X obj 315 78 fiddle~;
#X obj 106 21 adc~;
#X obj 112 102 bng 15 250 50 0 empty empty empty 17 7 0 10 -262144
-1 -1;
#X connect 1 0 5 0;
#X connect 4 0 1 0;
#X restore 295 -1 pd analisers;
#N canvas 393 26 634 471 background 0;
#X obj 320 507 tgl 15 0 empty empty empty 0 -6 0 8 -262144 -1 -1 0
1;
#X obj 320 559 pdp_control;
#X msg 320 532 thread \$1;
#X floatatom 320 620 5 0 0 0 - - -;
#X obj 320 591 route pdp_drop;
#X obj 157 284 pdp_background;
#X obj 128 325 pdp_convert image/YCrCb/*;
#X floatatom 183 250 5 0 0 0 - - -;
#X text 190 235 Red;
#X floatatom 231 249 5 0 0 0 - - -;
#X floatatom 283 249 5 0 0 0 - - -;
#X text 231 234 Green;
#X text 285 233 Blue;
#X obj 34 369 outlet;
#X obj 265 139 inlet;
#X obj 201 144 inlet;
#X obj 146 140 inlet;
#X obj 1 1 cnv 15 100 22 empty empty bg_color 20 12 0 34 -261682 -66577
0;
#X obj 1 13 cnv 10 10 10 empty empty empty 20 12 0 14 -260097 -66577
0;
#X obj 64 5 tgl 15 0 empty empty empty 17 7 0 10 -262144 -1 -1 0 1
;
#X obj 63 79 sel 0 1;
#X obj 97 139 bng 15 250 50 0 empty empty empty 20 8 0 8 -262144 -1
-1;
#X msg 58 138 stop;
#X obj 86 173 metro 70;
#X connect 0 0 2 0;
#X connect 1 0 4 0;
#X connect 2 0 1 0;
#X connect 4 0 3 0;
#X connect 5 0 6 0;
#X connect 6 0 13 0;
#X connect 7 0 5 1;
#X connect 9 0 5 2;
#X connect 10 0 5 3;
#X connect 14 0 10 0;
#X connect 15 0 9 0;
#X connect 16 0 7 0;
#X connect 19 0 20 0;
#X connect 20 0 22 0;
#X connect 20 1 21 0;
#X connect 21 0 23 0;
#X connect 22 0 23 0;
#X connect 23 0 5 0;
#X coords 0 -1 1 1 102 24 1 0 0;
#X restore 146 125 pd background;
#X obj 69 75 pdp_colorgrid pdp_colorgrid1 256 0 256 50 0 50 0 1 1 10
10 183 109;
#N canvas 17 0 668 394 popFX 0;
#X obj 101 102 popup 124 25 red Effects aging cycle binary dice edge
ascii nervous dilate warhol baltan mapcolor colormap;
#X obj 151 23 loadbang;
#X msg 171 40 bgcolour red;
#X msg 91 40 name Effects;
#X obj 27 308 s por_abrir;
#X msg 101 151 symbol aging;
#X msg 167 68 options aging cycle binary dice edge ascii nervous dilate
warhol baltan mapcolor colormap;
#X msg 114 171 symbol cycle;
#X msg 128 191 symbol binary;
#X msg 142 211 symbol dice;
#X msg 155 231 symbol edge;
#X msg 169 251 symbol ascii;
#X msg 183 271 symbol nervous;
#X msg 196 291 symbol dilate;
#X msg 210 311 symbol warhol;
#X msg 220 331 symbol baltan;
#X msg 230 351 symbol mapcolor;
#X obj 101 130 sel 0 1 2 3 4 5 6 7 8 9 10;
#X connect 0 0 17 0;
#X connect 1 0 3 0;
#X connect 1 0 6 0;
#X connect 1 0 2 0;
#X connect 2 0 0 0;
#X connect 3 0 0 0;
#X connect 5 0 4 0;
#X connect 6 0 0 0;
#X connect 7 0 4 0;
#X connect 8 0 4 0;
#X connect 9 0 4 0;
#X connect 10 0 4 0;
#X connect 11 0 4 0;
#X connect 12 0 4 0;
#X connect 13 0 4 0;
#X connect 14 0 4 0;
#X connect 15 0 4 0;
#X connect 16 0 4 0;
#X connect 17 0 5 0;
#X connect 17 1 7 0;
#X connect 17 2 8 0;
#X connect 17 3 9 0;
#X connect 17 4 10 0;
#X connect 17 5 11 0;
#X connect 17 6 12 0;
#X connect 17 7 13 0;
#X connect 17 8 14 0;
#X connect 17 9 15 0;
#X connect 17 10 16 0;
#X coords 0 -1 1 1 125 30 1 100 100;
#X restore 526 21 pd popFX;
#N canvas 771 279 450 411 gui-core 0;
#X obj 90 51 sel 1;
#X obj 85 149 s click;
#X obj 56 15 r por_abrir;
#X obj 73 74 spigot 0;
#X msg 58 39 1;
#X obj 72 114 t b b b b;
#X msg 72 180 0;
#X msg 160 54 capture \$1;
#X obj 160 -3 tgl 25 0 empty empty empty 0 -6 0 8 -262144 -1 -1 1 1
;
#X obj 267 93 bng 18 750 50 0 empty empty banged_on_window_creation
20 8 1 9 -262144 -1 -1;
#X obj 231 113 prepend set;
#X msg 231 132 menusave;
#X msg 172 23 \; pd-gephex2.pd vis \$1;
#X obj 160 73 tot gephex2.pd;
#X obj 231 270 s mouseXY;
#X obj 148 117 tgl 15 0 empty empty empty 17 7 0 10 -262144 -1 -1 0
1;
#X obj 370 30 memento-help;
#N canvas 311 81 450 300 por_abrir 0;
#X msg 70 77 set \$1;
#X msg 69 107 v4l;
#X obj 137 91 r mouseXY;
#X obj 22 33 r click;
#X obj 93 231 s pd-gephex2.pd;
#X obj 137 112 unpack 0 0;
#X obj 115 143 pack s 0 0;
#X obj 212 170 print;
#X msg 99 196 obj \$2 \$3 ./subpatxes/\$1;
#X obj 70 54 r por_abrir;
#X connect 0 0 1 0;
#X connect 1 0 6 0;
#X connect 2 0 5 0;
#X connect 3 0 1 0;
#X connect 5 0 6 1;
#X connect 5 1 6 2;
#X connect 6 0 7 0;
#X connect 6 0 8 0;
#X connect 8 0 4 0;
#X connect 9 0 0 0;
#X restore 39 281 pd por_abrir;
#X obj 223 -4 loadbang;
#X obj 131 236 sel motion;
#X obj 132 259 print f;
#X obj 166 176 sel motion;
#X obj 166 194 bng 15 250 50 0 empty empty empty 17 7 0 10 -262144
-1 -1;
#X obj 231 251 pack 0 0;
#X obj 231 217 spigot;
#X obj 276 217 spigot;
#X obj 213 202 tgl 15 0 empty empty empty 17 7 0 10 -262144 -1 -1 0
1;
#X obj 230 159 unpack a 0 0 0 0;
#X connect 0 0 3 0;
#X connect 2 0 4 0;
#X connect 3 0 5 0;
#X connect 4 0 3 1;
#X connect 5 0 6 0;
#X connect 5 1 1 0;
#X connect 6 0 3 1;
#X connect 7 0 13 0;
#X connect 8 0 7 0;
#X connect 8 0 12 0;
#X connect 10 0 11 0;
#X connect 13 2 10 0;
#X connect 13 2 27 0;
#X connect 13 3 9 0;
#X connect 15 0 0 0;
#X connect 18 0 8 0;
#X connect 19 0 20 0;
#X connect 21 0 22 0;
#X connect 22 0 26 0;
#X connect 23 0 14 0;
#X connect 24 0 23 0;
#X connect 25 0 23 1;
#X connect 26 0 24 1;
#X connect 26 0 25 1;
#X connect 27 0 21 0;
#X connect 27 1 24 0;
#X connect 27 2 25 0;
#X connect 27 3 15 0;
#X restore 852 -1 pd gui-core;
#N canvas 108 89 653 335 popSRC 0;
#X obj 101 102 popup 124 25 blue Sources v4l v4l2 yqt plasma noise
text img color form;
#X msg 167 84 options v4l v4l2 yqt plasma noise text img color form
;
#X msg 91 57 name Sources;
#X obj 101 130 sel 0 1 2 3 4 5 6 7 8;
#X msg 101 151 symbol v4l;
#X obj 27 308 s por_abrir;
#X msg 114 171 symbol v4l2;
#X msg 128 191 symbol yqt;
#X msg 142 211 symbol plasma;
#X msg 155 231 symbol noise;
#X msg 169 251 symbol text;
#X msg 183 271 symbol img;
#X msg 196 291 symbol color;
#X msg 210 311 symbol form;
#X obj 137 18 loadbang;
#X msg 181 50 bgcolour blue;
#X connect 0 0 3 0;
#X connect 1 0 0 0;
#X connect 2 0 0 0;
#X connect 3 0 4 0;
#X connect 3 1 6 0;
#X connect 3 2 7 0;
#X connect 3 3 8 0;
#X connect 3 4 9 0;
#X connect 3 5 10 0;
#X connect 3 6 11 0;
#X connect 3 7 12 0;
#X connect 3 8 13 0;
#X connect 4 0 5 0;
#X connect 6 0 5 0;
#X connect 7 0 5 0;
#X connect 8 0 5 0;
#X connect 9 0 5 0;
#X connect 10 0 5 0;
#X connect 11 0 5 0;
#X connect 12 0 5 0;
#X connect 13 0 5 0;
#X connect 14 0 2 0;
#X connect 14 0 1 0;
#X connect 14 0 15 0;
#X connect 15 0 0 0;
#X coords 0 -1 1 1 125 30 1 100 100;
#X restore 397 21 pd popSRC;
#N canvas 701 152 492 376 del 0;
#X floatatom 117 126 5 0 0 0 - - -;
#X floatatom 74 217 5 0 0 0 - - -;
#X obj 30 246 pdp_mix;
#X msg 74 193 0.5;
#X obj 52 157 pdp_del 50;
#X obj 30 70 inlet;
#X floatatom 147 215 5 0 0 0 - - -;
#X floatatom 104 306 5 0 0 0 - - -;
#X obj 60 335 pdp_mix;
#X msg 104 282 0.5;
#X obj 82 246 pdp_del 50;
#X floatatom 247 126 5 0 0 0 - - -;
#X floatatom 204 217 5 0 0 0 - - -;
#X obj 160 246 pdp_mix;
#X msg 204 193 0.5;
#X obj 182 157 pdp_del 50;
#X floatatom 277 215 5 0 0 0 - - -;
#X floatatom 234 306 5 0 0 0 - - -;
#X obj 190 335 pdp_mix;
#X msg 234 282 0.5;
#X obj 212 246 pdp_del 50;
#X floatatom 377 126 5 0 0 0 - - -;
#X floatatom 334 217 5 0 0 0 - - -;
#X msg 334 193 0.5;
#X obj 312 157 pdp_del 50;
#X floatatom 407 215 5 0 0 0 - - -;
#X floatatom 364 306 5 0 0 0 - - -;
#X obj 320 335 pdp_mix;
#X msg 364 282 0.5;
#X obj 342 246 pdp_del 50;
#X obj 406 352 outlet;
#X obj 101 51 cnv 15 100 60 empty empty Delay6 20 30 0 48 -223317 -228856
0;
#X obj 101 101 cnv 10 10 10 empty empty empty 20 12 0 14 -260097 -66577
0;
#X obj 101 51 cnv 10 10 10 empty empty empty 20 12 0 14 -260097 -66577
0;
#X obj 290 246 pdp_mix;
#X obj 418 318 pdp_mix;
#X obj 119 67 hsl 64 8 0 1 0 0 empty empty empty -2 -8 0 10 -262144
-1 -1 0 1;
#X obj 129 77 hsl 64 8 0 127 0 0 empty empty empty -2 -8 0 10 -262144
-1 -1 0 1;
#X floatatom 124 90 5 0 0 0 - - -;
#X connect 0 0 4 1;
#X connect 1 0 2 2;
#X connect 2 0 10 0;
#X connect 2 0 8 0;
#X connect 3 0 1 0;
#X connect 4 0 2 1;
#X connect 5 0 2 0;
#X connect 5 0 4 0;
#X connect 5 0 35 0;
#X connect 6 0 10 1;
#X connect 7 0 8 2;
#X connect 8 0 15 0;
#X connect 8 0 13 0;
#X connect 9 0 7 0;
#X connect 10 0 8 1;
#X connect 11 0 15 1;
#X connect 12 0 13 2;
#X connect 13 0 20 0;
#X connect 13 0 18 0;
#X connect 14 0 12 0;
#X connect 15 0 13 1;
#X connect 16 0 20 1;
#X connect 17 0 18 2;
#X connect 18 0 24 0;
#X connect 18 0 34 0;
#X connect 19 0 17 0;
#X connect 20 0 18 1;
#X connect 21 0 24 1;
#X connect 22 0 34 2;
#X connect 23 0 22 0;
#X connect 24 0 34 1;
#X connect 25 0 29 1;
#X connect 26 0 27 2;
#X connect 27 0 35 1;
#X connect 28 0 26 0;
#X connect 29 0 27 1;
#X connect 34 0 29 0;
#X connect 34 0 27 0;
#X connect 35 0 30 0;
#X connect 36 0 35 2;
#X connect 37 0 0 0;
#X connect 37 0 11 0;
#X connect 37 0 21 0;
#X connect 37 0 6 0;
#X connect 37 0 16 0;
#X connect 37 0 25 0;
#X connect 37 0 38 0;
#X coords 0 -1 1 1 102 62 1 100 50;
#X restore 519 177 pd del;
#N canvas 0 0 450 300 glx 0;
#X obj 76 200 pdp_glx;
#X obj 101 101 cnv 15 100 60 empty empty GLX 20 12 0 54 -228856 -66577
0;
#X obj 100 100 cnv 15 15 15 empty empty empty 20 12 0 14 -260097 -66577
0;
#X obj 31 125 inlet;
#X connect 3 0 0 0;
#X coords 0 -1 1 1 102 62 1 100 100;
#X restore 165 346 pd glx;
#X obj 519 109 ./subpatxes/v4l2;
#N canvas 723 254 450 300 glx 0;
#X obj 101 101 cnv 15 100 60 empty empty GLX 20 12 0 54 -228856 -66577
0;
#X obj 100 100 cnv 15 15 15 empty empty empty 20 12 0 14 -260097 -66577
0;
#X obj 31 125 inlet;
#X obj 76 200 pdp_xv;
#X connect 2 0 3 0;
#X coords 0 -1 1 1 102 62 1 100 100;
#X restore 546 395 pd glx;
#X obj 751 47 ./subpatxes/v4l;
#N canvas 699 80 450 300 bridges 1;
#N canvas 120 77 815 538 pdp2gem 0;
#X obj 40 16 cnv 15 740 120 empty empty empty 20 12 0 14 -233017 -66577
0;
#X text 50 19 PDP field;
#X text 85 74 Start;
#X obj 40 265 cnv 15 740 250 empty empty empty 20 12 0 14 -101120 -66577
0;
#X msg 314 303 -1 -2 -1 -2 8 -2 1 -2 1;
#X obj 207 327 pix_convolve 3 3;
#X text 375 459 pdp2gem : pdp to gem bridge;
#X text 375 477 written by Yves Degoyon (ydegoyon@free.fr);
#X text 51 277 GEM field;
#X obj 207 385 rotateXYZ;
#X obj 335 368 metro 10;
#X obj 302 389 + 1;
#X obj 301 369 f;
#X msg 335 389 bang;
#X obj 207 360 pix_texture;
#X obj 183 311 tgl 15 0 empty empty empty 0 -6 0 8 -262144 -1 -1 0
1;
#X obj 336 349 tgl 15 0 empty empty empty 0 -6 0 8 -262144 -1 -1 0
1;
#X obj 207 432 translateXYZ;
#X floatatom 229 409 5 0 0 0 - - -;
#X floatatom 302 434 5 0 0 0 - - -;
#X floatatom 275 408 5 0 0 0 - - -;
#X obj 666 281 cnv 15 100 60 empty empty empty 20 12 0 14 -195568 -66577
0;
#N canvas 0 22 454 304 gemwin 0;
#X obj 131 164 gemwin;
#X obj 67 89 outlet;
#X obj 67 10 inlet;
#X obj 67 41 route create;
#X msg 67 70 set destroy;
#X msg 142 68 set create;
#X msg 198 112 destroy;
#X msg 131 140 create \, 1 \, lighting 1;
#X obj 298 149 world_light;
#X obj 298 122 gemhead;
#X connect 2 0 3 0;
#X connect 3 0 4 0;
#X connect 3 0 7 0;
#X connect 3 1 5 0;
#X connect 3 1 6 0;
#X connect 4 0 1 0;
#X connect 5 0 1 0;
#X connect 6 0 0 0;
#X connect 7 0 0 0;
#X connect 9 0 8 0;
#X restore 671 319 pd gemwin;
#X text 667 280 Create window:;
#X obj 40 139 cnv 15 740 120 empty empty empty 20 12 0 14 -260818 -66577
0;
#X text 77 240 ============================================================
;
#X obj 128 187 gemhead;
#X text 380 160 pdp2gem must be inserted in GEM's rendering chain;
#X text 78 147 ============================================================
;
#X msg 228 207 colorspace YUV;
#X obj 206 225 pdp2gem;
#X msg 224 187 colorspace RGB;
#X msg 219 164 colorspace RGBA;
#X text 379 186 the colorspace indicates what format to transform pdp's
native YV12 to...YUV is default (and fastest);
#X text 389 491 and James Tittle (tigital@mac.com);
#X obj 190 79 inlet;
#X obj 101 101 cnv 15 100 60 empty empty pdp2GEM 20 12 0 34 -262130
-66577 0;
#X msg 671 297 create;
#X obj 101 101 cnv 10 10 10 empty empty empty 20 12 0 14 -260097 -66577
0;
#X obj 168 133 bng 15 250 50 0 empty empty empty 17 7 0 10 -262144
-1 -1;
#X obj 207 456 rectangle 4 3;
#X connect 4 0 5 2;
#X connect 5 0 14 0;
#X connect 9 0 17 0;
#X connect 10 0 12 0;
#X connect 11 0 12 1;
#X connect 12 0 11 0;
#X connect 12 0 9 2;
#X connect 12 0 9 1;
#X connect 13 0 10 0;
#X connect 14 0 9 0;
#X connect 15 0 5 0;
#X connect 16 0 10 0;
#X connect 17 0 40 0;
#X connect 18 0 17 1;
#X connect 19 0 17 3;
#X connect 20 0 17 2;
#X connect 22 0 37 0;
#X connect 26 0 30 0;
#X connect 29 0 30 0;
#X connect 30 0 5 0;
#X connect 31 0 30 0;
#X connect 32 0 30 0;
#X connect 35 0 30 0;
#X connect 37 0 22 0;
#X connect 39 0 37 0;
#X coords 0 -1 1 1 102 62 1 100 100;
#X restore 123 60 pd pdp2gem;
#X restore 418 -1 pd bridges;
#N canvas 632 193 468 405 gui 1;
#X obj 5 7 pdp_colorgrid pdp_colorgrid1 256 0 256 50 0 50 0 1 1 10
10 119 41;
#X obj 6 67 videogrid videogrid1 3 5 #F0F0F0 #0F0F0F #F1882B mov:mpg
60 40 ;
#X obj 6 200 grid grid1 200 0 199 200 0 199 1 1 1 10 10 -94 -40;
#X restore 375 -1 pd gui;
#N canvas 0 0 450 300 popgui 0;
#X obj 101 102 popup 124 25 green GUI grid colorgrid videogrid;
#X obj 27 308 s por_abrir;
#X obj 137 18 loadbang;
#X msg 181 50 bgcolour green;
#X msg 91 57 name GUI;
#X obj 101 130 sel 0 1 2;
#X msg 101 151 symbol grid;
#X msg 114 171 symbol colorgrid;
#X msg 128 191 symbol videogrid;
#X msg 167 84 options grid colorgrid videogrid;
#X connect 0 0 5 0;
#X connect 2 0 4 0;
#X connect 2 0 9 0;
#X connect 2 0 3 0;
#X connect 3 0 0 0;
#X connect 4 0 0 0;
#X connect 5 0 6 0;
#X connect 5 1 7 0;
#X connect 5 2 8 0;
#X connect 6 0 1 0;
#X connect 7 0 1 0;
#X connect 8 0 1 0;
#X connect 9 0 0 0;
#X coords 0 -1 1 1 125 30 1 100 100;
#X restore 269 21 pd popgui;
#X connect 6 0 5 0;
#X connect 6 1 5 1;
#X connect 6 2 5 2;
#X connect 10 0 13 0;
#X connect 12 0 11 0;
#X connect 12 0 10 0;
