#N canvas 0 302 635 390 10;
#N canvas 0 0 574 683 pureffects 0;
#N canvas 776 360 450 300 aging 0;
#X obj 126 60 cnv 15 100 60 empty empty Aging 20 30 0 42 -259648 -203904
0;
#X obj 144 13 inlet;
#X obj 194 13 inlet;
#X obj 97 13 inlet;
#X obj 97 151 outlet;
#X floatatom 131 69 3 0 0 0 - - -;
#X floatatom 135 97 3 0 0 0 - - -;
#X obj 113 126 pdp_aging;
#X obj 126 60 cnv 10 10 10 empty empty empty 20 12 0 14 -260097 -66577
0;
#X obj 172 60 cnv 10 10 10 empty empty empty 20 12 0 14 -260097 -66577
0;
#X obj 216 60 cnv 10 10 10 empty empty empty 20 12 0 14 -260097 -66577
0;
#X obj 126 110 cnv 10 10 10 empty empty empty 20 12 0 14 -260097 -66577
0;
#X text 158 104 scratches;
#X text 161 71 Dust;
#X connect 1 0 5 0;
#X connect 2 0 6 0;
#X connect 3 0 7 0;
#X connect 5 0 7 1;
#X connect 6 0 7 2;
#X connect 7 0 4 0;
#X coords 0 -1 1 1 102 62 1 125 59;
#X restore 10 8 pd aging;
#N canvas 365 31 450 300 edge 0;
#X obj 49 56 inlet;
#X obj 49 170 pdp_edge;
#X obj 101 101 cnv 15 100 60 empty empty Edge 20 30 0 42 -162303 -567
0;
#X obj 101 101 cnv 10 10 10 empty empty empty 20 12 0 14 -260097 -66577
0;
#X obj 101 152 cnv 10 10 10 empty empty empty 20 12 0 14 -260097 -66577
0;
#X obj 92 194 outlet;
#X connect 0 0 1 0;
#X connect 1 0 5 0;
#X coords 0 -1 1 1 102 62 1 100 100;
#X restore 10 77 pd edge;
#N canvas 0 0 450 300 warhol 0;
#X obj 27 179 pdp_warhol;
#X obj 27 9 inlet;
#X obj 38 19 inlet;
#X obj 48 29 inlet;
#X obj 58 39 inlet;
#X obj 68 49 inlet;
#X obj 78 59 inlet;
#X obj 88 69 inlet;
#X obj 27 227 outlet;
#X obj 101 101 cnv 15 100 60 empty empty Warhol 20 30 0 42 -261790
-203904 0;
#X floatatom 110 109 3 0 0 0 - - -;
#X floatatom 148 109 3 0 0 0 - - -;
#X obj 182 213 hdl 15 1 0 9 empty empty empty 0 -6 0 8 -262144 -1 -1
0;
#X floatatom 111 144 3 0 0 0 - - -;
#X floatatom 135 144 3 0 0 0 - - -;
#X floatatom 159 144 3 0 0 0 - - -;
#X text 252 235 Y component;
#X text 280 255 U component;
#X text 303 280 V component;
#X floatatom 111 126 5 0 0 0 - - -;
#X text 135 111 X;
#X text 177 146 yuv;
#X obj 101 152 cnv 10 10 10 empty empty empty 20 12 0 14 -260097 -66577
0;
#X obj 101 100 cnv 10 10 10 empty empty empty 20 12 0 14 -260097 -66577
0;
#X obj 115 100 cnv 10 10 10 empty empty empty 20 12 0 14 -260097 -66577
0;
#X obj 130 100 cnv 10 10 10 empty empty empty 20 12 0 14 -260097 -66577
0;
#X obj 146 100 cnv 10 10 10 empty empty empty 20 12 0 14 -260097 -66577
0;
#X obj 161 100 cnv 10 10 10 empty empty empty 20 12 0 14 -260097 -66577
0;
#X obj 176 100 cnv 10 10 10 empty empty empty 20 12 0 14 -260097 -66577
0;
#X obj 192 100 cnv 10 10 10 empty empty empty 20 12 0 14 -260097 -66577
0;
#X text 150 124 box;
#X text 173 111 Y;
#X connect 0 0 8 0;
#X connect 1 0 0 0;
#X connect 2 0 10 0;
#X connect 3 0 11 0;
#X connect 4 0 12 0;
#X connect 5 0 13 0;
#X connect 6 0 14 0;
#X connect 7 0 15 0;
#X connect 10 0 0 1;
#X connect 11 0 0 2;
#X connect 12 0 19 0;
#X coords 0 -1 1 1 102 62 1 100 100;
#X restore 10 146 pd warhol;
#N canvas 0 0 450 300 cycle 0;
#X obj 12 190 pdp_cycle;
#X obj 12 41 inlet;
#X obj 21 222 outlet;
#X obj 101 101 cnv 15 100 60 empty empty Cycle 20 30 0 42 -232576 -203904
0;
#X obj 105 107 tgl 15 0 empty empty empty 0 -6 0 8 -262144 -1 -1 0
1;
#X obj 105 125 tgl 15 0 empty empty empty 0 -6 0 8 -262144 -1 -1 0
1;
#X obj 105 143 tgl 15 0 empty empty empty 0 -6 0 8 -262144 -1 -1 0
1;
#X obj 22 51 inlet;
#X obj 32 61 inlet;
#X obj 42 71 inlet;
#X obj 192 100 cnv 10 10 10 empty empty empty 20 12 0 14 -260097 -66577
0;
#X obj 100 100 cnv 10 10 10 empty empty empty 20 12 0 14 -260097 -66577
0;
#X obj 130 100 cnv 10 10 10 empty empty empty 20 12 0 14 -260097 -66577
0;
#X obj 160 100 cnv 10 10 10 empty empty empty 20 12 0 14 -260097 -66577
0;
#X obj 101 151 cnv 10 10 10 empty empty empty 20 12 0 14 -260097 -66577
0;
#X text 119 142 V;
#X text 119 125 U;
#X text 119 108 Y;
#X connect 0 0 2 0;
#X connect 1 0 0 0;
#X connect 4 0 0 1;
#X connect 5 0 0 2;
#X connect 6 0 0 3;
#X connect 7 0 4 0;
#X connect 8 0 5 0;
#X connect 9 0 6 0;
#X coords 0 -1 1 1 102 62 1 100 100;
#X restore 140 8 pd cycle;
#N canvas 0 0 450 300 ascii 0;
#X obj 10 190 pdp_ascii;
#X obj 10 122 inlet;
#X obj 101 101 cnv 15 100 60 empty empty ASCii 20 30 0 42 -204786 -203904
0;
#X obj 192 100 cnv 10 10 10 empty empty empty 20 12 0 14 -260097 -66577
0;
#X obj 100 100 cnv 10 10 10 empty empty empty 20 12 0 14 -260097 -66577
0;
#X obj 130 100 cnv 10 10 10 empty empty empty 20 12 0 14 -260097 -66577
0;
#X obj 160 100 cnv 10 10 10 empty empty empty 20 12 0 14 -260097 -66577
0;
#X msg 112 197 color \$1;
#X obj 107 108 tgl 15 0 empty empty empty 0 -6 0 8 -262144 -1 -1 0
1;
#X msg 112 222 brightness \$1;
#X floatatom 107 126 3 0 0 0 - - -;
#X floatatom 107 143 3 0 0 0 - - -;
#X text 121 111 colors;
#X text 131 129 bright;
#X text 129 144 char size;
#X obj 100 152 cnv 10 10 10 empty empty empty 20 12 0 14 -260097 -66577
0;
#X obj 38 266 outlet;
#X connect 0 0 16 0;
#X connect 1 0 0 0;
#X connect 7 0 0 0;
#X connect 8 0 7 0;
#X connect 9 0 0 0;
#X connect 10 0 9 0;
#X connect 11 0 0 1;
#X coords 0 -1 1 1 102 62 1 100 100;
#X restore 140 74 pd ascii;
#N canvas 0 0 450 300 baltan 0;
#X obj 101 101 cnv 15 100 60 empty empty Baltan 20 30 0 42 -258016
-203904 0;
#X obj 7 112 pdp_baltan;
#X obj 7 24 inlet;
#X obj 7 176 outlet;
#X floatatom 110 125 10 0 0 0 - - -;
#X msg 84 48 1.65798e+07;
#X obj 104 18 loadbang;
#X obj 192 100 cnv 10 10 10 empty empty empty 20 12 0 14 -260097 -66577
0;
#X obj 100 100 cnv 10 10 10 empty empty empty 20 12 0 14 -260097 -66577
0;
#X obj 100 152 cnv 10 10 10 empty empty empty 20 12 0 14 -260097 -66577
0;
#X obj 224 84 inlet;
#X connect 1 0 3 0;
#X connect 2 0 1 0;
#X connect 4 0 1 1;
#X connect 5 0 4 0;
#X connect 6 0 5 0;
#X connect 10 0 4 0;
#X coords 0 -1 1 1 102 62 1 100 100;
#X restore 140 146 pd baltan;
#N canvas 0 0 450 300 binary 0;
#X obj 14 224 pdp_binary;
#X obj 14 8 inlet;
#X obj 14 257 outlet;
#X obj 101 101 cnv 15 100 60 empty empty Binary 20 30 0 42 -261233
-203904 0;
#X obj 158 100 cnv 10 10 10 empty empty empty 20 12 0 14 -260097 -66577
0;
#X obj 100 100 cnv 10 10 10 empty empty empty 20 12 0 14 -260097 -66577
0;
#X obj 120 100 cnv 10 10 10 empty empty empty 20 12 0 14 -260097 -66577
0;
#X obj 140 100 cnv 10 10 10 empty empty empty 20 12 0 14 -260097 -66577
0;
#X obj 100 152 cnv 10 10 10 empty empty empty 20 12 0 14 -260097 -66577
0;
#X floatatom 103 118 3 0 0 0 - - -;
#X floatatom 136 118 3 0 0 0 - - -;
#X floatatom 168 119 3 0 0 0 - - -;
#X floatatom 103 136 3 0 0 0 - - -;
#X floatatom 128 136 3 0 0 0 - - -;
#X text 282 221 X coordinate of cursor ( pick );
#X text 291 246 Y coordinate of cursor ( pick );
#X floatatom 165 145 3 0 0 0 - - -;
#X text 302 269 Tolerance ( default = 55 );
#X obj 192 100 cnv 10 10 10 empty empty empty 20 12 0 14 -260097 -66577
0;
#X obj 176 100 cnv 10 10 10 empty empty empty 20 12 0 14 -260097 -66577
0;
#X obj 60 9 inlet;
#X obj 105 10 inlet;
#X obj 151 10 inlet;
#X obj 195 10 inlet;
#X obj 241 10 inlet;
#X obj 291 10 inlet;
#X text 125 118 Y;
#X text 158 117 U;
#X text 190 118 V;
#X text 150 131 xy;
#X text 189 145 T;
#X connect 0 0 2 0;
#X connect 1 0 0 0;
#X connect 9 0 0 1;
#X connect 10 0 0 2;
#X connect 11 0 0 3;
#X connect 12 0 0 4;
#X connect 13 0 0 5;
#X connect 16 0 0 5;
#X connect 20 0 9 0;
#X connect 21 0 10 0;
#X connect 22 0 11 0;
#X connect 23 0 12 0;
#X connect 24 0 13 0;
#X connect 25 0 16 0;
#X coords 0 -1 1 1 102 62 1 100 100;
#X restore 274 8 pd binary;
#N canvas 0 0 450 300 nervous 0;
#X obj 11 154 pdp_nervous;
#X obj 14 70 inlet;
#X obj 24 251 outlet;
#X obj 101 101 cnv 15 100 60 empty empty Nervous 20 30 0 42 -258113
-203904 0;
#X text 131 140 Mode;
#X obj 111 138 tgl 15 0 empty empty empty 0 -6 0 8 -262144 -1 -1 0
1;
#X floatatom 110 110 3 0 0 0 - - -;
#X text 138 108 frames;
#X obj 192 100 cnv 10 10 10 empty empty empty 20 12 0 14 -260097 -66577
0;
#X obj 101 100 cnv 10 10 10 empty empty empty 20 12 0 14 -260097 -66577
0;
#X obj 101 152 cnv 10 10 10 empty empty empty 20 12 0 14 -260097 -66577
0;
#X connect 0 0 2 0;
#X connect 1 0 0 0;
#X coords 0 -1 1 1 102 62 1 100 100;
#X restore 274 78 pd nervous;
#N canvas 461 11 450 300 cmap 0;
#X obj 101 101 cnv 15 100 60 empty empty MapCor 20 30 0 54 -14789 -228856
0;
#X obj 13 299 pdp_glx;
#X floatatom 129 112 3 0 0 0 - - -;
#X floatatom 138 128 3 0 0 0 - - -;
#X floatatom 146 144 3 0 0 0 - - -;
#X floatatom 208 31 3 0 0 0 - - -;
#X floatatom 217 55 3 0 0 0 - - -;
#X msg -8 93 pick;
#X floatatom 262 148 3 0 0 0 - - -;
#X msg 273 176 luminosity \$1;
#X obj 374 178 tgl 15 0 empty empty empty 0 -6 0 8 -262144 -1 -1 0
1;
#X text 397 179 Use luminosity in color detection;
#X obj 358 201 tgl 15 0 empty empty empty 0 -6 0 8 -262144 -1 -1 0
1;
#X msg 282 200 cursor \$1;
#X text 381 202 Show cursor or not;
#X obj 80 186 pdp_cmap ----;
#X obj 198 10 hdl 15 1 0 10 empty empty empty 0 -6 0 8 -262144 -1 -1
0;
#X text 352 10 Select color index ( capacity is 10 by default );
#X text -19 70 Pick up the color;
#X text 256 30 X coordinate of cursor;
#X text 265 54 Y coordinate of cursor;
#X text 308 147 Tolerance ( default = 10 );
#X msg 290 224 clear;
#X msg 298 248 delete \$1;
#X text 420 250 Delete a mapping;
#X msg 321 275 resize 20;
#X floatatom 373 250 5 0 0 0 - - -;
#X obj 649 39 tgl 15 0 empty empty empty 0 -6 0 8 -262144 -1 -1 0 1
;
#X obj 649 91 pdp_control;
#X msg 649 64 thread \$1;
#X floatatom 649 152 5 0 0 0 - - -;
#X obj 649 123 route pdp_drop;
#X msg 63 299 cursor \$1;
#X obj 138 300 tgl 15 0 empty empty empty 0 -6 0 8 -262144 -1 -1 0
1;
#X text 381 202 Show cursor or not;
#X text 405 276 Resize the color table;
#X text 351 224 Clear the color table;
#X text -22 161 Set the cursor;
#X msg -18 127 setcur \$1 \$2;
#X msg 188 295 dim 160 120;
#X obj 80 234 outlet;
#X text 153 112 R;
#X text 161 127 G;
#X text 169 143 B;
#X obj 192 100 cnv 10 10 10 empty empty empty 20 12 0 14 -260097 -66577
0;
#X obj 100 100 cnv 10 10 10 empty empty empty 20 12 0 14 -260097 -66577
0;
#X obj 130 100 cnv 10 10 10 empty empty empty 20 12 0 14 -260097 -66577
0;
#X obj 160 100 cnv 10 10 10 empty empty empty 20 12 0 14 -260097 -66577
0;
#X obj 101 151 cnv 10 10 10 empty empty empty 20 12 0 14 -260097 -66577
0;
#X obj 36 26 inlet;
#X obj 129 21 inlet;
#X obj 139 31 inlet;
#X obj 149 41 inlet;
#X obj 216 274 loadbang;
#X connect 1 0 38 0;
#X connect 2 0 15 4;
#X connect 3 0 15 5;
#X connect 4 0 15 6;
#X connect 5 0 15 2;
#X connect 6 0 15 3;
#X connect 7 0 15 0;
#X connect 8 0 15 7;
#X connect 9 0 15 0;
#X connect 10 0 9 0;
#X connect 12 0 13 0;
#X connect 13 0 15 0;
#X connect 15 0 1 0;
#X connect 15 0 40 0;
#X connect 16 0 15 1;
#X connect 22 0 15 0;
#X connect 23 0 15 0;
#X connect 25 0 15 0;
#X connect 26 0 23 0;
#X connect 27 0 29 0;
#X connect 28 0 31 0;
#X connect 29 0 28 0;
#X connect 31 0 30 0;
#X connect 32 0 1 0;
#X connect 33 0 32 0;
#X connect 38 0 15 0;
#X connect 38 0 7 0;
#X connect 39 0 1 0;
#X connect 49 0 15 0;
#X connect 50 0 2 0;
#X connect 51 0 3 0;
#X connect 52 0 4 0;
#X connect 53 0 39 0;
#X coords 0 -1 1 1 102 62 1 100 100;
#X restore 274 147 pd cmap;
#N canvas 0 0 450 300 dice 0;
#X obj 39 72 inlet;
#X obj 35 106 pdp_dice;
#X obj 35 251 outlet;
#X obj 101 101 cnv 15 100 60 empty empty Dice 20 30 0 54 -55857 -228856
0;
#X floatatom 143 132 3 0 0 0 - - -;
#X obj 100 100 cnv 10 10 10 empty empty empty 20 12 0 14 -260097 -66577
0;
#X obj 100 152 cnv 10 10 10 empty empty empty 20 12 0 14 -260097 -66577
0;
#X obj 192 100 cnv 10 10 10 empty empty empty 20 12 0 14 -260097 -66577
0;
#X obj 209 52 inlet;
#X connect 0 0 1 0;
#X connect 1 0 2 0;
#X connect 4 0 1 1;
#X connect 8 0 4 0;
#X coords 0 -1 1 1 102 62 1 100 100;
#X restore 417 8 pd dice;
#N canvas 0 0 450 300 dilate 0;
#X obj 101 101 cnv 15 100 60 empty empty Dilate 20 30 0 42 -261234
-203904 0;
#X obj 192 100 cnv 10 10 10 empty empty empty 20 12 0 14 -260097 -66577
0;
#X obj 100 100 cnv 10 10 10 empty empty empty 20 12 0 14 -260097 -66577
0;
#X obj 130 100 cnv 10 10 10 empty empty empty 20 12 0 14 -260097 -66577
0;
#X obj 160 100 cnv 10 10 10 empty empty empty 20 12 0 14 -260097 -66577
0;
#X obj 101 151 cnv 10 10 10 empty empty empty 20 12 0 14 -260097 -66577
0;
#X obj 24 158 pdp_dilate;
#X floatatom 108 111 3 0 0 0 - - -;
#X floatatom 119 127 3 0 0 0 - - -;
#X floatatom 130 144 3 0 0 0 - - -;
#X text 133 110 passes 1;
#X msg 256 41 1;
#X msg 269 96 3;
#X msg 243 68 3;
#X obj 40 37 inlet;
#X obj 108 27 inlet;
#X obj 119 47 inlet;
#X obj 130 67 inlet;
#X obj 39 216 outlet;
#X text 146 126 width;
#X text 155 142 height;
#X connect 6 0 18 0;
#X connect 7 0 6 1;
#X connect 8 0 6 2;
#X connect 9 0 6 3;
#X connect 11 0 7 0;
#X connect 12 0 9 0;
#X connect 13 0 8 0;
#X connect 14 0 6 0;
#X connect 15 0 7 0;
#X connect 16 0 8 0;
#X connect 17 0 9 0;
#X coords 0 -1 1 1 102 62 1 100 100;
#X restore 417 77 pd dilate;
#N canvas 777 332 450 300 binary 0;
#X obj 101 101 cnv 15 100 60 empty empty Binary 20 34 0 54 -260878
-228856 0;
#X floatatom 103 109 3 0 0 0 - - -;
#X floatatom 112 126 3 0 0 0 - - -;
#X floatatom 124 143 3 0 0 0 - - -;
#X floatatom 232 227 5 0 0 0 - - -;
#X floatatom 241 252 5 0 0 0 - - -;
#X text 280 226 X coordinate of cursor ( pick );
#X text 289 251 Y coordinate of cursor ( pick );
#X floatatom 163 127 5 0 0 0 - - -;
#X floatatom 64 256 5 0 0 0 - - -;
#X floatatom 114 257 5 0 0 0 - - -;
#X floatatom 161 256 5 0 0 0 - - -;
#X text 31 286 Components of selected color;
#X text 76 274 Y;
#X text 127 274 U;
#X text 167 274 V;
#X text 209 126 Tolerance ( default = 55 );
#X obj 15 191 pdp_binary ----;
#X text 130 108 Y;
#X text 137 125 U;
#X text 149 142 V;
#X obj 15 72 inlet;
#X obj 15 256 outlet;
#X obj 192 100 cnv 10 10 10 empty empty empty 20 12 0 14 -260097 -66577
0;
#X obj 100 100 cnv 10 10 10 empty empty empty 20 12 0 14 -260097 -66577
0;
#X obj 130 100 cnv 10 10 10 empty empty empty 20 12 0 14 -260097 -66577
0;
#X obj 160 100 cnv 10 10 10 empty empty empty 20 12 0 14 -260097 -66577
0;
#X obj 101 151 cnv 10 10 10 empty empty empty 20 12 0 14 -260097 -66577
0;
#X obj 121 44 inlet;
#X obj 131 54 inlet;
#X obj 141 64 inlet;
#X obj 151 74 inlet;
#X connect 1 0 17 1;
#X connect 2 0 17 2;
#X connect 3 0 17 3;
#X connect 4 0 17 4;
#X connect 5 0 17 5;
#X connect 8 0 17 6;
#X connect 17 0 22 0;
#X connect 17 1 9 0;
#X connect 17 2 10 0;
#X connect 17 3 11 0;
#X connect 21 0 17 0;
#X connect 28 0 1 0;
#X connect 29 0 2 0;
#X connect 30 0 3 0;
#X connect 31 0 8 0;
#X coords 0 -1 1 1 102 62 1 100 100;
#X restore 417 146 pd binary;
#X obj 180 265 pdp_frei0r;
#N canvas 0 0 488 584 FF_bckdrp 0;
#X obj 53 255 pdp_freeframe;
#X floatatom 347 24 5 0 0 0 - - -;
#X obj 12 185 pdp_scale 320 240;
#X obj 392 22 hradio 15 1 0 44 empty empty empty 0 -6 0 8 -262144 -1
-1 0;
#X obj 401 148 hsl 128 15 0 1 0 0 empty vparam3 empty -2 -6 0 8 -262144
-1 -1 0 1;
#X obj 541 148 hsl 128 15 0 1 0 0 empty vparam4 empty -2 -6 0 8 -262144
-1 -1 0 1;
#X obj 681 148 hsl 128 15 0 1 0 0 empty vparam5 empty -2 -6 0 8 -262144
-1 -1 0 1;
#X msg 398 168 param 3 \$1;
#X msg 538 167 param 4 \$1;
#X msg 679 167 param 5 \$1;
#X text 394 2 Select the plugin;
#X text 398 49 Adjust plugin parameters.;
#X symbolatom 106 408 20 0 0 0 - - -;
#X text 259 408 <-- plugin name;
#X floatatom 125 386 5 0 0 0 - - -;
#X text 173 384 <-- number of parameters;
#X text 224 358 <-- parameter name;
#X text 251 330 <-- parameter type;
#X text 267 301 <-- parameter default;
#X obj 403 89 hsl 128 15 0 1 0 0 empty vparam0 empty -2 -6 0 8 -262144
-1 -1 0 1;
#X obj 541 89 hsl 128 15 0 1 0 0 empty vparam1 empty -2 -6 0 8 -262144
-1 -1 0 1;
#X obj 682 89 hsl 128 15 0 1 0 0 empty vparam2 empty -2 -6 0 8 -262144
-1 -1 0 1;
#X obj 401 211 hsl 128 15 0 1 0 0 empty vparam6 empty -2 -6 0 8 -262144
-1 -1 0 1;
#X obj 542 211 hsl 128 15 0 1 0 0 empty vparam7 empty -2 -6 0 8 -262144
-1 -1 0 1;
#X obj 684 211 hsl 128 15 0 1 0 0 empty vparam8 empty -2 -6 0 8 -262144
-1 -1 0 1;
#X msg 400 108 param 0 \$1;
#X msg 538 108 param 1 \$1;
#X msg 679 108 param 2 \$1;
#X msg 400 231 param 6 \$1;
#X msg 539 230 param 7 \$1;
#X msg 681 230 param 8 \$1;
#N canvas 0 0 996 665 pname 0;
#X obj 51 119 l2s;
#X obj 80 119 l2s;
#X obj 111 119 l2s;
#X obj 143 119 l2s;
#X obj 207 120 l2s;
#X obj 236 120 l2s;
#X obj 267 120 l2s;
#X obj 298 119 l2s;
#X obj 97 86 route 0 1 2 3 4 5 6 7 8;
#X obj 327 119 l2s;
#X obj 97 51 inlet;
#X obj 51 154 s ffparam0;
#X obj 79 178 s ffparam1;
#X obj 118 205 s ffparam2;
#X obj 148 227 s ffparam3;
#X obj 185 157 s ffparam4;
#X obj 213 181 s ffparam5;
#X obj 255 206 s ffparam6;
#X obj 283 230 s ffparam7;
#X obj 305 155 s ffparam8;
#X obj 391 53 inlet;
#X msg 390 79 symbol;
#X connect 0 0 11 0;
#X connect 1 0 12 0;
#X connect 2 0 13 0;
#X connect 3 0 14 0;
#X connect 4 0 15 0;
#X connect 5 0 16 0;
#X connect 6 0 17 0;
#X connect 7 0 18 0;
#X connect 8 0 0 0;
#X connect 8 1 1 0;
#X connect 8 2 2 0;
#X connect 8 3 3 0;
#X connect 8 4 4 0;
#X connect 8 5 5 0;
#X connect 8 6 6 0;
#X connect 8 7 7 0;
#X connect 8 8 9 0;
#X connect 9 0 19 0;
#X connect 10 0 8 0;
#X connect 20 0 21 0;
#X connect 21 0 11 0;
#X connect 21 0 12 0;
#X connect 21 0 13 0;
#X connect 21 0 14 0;
#X connect 21 0 15 0;
#X connect 21 0 16 0;
#X connect 21 0 17 0;
#X connect 21 0 18 0;
#X connect 21 0 19 0;
#X restore 156 358 pd pname;
#X symbolatom 400 70 18 0 0 0 - ffparam0 -;
#X symbolatom 539 69 18 0 0 0 - ffparam1 -;
#X symbolatom 678 69 18 0 0 0 - ffparam2 -;
#X symbolatom 401 131 18 0 0 0 - ffparam3 -;
#X symbolatom 540 130 18 0 0 0 - ffparam4 -;
#X symbolatom 679 130 18 0 0 0 - ffparam5 -;
#X symbolatom 401 191 18 0 0 0 - ffparam6 -;
#X symbolatom 540 190 18 0 0 0 - ffparam7 -;
#X symbolatom 679 190 18 0 0 0 - ffparam8 -;
#N canvas 0 0 996 665 default 0;
#X obj 97 86 route 0 1 2 3 4 5 6 7 8;
#X obj 97 51 inlet;
#X obj 391 53 inlet;
#X obj 51 154 s vparam0;
#X obj 393 114 float 0;
#X msg 392 88 bang;
#X obj 79 178 s vparam1;
#X obj 118 205 s vparam2;
#X obj 148 227 s vparam3;
#X obj 184 159 s vparam4;
#X obj 213 181 s vparam5;
#X obj 255 206 s vparam6;
#X obj 283 230 s vparam7;
#X obj 304 155 s vparam8;
#X connect 0 0 3 0;
#X connect 0 1 6 0;
#X connect 0 2 7 0;
#X connect 0 3 8 0;
#X connect 0 4 9 0;
#X connect 0 5 10 0;
#X connect 0 6 11 0;
#X connect 0 7 12 0;
#X connect 0 8 13 0;
#X connect 1 0 0 0;
#X connect 2 0 5 0;
#X connect 4 0 3 0;
#X connect 4 0 6 0;
#X connect 4 0 7 0;
#X connect 4 0 8 0;
#X connect 4 0 9 0;
#X connect 4 0 10 0;
#X connect 4 0 11 0;
#X connect 4 0 12 0;
#X connect 4 0 13 0;
#X connect 5 0 4 0;
#X restore 190 300 pd default;
#X obj 174 330 print type;
#X obj 12 10 inlet;
#X obj 18 381 outlet;
#X obj 209 13 loadbang;
#X obj 101 101 cnv 15 100 60 empty empty DropBG 20 30 0 42 -261234
-203904 0;
#X obj 146 100 cnv 10 10 10 empty empty empty 20 12 0 14 -260097 -66577
0;
#X obj 192 100 cnv 10 10 10 empty empty empty 20 12 0 14 -260097 -66577
0;
#X obj 101 100 cnv 10 10 10 empty empty empty 20 12 0 14 -260097 -66577
0;
#X obj 101 151 cnv 10 10 10 empty empty empty 20 12 0 14 -260097 -66577
0;
#X obj 68 16 inlet;
#X obj 118 26 inlet;
#X msg 400 36 pluginsdir /usr/lib/FreeFrame/plugins_binary;
#X msg 210 45 0;
#X obj 110 116 hsl 64 10 0 1 0 0 empty empty empty -2 -8 0 10 -262144
-1 -1 0 1;
#X obj 130 146 hsl 64 10 0 1 0 0 empty empty empty -2 -8 0 10 -262144
-1 -1 0 1;
#X connect 0 0 44 0;
#X connect 0 1 12 0;
#X connect 0 2 14 0;
#X connect 0 3 31 0;
#X connect 0 4 42 0;
#X connect 0 5 41 0;
#X connect 1 0 0 1;
#X connect 2 0 0 0;
#X connect 3 0 1 0;
#X connect 4 0 7 0;
#X connect 5 0 8 0;
#X connect 6 0 9 0;
#X connect 7 0 0 0;
#X connect 8 0 0 0;
#X connect 9 0 0 0;
#X connect 14 0 31 1;
#X connect 14 0 41 1;
#X connect 19 0 25 0;
#X connect 20 0 26 0;
#X connect 21 0 27 0;
#X connect 22 0 28 0;
#X connect 23 0 29 0;
#X connect 24 0 30 0;
#X connect 25 0 0 0;
#X connect 26 0 0 0;
#X connect 27 0 0 0;
#X connect 28 0 0 0;
#X connect 29 0 0 0;
#X connect 30 0 0 0;
#X connect 43 0 2 0;
#X connect 45 0 54 0;
#X connect 45 0 53 0;
#X connect 51 0 55 0;
#X connect 52 0 56 0;
#X connect 53 0 0 0;
#X connect 54 0 3 0;
#X connect 55 0 19 0;
#X connect 56 0 20 0;
#X coords 0 -1 1 1 102 62 1 100 100;
#X restore 13 295 pd FF_bckdrp;
#N canvas 256 219 639 300 FF_bk-light 0;
#X obj 53 255 pdp_freeframe;
#X floatatom 347 24 5 0 0 0 - - -;
#X obj 12 185 pdp_scale 320 240;
#X obj 392 22 hradio 15 1 0 44 empty empty empty 0 -6 0 8 -262144 -1
-1 1;
#X obj 401 148 hsl 128 15 0 1 0 0 empty vparam3 empty -2 -6 0 8 -262144
-1 -1 0 1;
#X obj 541 148 hsl 128 15 0 1 0 0 empty vparam4 empty -2 -6 0 8 -262144
-1 -1 0 1;
#X obj 681 148 hsl 128 15 0 1 0 0 empty vparam5 empty -2 -6 0 8 -262144
-1 -1 0 1;
#X msg 398 168 param 3 \$1;
#X msg 538 167 param 4 \$1;
#X msg 679 167 param 5 \$1;
#X text 394 2 Select the plugin;
#X text 398 49 Adjust plugin parameters.;
#X symbolatom 106 408 20 0 0 0 - - -;
#X text 259 408 <-- plugin name;
#X floatatom 125 386 5 0 0 0 - - -;
#X text 173 384 <-- number of parameters;
#X text 224 358 <-- parameter name;
#X text 251 330 <-- parameter type;
#X text 267 301 <-- parameter default;
#X obj 403 89 hsl 128 15 0 1 0 0 empty vparam0 empty -2 -6 0 8 -262144
-1 -1 0 1;
#X obj 541 89 hsl 128 15 0 1 0 0 empty vparam1 empty -2 -6 0 8 -262144
-1 -1 0 1;
#X obj 682 89 hsl 128 15 0 1 0 0 empty vparam2 empty -2 -6 0 8 -262144
-1 -1 0 1;
#X obj 401 211 hsl 128 15 0 1 0 0 empty vparam6 empty -2 -6 0 8 -262144
-1 -1 0 1;
#X obj 542 211 hsl 128 15 0 1 0 0 empty vparam7 empty -2 -6 0 8 -262144
-1 -1 0 1;
#X obj 684 211 hsl 128 15 0 1 0 0 empty vparam8 empty -2 -6 0 8 -262144
-1 -1 0 1;
#X msg 400 108 param 0 \$1;
#X msg 538 108 param 1 \$1;
#X msg 679 108 param 2 \$1;
#X msg 400 231 param 6 \$1;
#X msg 539 230 param 7 \$1;
#X msg 681 230 param 8 \$1;
#N canvas 0 0 996 665 pname 0;
#X obj 51 119 l2s;
#X obj 80 119 l2s;
#X obj 111 119 l2s;
#X obj 143 119 l2s;
#X obj 207 120 l2s;
#X obj 236 120 l2s;
#X obj 267 120 l2s;
#X obj 298 119 l2s;
#X obj 97 86 route 0 1 2 3 4 5 6 7 8;
#X obj 327 119 l2s;
#X obj 97 51 inlet;
#X obj 51 154 s ffparam0;
#X obj 79 178 s ffparam1;
#X obj 118 205 s ffparam2;
#X obj 148 227 s ffparam3;
#X obj 185 157 s ffparam4;
#X obj 213 181 s ffparam5;
#X obj 255 206 s ffparam6;
#X obj 283 230 s ffparam7;
#X obj 305 155 s ffparam8;
#X obj 391 53 inlet;
#X msg 390 79 symbol;
#X connect 0 0 11 0;
#X connect 1 0 12 0;
#X connect 2 0 13 0;
#X connect 3 0 14 0;
#X connect 4 0 15 0;
#X connect 5 0 16 0;
#X connect 6 0 17 0;
#X connect 7 0 18 0;
#X connect 8 0 0 0;
#X connect 8 1 1 0;
#X connect 8 2 2 0;
#X connect 8 3 3 0;
#X connect 8 4 4 0;
#X connect 8 5 5 0;
#X connect 8 6 6 0;
#X connect 8 7 7 0;
#X connect 8 8 9 0;
#X connect 9 0 19 0;
#X connect 10 0 8 0;
#X connect 20 0 21 0;
#X connect 21 0 11 0;
#X connect 21 0 12 0;
#X connect 21 0 13 0;
#X connect 21 0 14 0;
#X connect 21 0 15 0;
#X connect 21 0 16 0;
#X connect 21 0 17 0;
#X connect 21 0 18 0;
#X connect 21 0 19 0;
#X restore 156 358 pd pname;
#X symbolatom 400 70 18 0 0 0 - ffparam0 -;
#X symbolatom 539 69 18 0 0 0 - ffparam1 -;
#X symbolatom 678 69 18 0 0 0 - ffparam2 -;
#X symbolatom 401 131 18 0 0 0 - ffparam3 -;
#X symbolatom 540 130 18 0 0 0 - ffparam4 -;
#X symbolatom 679 130 18 0 0 0 - ffparam5 -;
#X symbolatom 401 191 18 0 0 0 - ffparam6 -;
#X symbolatom 540 190 18 0 0 0 - ffparam7 -;
#X symbolatom 679 190 18 0 0 0 - ffparam8 -;
#N canvas 0 0 996 665 default 0;
#X obj 97 86 route 0 1 2 3 4 5 6 7 8;
#X obj 97 51 inlet;
#X obj 391 53 inlet;
#X obj 51 154 s vparam0;
#X obj 393 114 float 0;
#X msg 392 88 bang;
#X obj 79 178 s vparam1;
#X obj 118 205 s vparam2;
#X obj 148 227 s vparam3;
#X obj 184 159 s vparam4;
#X obj 213 181 s vparam5;
#X obj 255 206 s vparam6;
#X obj 283 230 s vparam7;
#X obj 304 155 s vparam8;
#X connect 0 0 3 0;
#X connect 0 1 6 0;
#X connect 0 2 7 0;
#X connect 0 3 8 0;
#X connect 0 4 9 0;
#X connect 0 5 10 0;
#X connect 0 6 11 0;
#X connect 0 7 12 0;
#X connect 0 8 13 0;
#X connect 1 0 0 0;
#X connect 2 0 5 0;
#X connect 4 0 3 0;
#X connect 4 0 6 0;
#X connect 4 0 7 0;
#X connect 4 0 8 0;
#X connect 4 0 9 0;
#X connect 4 0 10 0;
#X connect 4 0 11 0;
#X connect 4 0 12 0;
#X connect 4 0 13 0;
#X connect 5 0 4 0;
#X restore 190 300 pd default;
#X obj 174 330 print type;
#X obj 12 10 inlet;
#X obj 18 381 outlet;
#X obj 209 13 loadbang;
#X obj 101 101 cnv 15 100 60 empty empty BKlight 20 30 0 42 -204786
-203904 0;
#X obj 134 100 cnv 10 10 10 empty empty empty 20 12 0 14 -260097 -66577
0;
#X obj 192 100 cnv 10 10 10 empty empty empty 20 12 0 14 -260097 -66577
0;
#X obj 101 100 cnv 10 10 10 empty empty empty 20 12 0 14 -260097 -66577
0;
#X obj 101 151 cnv 10 10 10 empty empty empty 20 12 0 14 -260097 -66577
0;
#X obj 68 16 inlet;
#X obj 118 26 inlet;
#X msg 400 36 pluginsdir /usr/lib/FreeFrame/plugins_binary;
#X obj 165 100 cnv 10 10 10 empty empty empty 20 12 0 14 -260097 -66577
0;
#X msg 210 45 1;
#X obj 110 116 hsl 64 10 0 1 0 0 empty empty empty -2 -8 0 10 -262144
-1 -1 0 1;
#X obj 120 131 hsl 64 10 0 1 0 0 empty empty empty -2 -8 0 10 -262144
-1 -1 0 1;
#X obj 130 146 hsl 64 10 0 1 0 0 empty empty empty -2 -8 0 10 -262144
-1 -1 0 1;
#X obj 156 54 inlet;
#X connect 0 0 44 0;
#X connect 0 1 12 0;
#X connect 0 2 14 0;
#X connect 0 3 31 0;
#X connect 0 4 42 0;
#X connect 0 5 41 0;
#X connect 1 0 0 1;
#X connect 2 0 0 0;
#X connect 3 0 1 0;
#X connect 4 0 7 0;
#X connect 5 0 8 0;
#X connect 6 0 9 0;
#X connect 7 0 0 0;
#X connect 8 0 0 0;
#X connect 9 0 0 0;
#X connect 14 0 31 1;
#X connect 14 0 41 1;
#X connect 19 0 25 0;
#X connect 20 0 26 0;
#X connect 21 0 27 0;
#X connect 22 0 28 0;
#X connect 23 0 29 0;
#X connect 24 0 30 0;
#X connect 25 0 0 0;
#X connect 26 0 0 0;
#X connect 27 0 0 0;
#X connect 28 0 0 0;
#X connect 29 0 0 0;
#X connect 30 0 0 0;
#X connect 43 0 2 0;
#X connect 45 0 55 0;
#X connect 45 0 53 0;
#X connect 51 0 56 0;
#X connect 52 0 57 0;
#X connect 53 0 0 0;
#X connect 55 0 3 0;
#X connect 56 0 19 0;
#X connect 57 0 20 0;
#X connect 58 0 21 0;
#X connect 59 0 58 0;
#X coords 0 -1 1 1 102 62 1 100 100;
#X restore 142 294 pd FF_bk-light;
#N canvas 0 0 1274 714 FF-bloom 0;
#X obj 53 255 pdp_freeframe;
#X floatatom 347 24 5 0 0 0 - - -;
#X obj 12 185 pdp_scale 320 240;
#X obj 392 22 hradio 15 1 0 44 empty empty empty 0 -6 0 8 -262144 -1
-1 2;
#X obj 401 148 hsl 128 15 0 1 0 0 empty vparam3 empty -2 -6 0 8 -262144
-1 -1 0 1;
#X obj 541 148 hsl 128 15 0 1 0 0 empty vparam4 empty -2 -6 0 8 -262144
-1 -1 0 1;
#X obj 681 148 hsl 128 15 0 1 0 0 empty vparam5 empty -2 -6 0 8 -262144
-1 -1 0 1;
#X msg 398 168 param 3 \$1;
#X msg 538 167 param 4 \$1;
#X msg 679 167 param 5 \$1;
#X text 394 2 Select the plugin;
#X text 398 49 Adjust plugin parameters.;
#X symbolatom 106 408 20 0 0 0 - - -;
#X text 259 408 <-- plugin name;
#X floatatom 125 386 5 0 0 0 - - -;
#X text 173 384 <-- number of parameters;
#X text 224 358 <-- parameter name;
#X text 251 330 <-- parameter type;
#X text 267 301 <-- parameter default;
#X obj 403 89 hsl 128 15 0 1 0 0 empty vparam0 empty -2 -6 0 8 -262144
-1 -1 0 1;
#X obj 541 89 hsl 128 15 0 1 0 0 empty vparam1 empty -2 -6 0 8 -262144
-1 -1 0 1;
#X obj 682 89 hsl 128 15 0 1 0 0 empty vparam2 empty -2 -6 0 8 -262144
-1 -1 0 1;
#X obj 401 211 hsl 128 15 0 1 0 0 empty vparam6 empty -2 -6 0 8 -262144
-1 -1 0 1;
#X obj 542 211 hsl 128 15 0 1 0 0 empty vparam7 empty -2 -6 0 8 -262144
-1 -1 0 1;
#X obj 684 211 hsl 128 15 0 1 0 0 empty vparam8 empty -2 -6 0 8 -262144
-1 -1 0 1;
#X msg 400 108 param 0 \$1;
#X msg 538 108 param 1 \$1;
#X msg 679 108 param 2 \$1;
#X msg 400 231 param 6 \$1;
#X msg 539 230 param 7 \$1;
#X msg 681 230 param 8 \$1;
#N canvas 0 0 996 665 pname 0;
#X obj 51 119 l2s;
#X obj 80 119 l2s;
#X obj 111 119 l2s;
#X obj 143 119 l2s;
#X obj 207 120 l2s;
#X obj 236 120 l2s;
#X obj 267 120 l2s;
#X obj 298 119 l2s;
#X obj 97 86 route 0 1 2 3 4 5 6 7 8;
#X obj 327 119 l2s;
#X obj 97 51 inlet;
#X obj 51 154 s ffparam0;
#X obj 79 178 s ffparam1;
#X obj 118 205 s ffparam2;
#X obj 148 227 s ffparam3;
#X obj 185 157 s ffparam4;
#X obj 213 181 s ffparam5;
#X obj 255 206 s ffparam6;
#X obj 283 230 s ffparam7;
#X obj 305 155 s ffparam8;
#X obj 391 53 inlet;
#X msg 390 79 symbol;
#X connect 0 0 11 0;
#X connect 1 0 12 0;
#X connect 2 0 13 0;
#X connect 3 0 14 0;
#X connect 4 0 15 0;
#X connect 5 0 16 0;
#X connect 6 0 17 0;
#X connect 7 0 18 0;
#X connect 8 0 0 0;
#X connect 8 1 1 0;
#X connect 8 2 2 0;
#X connect 8 3 3 0;
#X connect 8 4 4 0;
#X connect 8 5 5 0;
#X connect 8 6 6 0;
#X connect 8 7 7 0;
#X connect 8 8 9 0;
#X connect 9 0 19 0;
#X connect 10 0 8 0;
#X connect 20 0 21 0;
#X connect 21 0 11 0;
#X connect 21 0 12 0;
#X connect 21 0 13 0;
#X connect 21 0 14 0;
#X connect 21 0 15 0;
#X connect 21 0 16 0;
#X connect 21 0 17 0;
#X connect 21 0 18 0;
#X connect 21 0 19 0;
#X restore 156 358 pd pname;
#X symbolatom 400 70 18 0 0 0 - ffparam0 -;
#X symbolatom 539 69 18 0 0 0 - ffparam1 -;
#X symbolatom 678 69 18 0 0 0 - ffparam2 -;
#X symbolatom 401 131 18 0 0 0 - ffparam3 -;
#X symbolatom 540 130 18 0 0 0 - ffparam4 -;
#X symbolatom 679 130 18 0 0 0 - ffparam5 -;
#X symbolatom 401 191 18 0 0 0 - ffparam6 -;
#X symbolatom 540 190 18 0 0 0 - ffparam7 -;
#X symbolatom 679 190 18 0 0 0 - ffparam8 -;
#N canvas 0 0 996 665 default 0;
#X obj 97 86 route 0 1 2 3 4 5 6 7 8;
#X obj 97 51 inlet;
#X obj 391 53 inlet;
#X obj 51 154 s vparam0;
#X obj 393 114 float 0;
#X msg 392 88 bang;
#X obj 79 178 s vparam1;
#X obj 118 205 s vparam2;
#X obj 148 227 s vparam3;
#X obj 184 159 s vparam4;
#X obj 213 181 s vparam5;
#X obj 255 206 s vparam6;
#X obj 283 230 s vparam7;
#X obj 304 155 s vparam8;
#X connect 0 0 3 0;
#X connect 0 1 6 0;
#X connect 0 2 7 0;
#X connect 0 3 8 0;
#X connect 0 4 9 0;
#X connect 0 5 10 0;
#X connect 0 6 11 0;
#X connect 0 7 12 0;
#X connect 0 8 13 0;
#X connect 1 0 0 0;
#X connect 2 0 5 0;
#X connect 4 0 3 0;
#X connect 4 0 6 0;
#X connect 4 0 7 0;
#X connect 4 0 8 0;
#X connect 4 0 9 0;
#X connect 4 0 10 0;
#X connect 4 0 11 0;
#X connect 4 0 12 0;
#X connect 4 0 13 0;
#X connect 5 0 4 0;
#X restore 190 300 pd default;
#X obj 174 330 print type;
#X obj 12 10 inlet;
#X obj 18 381 outlet;
#X obj 299 3 loadbang;
#X obj 101 101 cnv 15 100 60 empty empty Bloom 20 30 0 42 -203904 -257985
0;
#X obj 133 100 cnv 10 10 10 empty empty empty 20 12 0 14 -260097 -66577
0;
#X obj 192 100 cnv 10 10 10 empty empty empty 20 12 0 14 -260097 -66577
0;
#X obj 101 100 cnv 10 10 10 empty empty empty 20 12 0 14 -260097 -66577
0;
#X obj 101 151 cnv 10 10 10 empty empty empty 20 12 0 14 -260097 -66577
0;
#X obj 48 9 inlet;
#X obj 88 9 inlet;
#X msg 400 36 pluginsdir /usr/lib/FreeFrame/plugins_binary;
#X obj 165 100 cnv 10 10 10 empty empty empty 20 12 0 14 -260097 -66577
0;
#X obj 120 137 hsl 64 10 0 1 0 0 empty empty empty -2 -8 0 10 -262144
-1 -1 0 1;
#X obj 130 149 hsl 64 10 0 1 0 0 empty empty empty -2 -8 0 10 -262144
-1 -1 0 1;
#X obj 126 7 inlet;
#X msg 300 35 2;
#X obj 110 116 knob 16 16 0 127 0 0 empty empty empty 0 -8 0 8 -262144
-1 -1 0 1;
#X obj 130 116 knob 16 16 0 127 0 0 empty empty empty 0 -8 0 8 -262144
-1 -1 0 1;
#X obj 150 116 knob 16 16 0 127 0 0 empty empty empty 0 -8 0 8 -262144
-1 -1 0 1;
#X obj 170 116 knob 16 16 0 127 0 0 empty empty empty 0 -8 0 8 -262144
-1 -1 0 1;
#X obj 117 100 cnv 10 10 10 empty empty empty 20 12 0 14 -260097 -66577
0;
#X obj 179 100 cnv 10 10 10 empty empty empty 20 12 0 14 -260097 -66577
0;
#X obj 150 100 cnv 10 10 10 empty empty empty 20 12 0 14 -260097 -66577
0;
#X obj 165 8 inlet;
#X obj 205 8 inlet;
#X obj 243 6 inlet;
#X connect 0 0 44 0;
#X connect 0 1 12 0;
#X connect 0 2 14 0;
#X connect 0 3 31 0;
#X connect 0 4 42 0;
#X connect 0 5 41 0;
#X connect 1 0 0 1;
#X connect 2 0 0 0;
#X connect 3 0 1 0;
#X connect 4 0 7 0;
#X connect 5 0 8 0;
#X connect 6 0 9 0;
#X connect 7 0 0 0;
#X connect 8 0 0 0;
#X connect 9 0 0 0;
#X connect 14 0 31 1;
#X connect 14 0 41 1;
#X connect 19 0 25 0;
#X connect 20 0 26 0;
#X connect 21 0 27 0;
#X connect 22 0 28 0;
#X connect 23 0 29 0;
#X connect 24 0 30 0;
#X connect 25 0 0 0;
#X connect 26 0 0 0;
#X connect 27 0 0 0;
#X connect 28 0 0 0;
#X connect 29 0 0 0;
#X connect 30 0 0 0;
#X connect 43 0 2 0;
#X connect 45 0 58 0;
#X connect 45 0 53 0;
#X connect 51 0 59 0;
#X connect 52 0 60 0;
#X connect 53 0 0 0;
#X connect 55 0 20 0;
#X connect 56 0 21 0;
#X connect 57 0 61 0;
#X connect 58 0 3 0;
#X connect 59 0 19 0;
#X connect 60 0 4 0;
#X connect 61 0 5 0;
#X connect 62 0 6 0;
#X connect 66 0 62 0;
#X connect 67 0 55 0;
#X connect 68 0 56 0;
#X coords 0 -1 1 1 102 62 1 100 100;
#X restore 341 291 pd FF-bloom;
#X coords 0 0 1 1 800 210 0;
#X restore 55 -5 pd pureffects;
#N canvas 641 52 597 224 sources 1;
#N canvas 192 398 450 300 v4l 0;
#X obj 101 59 inlet;
#X obj 141 59 inlet;
#X obj 181 59 inlet;
#X obj 98 196 outlet;
#X obj 101 101 cnv 15 100 60 empty empty V4L 20 12 0 48 -135233 -228856
0;
#X obj 16 170 metro 40;
#X obj 117 139 tgl 15 0 empty empty empty 17 7 0 10 -262144 -1 -1 0
1;
#X symbolatom 140 124 3 0 0 0 - - -;
#X text 163 125 dev;
#X msg 257 213 open /dev/video\$1;
#X obj 101 101 cnv 10 10 10 empty empty empty 20 12 0 14 -260097 -66577
0;
#X obj 147 101 cnv 10 10 10 empty empty empty 20 12 0 14 -260097 -66577
0;
#X obj 191 101 cnv 10 10 10 empty empty empty 20 12 0 14 -260097 -66577
0;
#X obj 101 151 cnv 10 10 10 empty empty empty 20 12 0 14 -260097 -66577
0;
#X obj 79 265 pdp_xv;
#X obj 14 214 pdp_v4l;
#X text 142 140 comment;
#X connect 1 0 6 0;
#X connect 2 0 7 0;
#X connect 5 0 15 0;
#X connect 6 0 5 0;
#X connect 7 0 9 0;
#X connect 9 0 15 0;
#X connect 15 0 3 0;
#X connect 15 0 14 0;
#X coords 0 -1 1 1 102 62 1 100 100;
#X restore 10 44 pd v4l;
#N canvas 263 160 450 300 v4l2 0;
#X floatatom 210 20 5 0 0 0 - - -;
#X msg 210 40 format \$1;
#X obj 101 59 inlet;
#X obj 141 59 inlet;
#X obj 181 59 inlet;
#X obj 98 196 outlet;
#X obj 101 101 cnv 15 100 60 empty empty V4L2 20 12 0 48 -45633 -228856
0;
#X obj 16 170 metro 40;
#X obj 117 139 tgl 15 0 empty empty empty 17 7 0 10 -262144 -1 -1 0
1;
#X symbolatom 140 124 3 0 0 0 - - -;
#X text 163 125 dev;
#X msg 257 213 open /dev/video\$1;
#X obj 101 101 cnv 10 10 10 empty empty empty 20 12 0 14 -260097 -66577
0;
#X obj 147 101 cnv 10 10 10 empty empty empty 20 12 0 14 -260097 -66577
0;
#X obj 191 101 cnv 10 10 10 empty empty empty 20 12 0 14 -260097 -66577
0;
#X obj 101 151 cnv 10 10 10 empty empty empty 20 12 0 14 -260097 -66577
0;
#X obj 79 265 pdp_xv;
#X obj 14 214 pdp_v4l2;
#X connect 0 0 1 0;
#X connect 3 0 8 0;
#X connect 4 0 9 0;
#X connect 7 0 17 0;
#X connect 8 0 7 0;
#X connect 9 0 11 0;
#X connect 11 0 17 0;
#X connect 17 0 5 0;
#X connect 17 0 16 0;
#X coords 0 -1 1 1 102 62 1 100 100;
#X restore 11 118 pd v4l2;
#N canvas 18 74 677 609 yqt 0;
#X obj 101 101 cnv 15 100 60 empty empty yQT 20 12 0 48 -135263 -228856
0;
#X obj 101 101 cnv 10 10 10 empty empty empty 20 12 0 14 -260097 -66577
0;
#X obj 147 101 cnv 10 10 10 empty empty empty 20 12 0 14 -260097 -66577
0;
#X obj 191 101 cnv 10 10 10 empty empty empty 20 12 0 14 -260097 -66577
0;
#X obj 101 151 cnv 10 10 10 empty empty empty 20 12 0 14 -260097 -66577
0;
#X msg 63 246 loop \$1;
#X obj 154 144 tgl 15 0 empty empty empty 20 8 0 8 -262144 -1 -1 0
1;
#X msg 310 154 open \$1;
#X obj 309 130 openpanel;
#X obj 132 111 bng 15 250 50 0 empty empty empty 20 8 0 8 -262144 -1
-1;
#X floatatom 256 209 5 0 0 0 - - -;
#X obj 263 178 hsl 300 15 0 1000 0 0 empty empty empty -2 -6 0 8 -262144
-1 -1 0 1;
#X obj 197 245 metro 70;
#X obj 498 382 tgl 15 0 empty empty empty 0 -6 0 8 -262144 -1 -1 0
1;
#X obj 498 434 pdp_control;
#X msg 498 407 thread \$1;
#X floatatom 498 495 5 0 0 0 - - -;
#X obj 498 466 route pdp_drop;
#X floatatom 101 120 5 0 0 0 - - -;
#X floatatom 237 417 5 0 0 0 - - -;
#X text 257 392 Number of frames decoded;
#X text 286 416 Total number of frames;
#X floatatom 257 274 5 0 0 0 - - -;
#X text 308 274 Frame command;
#X obj 256 293 t b f;
#X obj 260 369 dac~;
#X text 21 470 pdp_yqt : quicktime movie reader with audio support
;
#X text 22 502 with big plundering from pdp_qt ( Tom Schouten );
#X text 21 486 written by Yves Degoyon;
#X floatatom 114 141 3 0 0 0 - - -;
#X text 317 441 Frame rate;
#X obj 165 333 pdp_yqt ----------;
#X obj 143 127 tgl 15 0 empty empty empty 17 7 0 10 -262144 -1 -1 0
1;
#X obj 56 20 inlet;
#X obj 96 20 inlet;
#X obj 136 20 inlet;
#X text 160 125 on-off;
#X text 173 143 loop;
#X obj 82 366 outlet;
#X obj 165 412 pdp_xv;
#X text 149 111 dialog;
#X connect 5 0 31 0;
#X connect 6 0 5 0;
#X connect 7 0 31 0;
#X connect 8 0 7 0;
#X connect 9 0 8 0;
#X connect 10 0 12 1;
#X connect 11 0 10 0;
#X connect 12 0 31 0;
#X connect 13 0 15 0;
#X connect 14 0 17 0;
#X connect 15 0 14 0;
#X connect 17 0 16 0;
#X connect 22 0 24 0;
#X connect 24 0 31 0;
#X connect 24 1 31 1;
#X connect 31 0 38 0;
#X connect 31 0 39 0;
#X connect 31 1 18 0;
#X connect 31 2 19 0;
#X connect 31 3 29 0;
#X connect 31 4 25 0;
#X connect 31 5 25 1;
#X connect 32 0 12 0;
#X connect 33 0 9 0;
#X connect 34 0 32 0;
#X connect 35 0 6 0;
#X coords 0 -1 1 1 102 62 1 100 100;
#X restore 127 43 pd yqt;
#N canvas 0 0 450 300 plasma 0;
#X obj 101 101 cnv 15 100 60 empty empty Plasma 20 12 0 48 -98944 -228856
0;
#X obj 101 101 cnv 10 10 10 empty empty empty 20 12 0 14 -260097 -66577
0;
#X obj 191 101 cnv 10 10 10 empty empty empty 20 12 0 14 -260097 -66577
0;
#X obj 101 151 cnv 10 10 10 empty empty empty 20 12 0 14 -260097 -66577
0;
#X obj 59 156 bng 15 250 50 0 empty empty empty 0 -6 0 8 -262144 -1
-1;
#X msg 224 81 dim 320 240;
#X text 320 81 set packet dimensions;
#X msg 224 108 type grey;
#X msg 224 131 type yv12;
#X text 320 110 generate greyscale;
#X text 320 129 generate colour (default);
#X msg 224 162 seed 123;
#X text 320 162 set seed value;
#X text 217 31 pdp_noise creates a random image (with uniform distribution
between -1 and 1) when a bang is received;
#X obj 96 208 pdp_plasma;
#X floatatom 159 120 5 0 0 0 - - -;
#X text 320 186 turbulence;
#X obj 96 251 pdp_reg;
#X obj 163 231 bng 15 250 50 0 empty empty empty 0 -6 0 8 -262144 -1
-1;
#X obj 49 264 outlet;
#X obj 72 47 inlet;
#X obj 134 52 inlet;
#X obj 36 119 metro 100;
#X obj 110 120 tgl 15 0 empty empty empty 17 7 0 10 -262144 -1 -1 0
1;
#X text 116 134 ON-OFF;
#X connect 4 0 14 0;
#X connect 5 0 14 0;
#X connect 7 0 14 0;
#X connect 8 0 14 0;
#X connect 11 0 14 0;
#X connect 14 0 17 0;
#X connect 15 0 14 1;
#X connect 17 0 19 0;
#X connect 18 0 17 0;
#X connect 20 0 23 0;
#X connect 21 0 15 0;
#X connect 22 0 4 0;
#X connect 23 0 22 0;
#X coords 0 -1 1 1 102 62 1 100 100;
#X restore 127 118 pd plasma;
#N canvas 393 26 634 471 background 0;
#X obj 122 176 bng 15 250 50 0 empty empty empty 20 8 0 8 -262144 -1
-1;
#X msg 83 175 stop;
#X obj 111 210 metro 70;
#X obj 320 507 tgl 15 0 empty empty empty 0 -6 0 8 -262144 -1 -1 0
1;
#X obj 320 559 pdp_control;
#X msg 320 532 thread \$1;
#X floatatom 320 620 5 0 0 0 - - -;
#X obj 320 591 route pdp_drop;
#X obj 157 284 pdp_background;
#X obj 128 325 pdp_convert image/YCrCb/*;
#X msg 53 210 bang;
#X floatatom 183 250 5 0 0 0 - - -;
#X text 190 235 Red;
#X floatatom 231 249 5 0 0 0 - - -;
#X floatatom 283 249 5 0 0 0 - - -;
#X text 231 234 Green;
#X text 285 233 Blue;
#X obj 34 369 outlet;
#X obj 265 139 inlet;
#X obj 201 144 inlet;
#X obj 146 140 inlet;
#X obj 1 1 cnv 15 100 22 empty empty bg_color 20 12 0 34 -261682 -66577
0;
#X obj 1 13 cnv 10 10 10 empty empty empty 20 12 0 14 -260097 -66577
0;
#X obj 64 5 tgl 15 0 empty empty empty 17 7 0 10 -262144 -1 -1 0 1
;
#X obj 66 78 sel 0 1;
#X connect 0 0 2 0;
#X connect 1 0 2 0;
#X connect 2 0 8 0;
#X connect 3 0 5 0;
#X connect 4 0 7 0;
#X connect 5 0 4 0;
#X connect 7 0 6 0;
#X connect 8 0 9 0;
#X connect 9 0 17 0;
#X connect 10 0 8 0;
#X connect 11 0 8 1;
#X connect 13 0 8 2;
#X connect 14 0 8 3;
#X connect 18 0 14 0;
#X connect 19 0 13 0;
#X connect 20 0 11 0;
#X connect 23 0 24 0;
#X connect 24 0 1 0;
#X connect 24 1 0 0;
#X coords 0 -1 1 1 102 24 1 0 0;
#X restore 321 167 pd background;
#X obj 237 117 pdp_colorgrid pdp_colorgrid1 256 0 256 50 0 50 0 1 1
10 10 332 134;
#N canvas 0 0 450 300 noise 0;
#X obj 123 219 pdp_noise;
#X obj 123 170 bng 15 250 50 0 empty empty empty 0 -6 0 8 -262144 -1
-1;
#X msg 251 92 dim 320 240;
#X msg 251 119 type grey;
#X msg 251 142 type yv12;
#X msg 251 173 seed 123;
#X obj 101 101 cnv 15 100 60 empty empty Noise 20 12 0 42 -233431 -191407
0;
#X obj 158 118 tgl 15 0 empty empty empty 17 7 0 10 -262144 -1 -1 0
1;
#X text 177 117 B/W;
#X obj 123 269 outlet;
#X obj 100 152 cnv 10 10 10 empty empty empty 20 12 0 14 -260097 -66577
0;
#X obj 44 171 metro 100;
#X obj 119 134 tgl 15 0 empty empty empty 17 7 0 10 -262144 -1 -1 0
1;
#X text 135 134 start;
#X obj 157 47 inlet;
#X obj 167 57 inlet;
#X obj 350 138 sel 0 1;
#X obj 101 101 cnv 10 10 10 empty empty empty 20 12 0 14 -260097 -66577
0;
#X obj 191 101 cnv 10 10 10 empty empty empty 20 12 0 14 -260097 -66577
0;
#X connect 0 0 9 0;
#X connect 1 0 0 0;
#X connect 2 0 0 0;
#X connect 3 0 0 0;
#X connect 4 0 0 0;
#X connect 5 0 0 0;
#X connect 7 0 16 0;
#X connect 11 0 1 0;
#X connect 12 0 11 0;
#X connect 14 0 12 0;
#X connect 15 0 7 0;
#X connect 16 0 3 0;
#X connect 16 1 4 0;
#X coords 0 -1 1 1 102 62 1 100 100;
#X restore 242 43 pd noise;
#N canvas 0 0 1274 714 text 0;
#X obj 101 101 cnv 15 100 60 empty empty Text 20 12 0 42 -233017 -66577
0;
#X obj 658 461 tgl 15 0 empty empty empty 0 -6 0 8 -262144 -1 -1 0
1;
#X obj 658 513 pdp_control;
#X msg 658 486 thread \$1;
#X floatatom 658 574 5 0 0 0 - - -;
#X obj 658 545 route pdp_drop;
#X text 231 627 pdp_text : text rendering in PDP;
#X text 232 641 written by Yves Degoyon (ydegoyon@free.fr);
#X msg 196 394 text %34%48%49:37:58%34 20 220;
#X msg 187 369 text "01:37:58" 230 220;
#X msg 181 340 text a%32hundred%32%% 120 128 255 0 0;
#X obj 214 435 hdl 15 1 0 10 empty empty empty 0 -6 0 8 -262144 -1
-1 0;
#X text 374 434 Select current text ( 10 items by default );
#X text 318 292 Add a simple text;
#X text 359 315 Add a text with special characters;
#X text 448 340 Add a real percent now ( but in red );
#X text 365 369 Have to put a quote (%34) before starting numbers;
#X text 419 394 This time \, it's real quotes ( tricky \, hey?? );
#X floatatom 229 461 5 0 0 0 - - -;
#X text 277 460 X coordinate;
#X floatatom 250 482 5 0 0 0 - - -;
#X floatatom 275 503 5 0 0 0 - - -;
#X floatatom 293 523 5 0 0 0 - - -;
#X floatatom 313 543 5 0 0 0 - - -;
#X text 298 481 Y coordinate;
#X text 323 502 R component;
#X text 341 522 G component;
#X text 361 542 B component;
#X msg 39 362 clear;
#X msg 40 397 delete 1;
#X msg 40 431 resize 20;
#X msg 40 499 font helmetr/14;
#X obj 165 608 pdp_text -----------------;
#X text 149 264 text <text> x y [ r g b angle ];
#X floatatom 341 564 5 0 0 0 - - -;
#X text 389 563 Angle;
#X msg 71 526 dither \$1;
#X floatatom 23 528 5 0 0 0 - - -;
#X floatatom 24 551 5 0 0 0 - - -;
#X msg 73 550 blend \$1;
#X floatatom 24 572 5 0 0 0 - - -;
#X msg 74 570 antialias \$1;
#X msg 39 468 font helmetr/5;
#X floatatom 364 582 5 0 0 0 - - -;
#X text 410 582 Scroll;
#X obj 390 604 hsl 128 15 0 1 0 0 empty empty empty -2 -6 0 8 -262144
-1 -1 0 1;
#X text 527 604 Alpha ( global );
#X msg 173 314 text on%32air!! 150 78;
#X obj 36 21 inlet;
#X symbolatom 131 134 10 0 0 0 - - -;
#X msg 154 292 text \$1 34 58;
#X obj 162 637 outlet;
#X obj 101 151 cnv 10 10 10 empty empty empty 20 12 0 14 -260097 -66577
0;
#X obj 101 101 cnv 10 10 10 empty empty empty 20 12 0 14 -260097 -66577
0;
#X connect 1 0 3 0;
#X connect 2 0 5 0;
#X connect 3 0 2 0;
#X connect 5 0 4 0;
#X connect 8 0 32 0;
#X connect 9 0 32 0;
#X connect 10 0 32 0;
#X connect 11 0 32 1;
#X connect 18 0 32 2;
#X connect 20 0 32 3;
#X connect 21 0 32 4;
#X connect 22 0 32 5;
#X connect 23 0 32 6;
#X connect 28 0 32 0;
#X connect 29 0 32 0;
#X connect 30 0 32 0;
#X connect 31 0 32 0;
#X connect 32 0 51 0;
#X connect 34 0 32 7;
#X connect 36 0 32 0;
#X connect 37 0 36 0;
#X connect 38 0 39 0;
#X connect 39 0 32 0;
#X connect 40 0 41 0;
#X connect 41 0 32 0;
#X connect 42 0 32 0;
#X connect 43 0 32 8;
#X connect 45 0 32 9;
#X connect 47 0 32 0;
#X connect 48 0 32 0;
#X connect 49 0 50 0;
#X connect 50 0 32 0;
#X coords 0 -1 1 1 102 62 1 100 100;
#X restore 353 43 pd text;
#N canvas 0 0 450 300 imgloader 0;
#X obj 218 125 pdp_imgloader;
#X obj 101 101 cnv 15 100 60 empty empty Img 20 12 0 54 -159808 -228856
0;
#X floatatom 241 74 5 0 0 0 - - -;
#X text 241 56 X Offset;
#X floatatom 299 74 5 0 0 0 - - -;
#X text 299 56 Y Offset;
#X obj 365 74 hsl 128 15 0 1 0 0 empty empty empty -2 -6 0 8 -262144
-1 -1 0 1;
#X text 364 57 Blending factor;
#X obj 196 -8 openpanel;
#X obj 112 113 bng 15 250 50 0 empty empty empty 0 -6 0 8 -262144 -1
-1;
#X msg 250 28 clear;
#X msg 196 16 load \$1 64 32;
#X obj 59 -13 inlet;
#X obj 59 202 outlet;
#X obj 101 101 cnv 10 10 10 empty empty empty 20 12 0 14 -260097 -66577
0;
#X obj 101 151 cnv 10 10 10 empty empty empty 20 12 0 14 -260097 -66577
0;
#X floatatom 136 125 3 0 0 0 - - -;
#X floatatom 156 135 3 0 0 0 - - -;
#X obj 129 152 hsl 64 8 0 1 0 0 empty empty empty -2 -8 0 10 -262144
-1 -1 0 1;
#X text 125 109 file;
#X text 161 124 X;
#X text 180 137 Y;
#X connect 0 0 13 0;
#X connect 2 0 0 1;
#X connect 4 0 0 2;
#X connect 6 0 0 3;
#X connect 8 0 11 0;
#X connect 9 0 8 0;
#X connect 10 0 0 0;
#X connect 11 0 0 0;
#X connect 12 0 0 0;
#X connect 16 0 2 0;
#X connect 17 0 4 0;
#X connect 18 0 6 0;
#X coords 0 -1 1 1 102 62 1 100 100;
#X restore 464 42 pd imgloader;
#N canvas 418 197 607 420 forms 0;
#X obj 203 107 hdl 15 1 0 10 empty empty empty 0 -6 0 8 -262144 -1
-1 0;
#X floatatom 221 133 5 0 0 0 - - -;
#X floatatom 237 157 5 0 0 0 - - -;
#X floatatom 280 224 5 0 0 0 - - -;
#X floatatom 298 244 5 0 0 0 - - -;
#X floatatom 318 264 5 0 0 0 - - -;
#X text 328 223 R component;
#X text 346 243 G component;
#X text 366 263 B component;
#X msg 43 97 clear;
#X msg 44 132 delete 1;
#X msg 44 166 resize 20;
#X text 363 106 Select current form ( 10 items by default );
#X text 266 132 X1 coordinate;
#X text 285 156 Y1 coordinate;
#X floatatom 250 179 5 0 0 0 - - -;
#X floatatom 258 201 5 0 0 0 - - -;
#X text 298 27 Add a line;
#X text 402 78 Add an ellipse;
#X msg 158 27 line 24 56 134 200;
#X text 391 50 Add a rectangle ( but in red );
#X text 295 178 X2 coordinate or ray for ellipse;
#X text 306 200 Y2 coordinate or ray for ellipse;
#X text 157 6 line|rectangle|ellipse x1 y1 x2|r y2|r [ r g b angle
];
#X msg 177 49 rectangle 56 45 123 78 255 0 0;
#X msg 193 78 ellipse 89 120 56 78 0 255 0;
#X obj 158 307 pdp_form -----------------;
#X obj 360 285 hsl 128 15 0 1 0 0 empty empty empty -2 -6 0 8 -262144
-1 -1 0 1;
#X text 501 285 alpha ( global );
#X obj 102 74 inlet;
#X obj 25 366 outlet;
#X obj 101 101 cnv 15 100 60 empty empty Ellipse 20 12 0 34 -183865
-66577 0;
#X obj 101 101 cnv 10 10 10 empty empty empty 20 12 0 14 -260097 -66577
0;
#X obj 101 152 cnv 10 10 10 empty empty empty 20 12 0 14 -260097 -66577
0;
#X obj 82 31 loadbang;
#X connect 0 0 26 1;
#X connect 1 0 26 2;
#X connect 2 0 26 3;
#X connect 3 0 26 6;
#X connect 4 0 26 7;
#X connect 5 0 26 8;
#X connect 9 0 26 0;
#X connect 10 0 26 0;
#X connect 11 0 26 0;
#X connect 15 0 26 4;
#X connect 16 0 26 5;
#X connect 19 0 26 0;
#X connect 24 0 26 0;
#X connect 25 0 26 0;
#X connect 26 0 30 0;
#X connect 27 0 26 9;
#X connect 29 0 26 0;
#X connect 34 0 25 0;
#X coords 0 -1 1 1 102 62 1 100 100;
#X restore 501 117 pd forms;
#X connect 5 0 4 0;
#X connect 5 1 4 1;
#X connect 5 2 4 2;
#X restore -11 -5 pd sources;
#N canvas 822 364 300 144 outputs 0;
#N canvas 0 0 450 300 glx 0;
#X obj 76 200 pdp_glx;
#X obj 101 101 cnv 15 100 60 empty empty GLX 20 12 0 54 -228856 -66577
0;
#X obj 100 100 cnv 15 15 15 empty empty empty 20 12 0 14 -260097 -66577
0;
#X obj 31 125 inlet;
#X connect 3 0 0 0;
#X coords 0 -1 1 1 102 62 1 100 100;
#X restore 19 -26 pd glx;
#X restore 139 -5 pd outputs;
#N canvas 624 358 450 300 controles 0;
#N canvas 0 0 450 300 midi 0;
#X restore 82 13 pd midi;
#N canvas 0 0 450 300 OSC 0;
#X restore 132 13 pd OSC;
#N canvas 0 0 450 300 NET 0;
#X restore 176 13 pd NET;
#N canvas 140 175 450 300 numbers 0;
#X obj 26 94 random;
#X obj 26 61 delay;
#X obj 26 31 metro;
#N canvas 0 0 588 555 random-counter 0;
#X floatatom 194 248 5 0 0 0 - - -;
#X obj 224 143 f;
#X obj 185 228 random 4;
#X obj 107 227 random 2;
#X floatatom 116 249 5 0 0 0 - - -;
#X obj 224 168 t b b f;
#X obj 107 283 sel 0 1;
#X obj 240 358 +;
#X obj 224 117 metro 100;
#X obj 224 95 tgl 15 0 empty empty empty 0 -6 0 8 -262144 -1 -1 0 1
;
#X obj 185 282 + 1;
#X floatatom 323 183 5 0 0 0 - - -;
#X obj 163 339 *;
#X msg 107 312 -1;
#X obj 323 113 moses 0;
#X obj 397 113 moses 100;
#X obj 323 137 * -1;
#X obj 474 116 * -1;
#X obj 474 141 + 200;
#X msg 141 312 1;
#X text 120 39 Random walk generator;
#X text 244 94 on/off;
#X text 379 182 output;
#X text 103 405 A random walk is a special case of a Markov chain \,
in which the states are integers and the transitions add or subtract
a small amount from the previous state to get a new one. Here the "f"
holds the state. When it gets a bang \, the previous state is added
to a random number (from 1 to 4) multiplied by a random sign (-1 or
1). The new value is then coerced into the range from 0 to 100;
#X text 116 265 sign;
#X text 194 264 magnitude;
#X text 284 343 add prev value;
#X text 281 360 to random increment;
#X text 337 60 coercion to range 0-100 \; if out of range \, reflect
;
#X text 336 90 us back in.;
#X text 404 522 updated for Pd version 0.37-1;
#X obj 336 278 outlet;
#X obj 101 101 cnv 15 105 60 empty empty rndWalk 20 12 0 28 -261234
-228856 0;
#X obj 101 151 cnv 10 10 10 empty empty empty 20 12 0 14 -260097 -66577
0;
#X floatatom 103 115 5 0 0 0 - - -;
#X floatatom 118 133 5 0 0 0 - - -;
#X obj 173 111 tgl 15 0 empty empty empty 17 7 0 10 -262144 -1 -1 0
1;
#X text 136 115 min;
#X text 155 135 max;
#X connect 1 0 5 0;
#X connect 2 0 0 0;
#X connect 2 0 10 0;
#X connect 3 0 4 0;
#X connect 3 0 6 0;
#X connect 5 0 3 0;
#X connect 5 1 2 0;
#X connect 5 2 7 1;
#X connect 6 0 13 0;
#X connect 6 1 19 0;
#X connect 7 0 14 0;
#X connect 8 0 1 0;
#X connect 9 0 8 0;
#X connect 10 0 12 1;
#X connect 11 0 1 1;
#X connect 12 0 7 0;
#X connect 13 0 12 0;
#X connect 14 0 16 0;
#X connect 14 1 15 0;
#X connect 15 0 11 0;
#X connect 15 1 17 0;
#X connect 16 0 11 0;
#X connect 17 0 18 0;
#X connect 18 0 11 0;
#X connect 19 0 12 0;
#X connect 34 0 14 1;
#X connect 35 0 15 1;
#X connect 36 0 9 0;
#X coords 0 -1 1 1 102 62 1 100 100;
#X restore 86 21 pd random-counter;
#X restore 14 13 pd numbers;
#X restore 205 -5 pd controles;
#N canvas 0 0 450 300 analisers 0;
#X obj 32 55 snapshot~;
#X obj 111 57 bonk~;
#X obj 169 56 filterbank~ 100 10000 12;
#X obj 315 78 fiddle~;
#X restore 283 -5 pd analisers;
#N canvas 393 26 634 471 background 0;
#X obj 122 176 bng 15 250 50 0 empty empty empty 20 8 0 8 -262144 -1
-1;
#X msg 83 175 stop;
#X obj 111 210 metro 70;
#X obj 320 507 tgl 15 0 empty empty empty 0 -6 0 8 -262144 -1 -1 0
1;
#X obj 320 559 pdp_control;
#X msg 320 532 thread \$1;
#X floatatom 320 620 5 0 0 0 - - -;
#X obj 320 591 route pdp_drop;
#X obj 157 284 pdp_background;
#X obj 128 325 pdp_convert image/YCrCb/*;
#X msg 53 210 bang;
#X floatatom 183 250 5 0 0 0 - - -;
#X text 190 235 Red;
#X floatatom 231 249 5 0 0 0 - - -;
#X floatatom 283 249 5 0 0 0 - - -;
#X text 231 234 Green;
#X text 285 233 Blue;
#X obj 34 369 outlet;
#X obj 265 139 inlet;
#X obj 201 144 inlet;
#X obj 146 140 inlet;
#X obj 1 1 cnv 15 100 22 empty empty bg_color 20 12 0 34 -261682 -66577
0;
#X obj 1 13 cnv 10 10 10 empty empty empty 20 12 0 14 -260097 -66577
0;
#X obj 64 5 tgl 15 0 empty empty empty 17 7 0 10 -262144 -1 -1 1 1
;
#X obj 66 78 sel 0 1;
#X connect 0 0 2 0;
#X connect 1 0 2 0;
#X connect 2 0 8 0;
#X connect 3 0 5 0;
#X connect 4 0 7 0;
#X connect 5 0 4 0;
#X connect 7 0 6 0;
#X connect 8 0 9 0;
#X connect 9 0 17 0;
#X connect 10 0 8 0;
#X connect 11 0 8 1;
#X connect 13 0 8 2;
#X connect 14 0 8 3;
#X connect 18 0 14 0;
#X connect 19 0 13 0;
#X connect 20 0 11 0;
#X connect 23 0 24 0;
#X connect 24 0 1 0;
#X connect 24 1 0 0;
#X coords 0 -1 1 1 102 24 1 0 0;
#X restore 71 77 pd background;
#X obj -13 27 pdp_colorgrid pdp_colorgrid1 256 0 256 50 0 50 0 1 1
10 10 82 44;
#N canvas 641 252 607 420 forms 0;
#X obj 233 107 hdl 15 1 0 10 empty empty empty 0 -6 0 8 -262144 -1
-1 0;
#X floatatom 251 133 5 0 0 0 - - -;
#X floatatom 267 157 5 0 0 0 - - -;
#X floatatom 310 224 5 0 0 0 - - -;
#X floatatom 328 244 5 0 0 0 - - -;
#X floatatom 348 264 5 0 0 0 - - -;
#X text 358 223 R component;
#X text 376 243 G component;
#X text 396 263 B component;
#X msg 43 97 clear;
#X msg 44 132 delete 1;
#X msg 44 166 resize 20;
#X text 393 106 Select current form ( 10 items by default );
#X text 296 132 X1 coordinate;
#X text 315 156 Y1 coordinate;
#X floatatom 280 179 5 0 0 0 - - -;
#X floatatom 288 201 5 0 0 0 - - -;
#X text 328 27 Add a line;
#X text 432 78 Add an ellipse;
#X msg 217 27 line 24 56 134 200;
#X text 421 50 Add a rectangle ( but in red );
#X text 325 178 X2 coordinate or ray for ellipse;
#X text 336 200 Y2 coordinate or ray for ellipse;
#X text 221 5 line|rectangle|ellipse x1 y1 x2|r y2|r [ r g b angle
];
#X msg 236 49 rectangle 56 45 123 78 255 0 0;
#X msg 252 78 ellipse 89 120 56 78 0 255 0;
#X obj 158 307 pdp_form -----------------;
#X obj 390 285 hsl 128 15 0 1 0 0 empty empty empty -2 -6 0 8 -262144
-1 -1 0 1;
#X text 501 285 alpha ( global );
#X obj 7 23 inlet;
#X obj 25 366 outlet;
#X obj 101 101 cnv 15 100 60 empty empty Ellipse 20 12 0 34 -183865
-66577 0;
#X obj 101 101 cnv 10 10 10 empty empty empty 20 12 0 14 -260097 -66577
0;
#X obj 101 152 cnv 10 10 10 empty empty empty 20 12 0 14 -260097 -66577
0;
#X obj 197 77 loadbang;
#X floatatom 114 120 5 0 0 0 - - -;
#X floatatom 114 137 5 0 0 0 - - -;
#X floatatom 148 121 5 0 0 0 - - -;
#X floatatom 148 137 5 0 0 0 - - -;
#X obj 46 25 inlet;
#X obj 84 25 inlet;
#X obj 126 25 inlet;
#X obj 164 25 inlet;
#X obj 128 101 cnv 10 10 10 empty empty empty 20 12 0 14 -260097 -66577
0;
#X obj 148 101 cnv 10 10 10 empty empty empty 20 12 0 14 -260097 -66577
0;
#X obj 168 101 cnv 10 10 10 empty empty empty 20 12 0 14 -260097 -66577
0;
#X obj 191 101 cnv 10 10 10 empty empty empty 20 12 0 14 -260097 -66577
0;
#X connect 0 0 26 1;
#X connect 1 0 26 2;
#X connect 2 0 26 3;
#X connect 3 0 26 6;
#X connect 4 0 26 7;
#X connect 5 0 26 8;
#X connect 9 0 26 0;
#X connect 10 0 26 0;
#X connect 11 0 26 0;
#X connect 15 0 26 4;
#X connect 16 0 26 5;
#X connect 19 0 26 0;
#X connect 24 0 26 0;
#X connect 25 0 26 0;
#X connect 26 0 30 0;
#X connect 27 0 26 9;
#X connect 29 0 26 0;
#X connect 34 0 25 0;
#X connect 35 0 1 0;
#X connect 36 0 15 0;
#X connect 37 0 2 0;
#X connect 38 0 16 0;
#X connect 39 0 35 0;
#X connect 40 0 37 0;
#X connect 41 0 36 0;
#X connect 42 0 38 0;
#X coords 0 -1 1 1 102 62 1 100 100;
#X restore 242 175 pd forms;
#N canvas 0 0 450 300 glx 0;
#X obj 76 200 pdp_glx;
#X obj 101 101 cnv 15 100 60 empty empty GLX 20 12 0 54 -228856 -66577
0;
#X obj 100 100 cnv 15 15 15 empty empty empty 20 12 0 14 -260097 -66577
0;
#X obj 31 125 inlet;
#X connect 3 0 0 0;
#X coords 0 -1 1 1 102 62 1 100 100;
#X restore 221 276 pd glx;
#N canvas 0 0 588 555 random-counter 0;
#X floatatom 194 248 5 0 0 0 - - -;
#X obj 224 143 f;
#X obj 185 228 random 4;
#X obj 107 227 random 2;
#X floatatom 116 249 5 0 0 0 - - -;
#X obj 224 168 t b b f;
#X obj 107 283 sel 0 1;
#X obj 240 358 +;
#X obj 224 117 metro 100;
#X obj 224 95 tgl 15 0 empty empty empty 0 -6 0 8 -262144 -1 -1 1 1
;
#X obj 185 282 + 1;
#X floatatom 323 183 5 0 0 0 - - -;
#X obj 163 339 *;
#X msg 107 312 -1;
#X obj 323 113 moses 0;
#X obj 397 113 moses 100;
#X obj 323 137 * -1;
#X obj 474 116 * -1;
#X obj 474 141 + 200;
#X msg 141 312 1;
#X text 120 39 Random walk generator;
#X text 244 94 on/off;
#X text 379 182 output;
#X text 103 405 A random walk is a special case of a Markov chain \,
in which the states are integers and the transitions add or subtract
a small amount from the previous state to get a new one. Here the "f"
holds the state. When it gets a bang \, the previous state is added
to a random number (from 1 to 4) multiplied by a random sign (-1 or
1). The new value is then coerced into the range from 0 to 100;
#X text 116 265 sign;
#X text 194 264 magnitude;
#X text 284 343 add prev value;
#X text 281 360 to random increment;
#X text 337 60 coercion to range 0-100 \; if out of range \, reflect
;
#X text 336 90 us back in.;
#X text 404 522 updated for Pd version 0.37-1;
#X obj 336 278 outlet;
#X obj 101 101 cnv 15 102 60 empty empty rndWalk 20 12 0 28 -261234
-228856 0;
#X obj 101 151 cnv 10 10 10 empty empty empty 20 12 0 14 -260097 -66577
0;
#X floatatom 103 115 5 0 0 0 - - -;
#X floatatom 118 133 5 0 0 0 - - -;
#X obj 173 111 tgl 15 0 empty empty empty 17 7 0 10 -262144 -1 -1 1
1;
#X text 136 115 min;
#X text 155 135 max;
#X floatatom 178 132 3 0 0 0 - - -;
#X connect 1 0 5 0;
#X connect 2 0 0 0;
#X connect 2 0 10 0;
#X connect 3 0 4 0;
#X connect 3 0 6 0;
#X connect 5 0 3 0;
#X connect 5 1 2 0;
#X connect 5 2 7 1;
#X connect 6 0 13 0;
#X connect 6 1 19 0;
#X connect 7 0 14 0;
#X connect 8 0 1 0;
#X connect 9 0 8 0;
#X connect 10 0 12 1;
#X connect 11 0 1 1;
#X connect 11 0 31 0;
#X connect 12 0 7 0;
#X connect 13 0 12 0;
#X connect 14 0 16 0;
#X connect 14 1 15 0;
#X connect 15 0 11 0;
#X connect 15 1 17 0;
#X connect 16 0 11 0;
#X connect 17 0 18 0;
#X connect 18 0 11 0;
#X connect 19 0 12 0;
#X connect 34 0 14 1;
#X connect 35 0 15 1;
#X connect 36 0 9 0;
#X connect 39 0 8 1;
#X coords 0 -1 1 1 102 62 1 100 100;
#X restore 374 55 pd random-counter;
#X connect 5 0 7 0;
#X connect 6 0 5 0;
#X connect 6 1 5 1;
#X connect 6 2 5 2;
#X connect 7 0 8 0;
#X connect 9 0 7 1;
#X connect 9 0 7 2;
#X connect 9 0 6 0;
#X connect 9 0 5 1;
