#N canvas 189 158 450 337 10;
#X obj 80 81 sel 1;
#X obj 75 179 s click;
#X obj 46 45 r por_abrir;
#X obj 62 112 spigot 0;
#X msg 48 69 1;
#X obj 62 144 t b b b b;
#X msg 62 210 0;
#X msg 150 84 capture \$1;
#X obj 150 27 tgl 25 0 empty empty empty 0 -6 0 8 -262144 -1 -1 1 1
;
#X obj 257 123 bng 18 750 50 0 empty empty banged_on_window_creation
20 8 1 9 -262144 -1 -1;
#X obj 221 143 prepend set;
#X msg 221 162 motion 636 176 0;
#X obj 221 300 s mouseXY;
#X obj 138 147 tgl 15 0 empty empty empty 17 7 0 10 -262144 -1 -1 0
40;
#X obj 360 60 memento-help;
#N canvas 712 178 450 519 por_abrir 1;
#X msg 47 77 set \$1;
#X msg 37 107 xv;
#X obj 105 91 r mouseXY;
#X obj 22 33 r click;
#X obj 105 112 unpack 0 0;
#X obj 37 143 pack s 0 0;
#X obj 134 170 print;
#X msg 37 196 obj \$2 \$3 ./subpatxes/\$1;
#X obj 37 54 r por_abrir;
#X obj 37 231 s pd-purefx.pd;
#X obj 201 463 s pd-purefx.pd;
#X msg 227 96 obj 140 10 ./subpatxes/\$1;
#X msg 201 23 symbol POP-sources;
#X msg 237 146 obj 270 10 ./subpatxes/\$1;
#X msg 257 246 obj 530 10 ./subpatxes/\$1;
#X msg 201 45 obj 10 10 ./subpatxes/\$1;
#X msg 249 196 obj 400 10 ./subpatxes/\$1;
#X msg 227 72 symbol POP-effecTV;
#X msg 237 124 symbol POP-freeframe;
#X msg 249 173 symbol POP-videoOUTs;
#X obj 138 14 bng 15 250 50 0 empty empty empty 17 7 0 10 -262144 -1
-1;
#X msg 267 296 obj 660 10 ./subpatxes/\$1;
#X msg 257 224 symbol POP-analisers;
#X msg 277 324 symbol POP-bridges;
#X msg 277 346 obj 790 10 ./subpatxes/\$1;
#X msg 267 274 symbol POP-V-analisers;
#X msg 287 374 symbol POP-GL;
#X msg 287 396 obj 920 10 ./subpatxes/\$1;
#X msg 297 424 symbol POP-pix;
#X msg 297 446 obj 1050 10 ./subpatxes/\$1;
#X connect 0 0 1 0;
#X connect 1 0 5 0;
#X connect 2 0 4 0;
#X connect 3 0 1 0;
#X connect 4 0 5 1;
#X connect 4 1 5 2;
#X connect 5 0 6 0;
#X connect 5 0 7 0;
#X connect 7 0 9 0;
#X connect 8 0 0 0;
#X connect 11 0 10 0;
#X connect 12 0 15 0;
#X connect 13 0 10 0;
#X connect 14 0 10 0;
#X connect 15 0 10 0;
#X connect 16 0 10 0;
#X connect 17 0 11 0;
#X connect 18 0 13 0;
#X connect 19 0 16 0;
#X connect 20 0 12 0;
#X connect 20 0 17 0;
#X connect 20 0 18 0;
#X connect 20 0 19 0;
#X connect 20 0 22 0;
#X connect 20 0 25 0;
#X connect 20 0 23 0;
#X connect 20 0 26 0;
#X connect 20 0 28 0;
#X connect 21 0 10 0;
#X connect 22 0 14 0;
#X connect 23 0 24 0;
#X connect 24 0 10 0;
#X connect 25 0 21 0;
#X connect 26 0 27 0;
#X connect 27 0 10 0;
#X connect 28 0 29 0;
#X connect 29 0 10 0;
#X restore 29 311 pd por_abrir;
#X obj 213 26 loadbang;
#X obj 121 266 sel motion;
#X obj 122 289 print f;
#X obj 156 206 sel motion;
#X obj 156 224 bng 15 250 50 0 empty empty empty 17 7 0 10 -262144
-1 -1;
#X obj 221 281 pack 0 0;
#X obj 221 247 spigot;
#X obj 266 247 spigot;
#X obj 203 232 tgl 15 0 empty empty empty 17 7 0 10 -262144 -1 -1 1
1;
#X obj 220 189 unpack s 0 0 0 0;
#X obj 14 70 bng 15 250 50 0 empty empty empty 17 7 0 10 -262144 -1
-1;
#X obj 150 103 tot purefx.pd;
#X msg 217 52 \; pd-purefx.pd vis \$1;
#X connect 0 0 3 0;
#X connect 2 0 4 0;
#X connect 2 0 26 0;
#X connect 3 0 5 0;
#X connect 4 0 3 1;
#X connect 5 0 6 0;
#X connect 5 1 1 0;
#X connect 6 0 3 1;
#X connect 7 0 27 0;
#X connect 8 0 7 0;
#X connect 8 0 28 0;
#X connect 10 0 11 0;
#X connect 13 0 0 0;
#X connect 16 0 8 0;
#X connect 17 0 18 0;
#X connect 19 0 20 0;
#X connect 20 0 24 0;
#X connect 21 0 12 0;
#X connect 22 0 21 0;
#X connect 23 0 21 1;
#X connect 24 0 22 1;
#X connect 24 0 23 1;
#X connect 25 0 19 0;
#X connect 25 1 22 0;
#X connect 25 2 23 0;
#X connect 25 3 13 0;
#X connect 27 2 10 0;
#X connect 27 2 25 0;
#X connect 27 3 9 0;
#X coords 0 0 1 1 85 60 0;
