#N canvas 134 27 902 690 10;
#N canvas 577 327 450 411 gui-core 1;
#X obj 90 51 sel 1;
#X obj 85 149 s click;
#X obj 56 15 r por_abrir;
#X obj 73 74 spigot 0;
#X msg 58 39 1;
#X obj 72 114 t b b b b;
#X msg 72 180 0;
#X msg 160 54 capture \$1;
#X obj 160 -3 tgl 25 0 empty empty empty 0 -6 0 8 -262144 -1 -1 1 1
;
#X obj 267 93 bng 18 750 50 0 empty empty banged_on_window_creation
20 8 1 9 -262144 -1 -1;
#X obj 231 113 prepend set;
#X msg 231 132 menusave;
#X obj 231 270 s mouseXY;
#X obj 148 117 tgl 15 0 empty empty empty 17 7 0 10 -262144 -1 -1 0
1;
#X obj 370 30 memento-help;
#N canvas 628 169 450 300 por_abrir 1;
#X msg 47 77 set \$1;
#X msg 47 107 plasma;
#X obj 115 91 r mouseXY;
#X obj 22 33 r click;
#X obj 115 112 unpack 0 0;
#X obj 47 143 pack s 0 0;
#X obj 144 170 print;
#X msg 47 196 obj \$2 \$3 ./subpatxes/\$1;
#X obj 47 54 r por_abrir;
#X obj 47 231 s pd-purefx.pd;
#X obj 217 231 s pd-purefx.pd;
#X msg 217 46 obj 10 10 ./subpatxes/\$1;
#X msg 217 24 symbol POP-effects;
#X msg 237 124 symbol POP-bridges;
#X msg 227 96 obj 140 10 ./subpatxes/\$1;
#X msg 227 74 symbol POP-gui;
#X msg 247 174 symbol POP-sources;
#X msg 237 146 obj 270 10 ./subpatxes/\$1;
#X msg 247 196 obj 400 10 ./subpatxes/\$1;
#X connect 0 0 1 0;
#X connect 1 0 5 0;
#X connect 2 0 4 0;
#X connect 3 0 1 0;
#X connect 4 0 5 1;
#X connect 4 1 5 2;
#X connect 5 0 6 0;
#X connect 5 0 7 0;
#X connect 7 0 9 0;
#X connect 8 0 0 0;
#X connect 11 0 10 0;
#X connect 12 0 11 0;
#X connect 13 0 17 0;
#X connect 14 0 10 0;
#X connect 15 0 14 0;
#X connect 16 0 18 0;
#X connect 17 0 10 0;
#X connect 18 0 10 0;
#X restore 39 281 pd por_abrir;
#X obj 223 -4 loadbang;
#X obj 131 236 sel motion;
#X obj 132 259 print f;
#X obj 166 176 sel motion;
#X obj 166 194 bng 15 250 50 0 empty empty empty 17 7 0 10 -262144
-1 -1;
#X obj 231 251 pack 0 0;
#X obj 231 217 spigot;
#X obj 276 217 spigot;
#X obj 213 202 tgl 15 0 empty empty empty 17 7 0 10 -262144 -1 -1 0
1;
#X obj 230 159 unpack s 0 0 0 0;
#X obj 24 40 bng 15 250 50 0 empty empty empty 17 7 0 10 -262144 -1
-1;
#X obj 160 73 tot purefx.pd;
#X msg 171 23 \; pd-purefx.pd vis \$1;
#X connect 0 0 3 0;
#X connect 2 0 4 0;
#X connect 2 0 26 0;
#X connect 3 0 5 0;
#X connect 4 0 3 1;
#X connect 5 0 6 0;
#X connect 5 1 1 0;
#X connect 6 0 3 1;
#X connect 7 0 27 0;
#X connect 8 0 7 0;
#X connect 8 0 28 0;
#X connect 10 0 11 0;
#X connect 13 0 0 0;
#X connect 16 0 8 0;
#X connect 17 0 18 0;
#X connect 19 0 20 0;
#X connect 20 0 24 0;
#X connect 21 0 12 0;
#X connect 22 0 21 0;
#X connect 23 0 21 1;
#X connect 24 0 22 1;
#X connect 24 0 23 1;
#X connect 25 0 19 0;
#X connect 25 1 22 0;
#X connect 25 2 23 0;
#X connect 25 3 13 0;
#X connect 27 2 10 0;
#X connect 27 2 25 0;
#X connect 27 3 9 0;
#X restore 353 652 pd gui-core;
#X obj 0 1 cnv 15 1000 650 empty empty empty 20 12 0 14 -66577 -66577
0;
#X obj 100 51 cnv 15 800 600 empty empty empty 20 12 0 14 -33289 -66577
0;
