#N canvas 0 25 1005 506 10;
#X obj 1 0 cnv 15 1280 800 empty empty empty 20 12 0 14 -577 -66577
0;
#X obj 220 11 ./subpatxes/GEM-head;
#X obj 423 47 ./subpatxes/GEM-win;
#X obj 307 213 ./subpatxes/contador;
#X obj 202 102 ./subpatxes/GEM-pix_film;
#X obj 160 275 ./subpatxes/GEM-ff-BackLight;
#X obj 370 123 ./subpatxes/bonk;
#X obj 301 337 ./subpatxes/GEM-cube;
#X obj 178 184 ./subpatxes/GEM-rotateXYZ;
#X obj 10 15 ./subpatxes/POP-sources;
#X obj 10 45 ./subpatxes/POP-effecTV;
#X obj 10 75 ./subpatxes/POP-freeframe;
#X obj 10 105 ./subpatxes/POP-videoOUTs;
#X obj 10 135 ./subpatxes/POP-analisers;
#X obj 10 165 ./subpatxes/POP-V-analisers;
#X obj 10 195 ./subpatxes/POP-bridges;
#X obj 10 225 ./subpatxes/POP-GL;
#X obj 10 255 ./subpatxes/POP-pix;
#X obj 10 285 ./subpatxes/POP-mixers;
#X obj 10 315 ./subpatxes/POP-GEM-head;
#X obj 10 345 ./subpatxes/POP-GEM-pix_freeframe;
#X obj 10 375 ./subpatxes/POP-interface;
#X obj 710 226 ./subpatxes/GEM-ff-BackDropKey;
#X obj 619 93 ./subpatxes/colorgrid;
#X obj 518 291 ./subpatxes/GEM-head;
#X obj 546 216 ./subpatxes/GEM-win;
#X obj 727 338 ./subpatxes/playlist;
#X obj 453 291 ./subpatxes/playlist;
#X connect 1 0 4 0;
#X connect 3 0 5 1;
#X connect 3 0 8 2;
#X connect 4 0 8 0;
#X connect 5 0 7 0;
#X connect 6 0 3 0;
#X connect 8 0 5 0;
#X connect 27 0 4 1;
