#N canvas 58 140 450 300 10;
#X obj 101 101 cnv 15 100 60 empty empty Aging 20 30 0 42 -259648 -203904
0;
#X obj 119 54 inlet;
#X obj 169 54 inlet;
#X obj 72 54 inlet;
#X obj 72 192 outlet;
#X floatatom 106 110 3 0 0 0 - - -;
#X floatatom 110 138 3 0 0 0 - - -;
#X obj 88 167 pdp_aging;
#X obj 101 101 cnv 10 10 10 empty empty empty 20 12 0 14 -260097 -66577
0;
#X obj 147 101 cnv 10 10 10 empty empty empty 20 12 0 14 -260097 -66577
0;
#X obj 191 101 cnv 10 10 10 empty empty empty 20 12 0 14 -260097 -66577
0;
#X obj 101 151 cnv 10 10 10 empty empty empty 20 12 0 14 -260097 -66577
0;
#X text 133 145 scratches;
#X text 136 112 Dust;
#X connect 1 0 5 0;
#X connect 2 0 6 0;
#X connect 3 0 7 0;
#X connect 5 0 7 1;
#X connect 6 0 7 2;
#X connect 7 0 4 0;
#X coords 0 -1 1 1 102 62 1 100 100;
