#N canvas 0 0 450 300 10;
#X obj 10 190 pdp_ascii;
#X obj 10 122 inlet;
#X obj 101 101 cnv 15 100 60 empty empty ASCii 20 30 0 42 -204786 -203904
0;
#X obj 192 100 cnv 10 10 10 empty empty empty 20 12 0 14 -260097 -66577
0;
#X obj 100 100 cnv 10 10 10 empty empty empty 20 12 0 14 -260097 -66577
0;
#X obj 130 100 cnv 10 10 10 empty empty empty 20 12 0 14 -260097 -66577
0;
#X obj 160 100 cnv 10 10 10 empty empty empty 20 12 0 14 -260097 -66577
0;
#X msg 112 197 color \$1;
#X obj 107 108 tgl 15 0 empty empty empty 0 -6 0 8 -262144 -1 -1 0
1;
#X msg 112 222 brightness \$1;
#X floatatom 107 126 3 0 0 0 - - -;
#X floatatom 107 143 3 0 0 0 - - -;
#X text 121 111 colors;
#X text 131 129 bright;
#X text 129 144 char size;
#X obj 100 152 cnv 10 10 10 empty empty empty 20 12 0 14 -260097 -66577
0;
#X obj 38 266 outlet;
#X connect 0 0 16 0;
#X connect 1 0 0 0;
#X connect 7 0 0 0;
#X connect 8 0 7 0;
#X connect 9 0 0 0;
#X connect 10 0 9 0;
#X connect 11 0 0 1;
#X coords 0 -1 1 1 102 62 1 100 100;
