#N canvas 0 0 450 300 10;
#X obj 14 224 pdp_binary;
#X obj 14 8 inlet;
#X obj 14 257 outlet;
#X obj 101 101 cnv 15 100 60 empty empty Binary 20 30 0 42 -261233
-203904 0;
#X obj 158 100 cnv 10 10 10 empty empty empty 20 12 0 14 -260097 -66577
0;
#X obj 100 100 cnv 10 10 10 empty empty empty 20 12 0 14 -260097 -66577
0;
#X obj 120 100 cnv 10 10 10 empty empty empty 20 12 0 14 -260097 -66577
0;
#X obj 140 100 cnv 10 10 10 empty empty empty 20 12 0 14 -260097 -66577
0;
#X obj 100 152 cnv 10 10 10 empty empty empty 20 12 0 14 -260097 -66577
0;
#X floatatom 103 118 3 0 0 0 - - -;
#X floatatom 124 118 3 0 0 0 - - -;
#X floatatom 145 119 3 0 0 0 - - -;
#X floatatom 103 136 3 0 0 0 - - -;
#X floatatom 128 136 3 0 0 0 - - -;
#X text 282 221 X coordinate of cursor ( pick );
#X text 291 246 Y coordinate of cursor ( pick );
#X floatatom 168 137 3 0 0 0 - - -;
#X text 302 269 Tolerance ( default = 55 );
#X obj 192 100 cnv 10 10 10 empty empty empty 20 12 0 14 -260097 -66577
0;
#X obj 176 100 cnv 10 10 10 empty empty empty 20 12 0 14 -260097 -66577
0;
#X obj 60 9 inlet;
#X obj 105 10 inlet;
#X obj 151 10 inlet;
#X obj 195 10 inlet;
#X obj 241 10 inlet;
#X obj 291 10 inlet;
#X text 164 118 Y;
#X text 172 118 U;
#X text 179 118 V;
#X text 150 131 xy;
#X text 187 137 T;
#X obj 131 152 cnv 10 10 10 empty empty empty 20 12 0 14 -260097 -66577
0;
#X obj 161 152 cnv 10 10 10 empty empty empty 20 12 0 14 -260097 -66577
0;
#X obj 192 152 cnv 10 10 10 empty empty empty 20 12 0 14 -260097 -66577
0;
#X obj 102 260 outlet;
#X obj 112 270 outlet;
#X obj 122 280 outlet;
#X connect 0 0 2 0;
#X connect 0 1 34 0;
#X connect 0 2 35 0;
#X connect 0 3 36 0;
#X connect 1 0 0 0;
#X connect 9 0 0 1;
#X connect 10 0 0 2;
#X connect 11 0 0 3;
#X connect 12 0 0 4;
#X connect 13 0 0 5;
#X connect 16 0 0 5;
#X connect 20 0 9 0;
#X connect 21 0 10 0;
#X connect 22 0 11 0;
#X connect 23 0 12 0;
#X connect 24 0 13 0;
#X connect 25 0 16 0;
#X coords 0 -1 1 1 102 62 1 100 100;
