#N canvas 0 0 450 300 10;
#X obj 102 171 outlet;
#X obj 226 187 outlet;
#X obj 351 182 outlet;
#X obj 102 102 cnv 50 50 50 empty empty empty 20 12 0 14 -258113 -66577
0;
#X obj 153 102 cnv 50 50 50 empty empty empty 20 12 0 14 -257985 -66577
0;
#X obj 204 102 cnv 50 50 50 empty empty empty 20 12 0 14 -4034 -66577
0;
#X obj 255 102 cnv 50 50 50 empty empty empty 20 12 0 14 -4160 -66577
0;
#X obj 306 102 cnv 50 50 50 empty empty empty 20 12 0 14 -159808 -66577
0;
#X obj 102 102 colorgrid colorgrid1 256 0 256 50 0 50 0 1 1 10 10 199
123;
#X connect 8 0 0 0;
#X connect 8 1 1 0;
#X connect 8 2 2 0;
#X coords 0 -1 1 1 259 54 1 100 100;
