#N canvas 777 213 450 300 10;
#X obj 222 276 bng 15 250 50 0 empty empty empty 20 8 0 8 -262144 -1
-1;
#X msg 183 275 stop;
#X obj 211 310 metro 70;
#X obj 420 607 tgl 15 0 empty empty empty 0 -6 0 8 -262144 -1 -1 0
1;
#X obj 420 659 pdp_control;
#X msg 420 632 thread \$1;
#X floatatom 420 720 5 0 0 0 - - -;
#X obj 420 691 route pdp_drop;
#X obj 257 384 pdp_background;
#X obj 228 425 pdp_convert image/YCrCb/*;
#X msg 153 310 bang;
#X floatatom 283 350 5 0 0 0 - - -;
#X text 290 335 Red;
#X floatatom 331 349 5 0 0 0 - - -;
#X floatatom 383 349 5 0 0 0 - - -;
#X text 331 334 Green;
#X text 385 333 Blue;
#X obj 134 469 outlet;
#X obj 365 239 inlet;
#X obj 301 244 inlet;
#X obj 246 240 inlet;
#X obj 101 101 cnv 15 100 22 empty empty bg_color 20 12 0 34 -1 -66577
0;
#X obj 101 113 cnv 10 10 10 empty empty empty 20 12 0 14 -260097 -66577
0;
#X obj 164 105 tgl 15 0 empty empty empty 17 7 0 10 -262144 -1 -1 0
1;
#X obj 166 178 sel 0 1;
#X connect 0 0 2 0;
#X connect 1 0 2 0;
#X connect 2 0 8 0;
#X connect 3 0 5 0;
#X connect 4 0 7 0;
#X connect 5 0 4 0;
#X connect 7 0 6 0;
#X connect 8 0 9 0;
#X connect 9 0 17 0;
#X connect 10 0 8 0;
#X connect 11 0 8 1;
#X connect 13 0 8 2;
#X connect 14 0 8 3;
#X connect 18 0 14 0;
#X connect 19 0 13 0;
#X connect 20 0 11 0;
#X connect 23 0 24 0;
#X connect 24 0 1 0;
#X connect 24 1 0 0;
#X coords 0 -1 1 1 102 24 1 100 100;
