#N canvas 198 213 450 300 10;
#X obj 220 122 metro 10;
#X obj 220 178 + 1;
#X obj 220 148 f;
#X msg 220 42 bang;
#X obj 101 101 cnv 15 100 60 empty empty empty 20 12 0 14 -4034 -66577
0;
#X obj 102 107 tgl 15 0 empty empty empty 0 -6 0 8 -262144 -1 -1 3.64905
3.64905;
#X floatatom 116 142 5 0 0 0 - - -;
#X obj 105 127 hsl 60 10 0 4000 0 0 empty empty empty -2 -8 0 10 -262144
-1 -1 4703 1;
#X obj 66 195 outlet;
#X obj 101 151 cnv 10 10 10 empty empty empty 20 12 0 14 -260097 -66577
0;
#X obj 155 106 bng 15 250 50 0 empty empty empty 17 7 0 10 -262144
-1 -1;
#X msg 177 67 0;
#X text 170 103 reset;
#X text 116 104 on/off;
#X floatatom 172 141 3 0 0 0 - - -;
#X obj 105 61 inlet;
#X connect 0 0 2 0;
#X connect 1 0 2 1;
#X connect 1 0 6 0;
#X connect 2 0 1 0;
#X connect 3 0 0 0;
#X connect 5 0 0 0;
#X connect 6 0 8 0;
#X connect 7 0 0 1;
#X connect 10 0 11 0;
#X connect 11 0 2 0;
#X connect 11 0 6 0;
#X connect 14 0 7 0;
#X connect 15 0 5 0;
#X coords 0 -1 1 1 102 62 2 100 100;
