#N canvas 0 0 450 300 10;
#X floatatom 117 176 5 0 0 0 - - -;
#X floatatom 74 267 5 0 0 0 - - -;
#X obj 30 296 pdp_mix;
#X msg 74 243 0.5;
#X obj 52 207 pdp_del 50;
#X obj 30 120 inlet;
#X floatatom 147 265 5 0 0 0 - - -;
#X floatatom 104 356 5 0 0 0 - - -;
#X obj 60 385 pdp_mix;
#X msg 104 332 0.5;
#X obj 82 296 pdp_del 50;
#X floatatom 247 176 5 0 0 0 - - -;
#X floatatom 204 267 5 0 0 0 - - -;
#X obj 160 296 pdp_mix;
#X msg 204 243 0.5;
#X obj 182 207 pdp_del 50;
#X floatatom 277 265 5 0 0 0 - - -;
#X floatatom 234 356 5 0 0 0 - - -;
#X obj 190 385 pdp_mix;
#X msg 234 332 0.5;
#X obj 212 296 pdp_del 50;
#X floatatom 377 176 5 0 0 0 - - -;
#X floatatom 334 267 5 0 0 0 - - -;
#X msg 334 243 0.5;
#X obj 312 207 pdp_del 50;
#X floatatom 407 265 5 0 0 0 - - -;
#X floatatom 364 356 5 0 0 0 - - -;
#X obj 320 385 pdp_mix;
#X msg 364 332 0.5;
#X obj 342 296 pdp_del 50;
#X obj 406 402 outlet;
#X obj 101 101 cnv 15 100 60 empty empty Delay6 20 30 0 48 -223317
-228856 0;
#X obj 101 151 cnv 10 10 10 empty empty empty 20 12 0 14 -260097 -66577
0;
#X obj 101 101 cnv 10 10 10 empty empty empty 20 12 0 14 -260097 -66577
0;
#X obj 290 296 pdp_mix;
#X obj 418 368 pdp_mix;
#X obj 119 117 hsl 64 8 0 1 0 0 empty empty empty -2 -8 0 10 -262144
-1 -1 0 1;
#X connect 0 0 4 1;
#X connect 1 0 2 2;
#X connect 2 0 10 0;
#X connect 2 0 8 0;
#X connect 3 0 1 0;
#X connect 4 0 2 1;
#X connect 5 0 2 0;
#X connect 5 0 4 0;
#X connect 5 0 35 0;
#X connect 6 0 10 1;
#X connect 7 0 8 2;
#X connect 8 0 15 0;
#X connect 8 0 13 0;
#X connect 9 0 7 0;
#X connect 10 0 8 1;
#X connect 11 0 15 1;
#X connect 12 0 13 2;
#X connect 13 0 20 0;
#X connect 13 0 18 0;
#X connect 14 0 12 0;
#X connect 15 0 13 1;
#X connect 16 0 20 1;
#X connect 17 0 18 2;
#X connect 18 0 24 0;
#X connect 18 0 34 0;
#X connect 19 0 17 0;
#X connect 20 0 18 1;
#X connect 21 0 24 1;
#X connect 22 0 34 2;
#X connect 23 0 22 0;
#X connect 24 0 34 1;
#X connect 25 0 29 1;
#X connect 26 0 27 2;
#X connect 27 0 35 1;
#X connect 28 0 26 0;
#X connect 29 0 27 1;
#X connect 34 0 29 0;
#X connect 34 0 27 0;
#X connect 35 0 30 0;
#X connect 36 0 35 2;
#X coords 0 -1 1 1 102 62 1 100 100;
