#N canvas 0 0 450 300 10;
#X obj 101 101 cnv 15 100 60 empty empty Dilate 20 30 0 42 -261234
-203904 0;
#X obj 192 100 cnv 10 10 10 empty empty empty 20 12 0 14 -260097 -66577
0;
#X obj 100 100 cnv 10 10 10 empty empty empty 20 12 0 14 -260097 -66577
0;
#X obj 130 100 cnv 10 10 10 empty empty empty 20 12 0 14 -260097 -66577
0;
#X obj 160 100 cnv 10 10 10 empty empty empty 20 12 0 14 -260097 -66577
0;
#X obj 101 151 cnv 10 10 10 empty empty empty 20 12 0 14 -260097 -66577
0;
#X obj 24 158 pdp_dilate;
#X floatatom 108 111 3 0 0 0 - - -;
#X floatatom 119 127 3 0 0 0 - - -;
#X floatatom 130 144 3 0 0 0 - - -;
#X text 133 110 passes 1;
#X msg 256 41 1;
#X msg 269 96 3;
#X msg 243 68 3;
#X obj 40 37 inlet;
#X obj 108 27 inlet;
#X obj 119 47 inlet;
#X obj 130 67 inlet;
#X obj 39 216 outlet;
#X text 146 126 width;
#X text 155 142 height;
#X connect 6 0 18 0;
#X connect 7 0 6 1;
#X connect 8 0 6 2;
#X connect 9 0 6 3;
#X connect 11 0 7 0;
#X connect 12 0 9 0;
#X connect 13 0 8 0;
#X connect 14 0 6 0;
#X connect 15 0 7 0;
#X connect 16 0 8 0;
#X connect 17 0 9 0;
#X coords 0 -1 1 1 102 62 1 100 100;
