#N canvas 387 49 1272 711 10;
#X obj 63 257 pdp_freeframe;
#X floatatom 354 57 5 0 0 0 - - -;
#X obj 22 195 pdp_scale 320 240;
#X obj 402 32 hradio 15 1 0 44 empty empty empty 0 -6 0 8 -262144 -1
-1 42;
#X obj 411 158 hsl 128 15 0 1 0 0 empty vparam3 empty -2 -6 0 8 -262144
-1 -1 150 1;
#X obj 551 158 hsl 128 15 0 1 0 0 empty vparam4 empty -2 -6 0 8 -262144
-1 -1 12573 1;
#X obj 691 158 hsl 128 15 0 1 0 0 empty vparam5 empty -2 -6 0 8 -262144
-1 -1 6350 1;
#X msg 408 178 param 3 \$1;
#X msg 548 177 param 4 \$1;
#X msg 689 177 param 5 \$1;
#X text 404 12 Select the plugin;
#X text 408 59 Adjust plugin parameters.;
#X symbolatom 116 418 20 0 0 0 - - -;
#X text 269 418 <-- plugin name;
#X floatatom 135 396 5 0 0 0 - - -;
#X text 183 394 <-- number of parameters;
#X text 234 368 <-- parameter name;
#X text 261 340 <-- parameter type;
#X text 277 311 <-- parameter default;
#X obj 413 99 hsl 128 15 0 1 0 0 empty vparam0 empty -2 -6 0 8 -262144
-1 -1 806 1;
#X obj 551 99 hsl 128 15 0 1 0 0 empty vparam1 empty -2 -6 0 8 -262144
-1 -1 700 1;
#X obj 692 99 hsl 128 15 0 1 0 0 empty vparam2 empty -2 -6 0 8 -262144
-1 -1 0 1;
#X obj 411 221 hsl 128 15 0 1 0 0 empty vparam6 empty -2 -6 0 8 -262144
-1 -1 0 1;
#X obj 552 221 hsl 128 15 0 1 0 0 empty vparam7 empty -2 -6 0 8 -262144
-1 -1 0 1;
#X obj 694 221 hsl 128 15 0 1 0 0 empty vparam8 empty -2 -6 0 8 -262144
-1 -1 0 1;
#X msg 410 118 param 0 \$1;
#X msg 548 118 param 1 \$1;
#X msg 689 118 param 2 \$1;
#X msg 410 241 param 6 \$1;
#X msg 549 240 param 7 \$1;
#X msg 691 240 param 8 \$1;
#N canvas 0 0 996 665 pname 0;
#X obj 51 119 l2s;
#X obj 80 119 l2s;
#X obj 111 119 l2s;
#X obj 143 119 l2s;
#X obj 207 120 l2s;
#X obj 236 120 l2s;
#X obj 267 120 l2s;
#X obj 298 119 l2s;
#X obj 97 86 route 0 1 2 3 4 5 6 7 8;
#X obj 327 119 l2s;
#X obj 97 51 inlet;
#X obj 51 154 s ffparam0;
#X obj 79 178 s ffparam1;
#X obj 118 205 s ffparam2;
#X obj 148 227 s ffparam3;
#X obj 185 157 s ffparam4;
#X obj 213 181 s ffparam5;
#X obj 255 206 s ffparam6;
#X obj 283 230 s ffparam7;
#X obj 305 155 s ffparam8;
#X obj 391 53 inlet;
#X msg 390 79 symbol;
#X connect 0 0 11 0;
#X connect 1 0 12 0;
#X connect 2 0 13 0;
#X connect 3 0 14 0;
#X connect 4 0 15 0;
#X connect 5 0 16 0;
#X connect 6 0 17 0;
#X connect 7 0 18 0;
#X connect 8 0 0 0;
#X connect 8 1 1 0;
#X connect 8 2 2 0;
#X connect 8 3 3 0;
#X connect 8 4 4 0;
#X connect 8 5 5 0;
#X connect 8 6 6 0;
#X connect 8 7 7 0;
#X connect 8 8 9 0;
#X connect 9 0 19 0;
#X connect 10 0 8 0;
#X connect 20 0 21 0;
#X connect 21 0 11 0;
#X connect 21 0 12 0;
#X connect 21 0 13 0;
#X connect 21 0 14 0;
#X connect 21 0 15 0;
#X connect 21 0 16 0;
#X connect 21 0 17 0;
#X connect 21 0 18 0;
#X connect 21 0 19 0;
#X restore 166 368 pd pname;
#X symbolatom 410 80 18 0 0 0 - ffparam0 -;
#X symbolatom 549 79 18 0 0 0 - ffparam1 -;
#X symbolatom 688 79 18 0 0 0 - ffparam2 -;
#X symbolatom 411 141 18 0 0 0 - ffparam3 -;
#X symbolatom 550 140 18 0 0 0 - ffparam4 -;
#X symbolatom 689 140 18 0 0 0 - ffparam5 -;
#X symbolatom 411 201 18 0 0 0 - ffparam6 -;
#X symbolatom 550 200 18 0 0 0 - ffparam7 -;
#X symbolatom 689 200 18 0 0 0 - ffparam8 -;
#N canvas 0 0 996 665 default 0;
#X obj 97 86 route 0 1 2 3 4 5 6 7 8;
#X obj 97 51 inlet;
#X obj 391 53 inlet;
#X obj 51 154 s vparam0;
#X obj 393 114 float 0;
#X msg 392 88 bang;
#X obj 79 178 s vparam1;
#X obj 118 205 s vparam2;
#X obj 148 227 s vparam3;
#X obj 184 159 s vparam4;
#X obj 213 181 s vparam5;
#X obj 255 206 s vparam6;
#X obj 283 230 s vparam7;
#X obj 304 155 s vparam8;
#X connect 0 0 3 0;
#X connect 0 1 6 0;
#X connect 0 2 7 0;
#X connect 0 3 8 0;
#X connect 0 4 9 0;
#X connect 0 5 10 0;
#X connect 0 6 11 0;
#X connect 0 7 12 0;
#X connect 0 8 13 0;
#X connect 1 0 0 0;
#X connect 2 0 5 0;
#X connect 4 0 3 0;
#X connect 4 0 6 0;
#X connect 4 0 7 0;
#X connect 4 0 8 0;
#X connect 4 0 9 0;
#X connect 4 0 10 0;
#X connect 4 0 11 0;
#X connect 4 0 12 0;
#X connect 4 0 13 0;
#X connect 5 0 4 0;
#X restore 200 310 pd default;
#X obj 184 340 print type;
#X obj 22 20 inlet;
#X obj 28 391 outlet;
#X obj 301 8 loadbang;
#X msg 410 46 pluginsdir /usr/lib/FreeFrame/plugins_binary;
#X obj 101 101 cnv 15 100 60 empty empty Vectorize 5 50 0 28 -1 -203904
0;
#X obj 101 101 cnv 10 10 10 empty empty empty 20 12 0 14 -260097 -66577
0;
#X obj 101 151 cnv 10 10 10 empty empty empty 20 12 0 14 -260097 -66577
0;
#X obj 250 34 delay 500;
#X obj 340 31 bng 15 250 50 0 empty empty empty 17 7 0 10 -262144 -1
-1;
#X obj 105 20 inlet;
#X obj 113 114 vsl 8 30 0 1 0 0 empty empty empty 0 -9 0 10 -262144
-1 -1 0 1;
#X obj 175 101 cnv 10 10 10 empty empty empty 20 12 0 14 -260097 -66577
0;
#X obj 115 20 inlet;
#X obj 126 114 vsl 8 30 0 1 0 0 empty empty empty 0 -9 0 10 -262144
-1 -1 0 1;
#X obj 125 20 inlet;
#X obj 140 114 vsl 8 30 0 1 0 0 empty empty empty 0 -9 0 10 -262144
-1 -1 0 1;
#X obj 135 20 inlet;
#X obj 154 114 vsl 8 30 0 1 0 0 empty empty empty 0 -9 0 10 -262144
-1 -1 0 1;
#X obj 145 20 inlet;
#X obj 168 114 vsl 8 30 0 1 0 0 empty empty empty 0 -9 0 10 -262144
-1 -1 0 1;
#X obj 114 101 cnv 10 10 10 empty empty empty 20 12 0 14 -260097 -66577
0;
#X obj 127 101 cnv 10 10 10 empty empty empty 20 12 0 14 -260097 -66577
0;
#X obj 142 101 cnv 10 10 10 empty empty empty 20 12 0 14 -260097 -66577
0;
#X obj 159 101 cnv 10 10 10 empty empty empty 20 12 0 14 -260097 -66577
0;
#X msg 300 55 42;
#X obj 158 20 inlet;
#X obj 181 114 vsl 8 30 0 1 0 0 empty empty empty 0 -9 0 10 -262144
-1 -1 0 1;
#X obj 191 101 cnv 10 10 10 empty empty empty 20 12 0 14 -260097 -66577
0;
#X connect 0 0 44 0;
#X connect 0 1 12 0;
#X connect 0 2 14 0;
#X connect 0 3 31 0;
#X connect 0 4 42 0;
#X connect 0 5 41 0;
#X connect 1 0 0 1;
#X connect 2 0 0 0;
#X connect 3 0 1 0;
#X connect 4 0 7 0;
#X connect 5 0 8 0;
#X connect 6 0 9 0;
#X connect 7 0 0 0;
#X connect 8 0 0 0;
#X connect 9 0 0 0;
#X connect 14 0 31 1;
#X connect 14 0 41 1;
#X connect 19 0 25 0;
#X connect 20 0 26 0;
#X connect 21 0 27 0;
#X connect 22 0 28 0;
#X connect 23 0 29 0;
#X connect 24 0 30 0;
#X connect 25 0 0 0;
#X connect 26 0 0 0;
#X connect 27 0 0 0;
#X connect 28 0 0 0;
#X connect 29 0 0 0;
#X connect 30 0 0 0;
#X connect 43 0 2 0;
#X connect 45 0 51 0;
#X connect 46 0 0 0;
#X connect 50 0 67 0;
#X connect 51 0 46 0;
#X connect 51 0 50 0;
#X connect 52 0 53 0;
#X connect 53 0 19 0;
#X connect 55 0 56 0;
#X connect 56 0 20 0;
#X connect 57 0 58 0;
#X connect 58 0 21 0;
#X connect 59 0 60 0;
#X connect 60 0 4 0;
#X connect 61 0 62 0;
#X connect 62 0 5 0;
#X connect 67 0 3 0;
#X connect 68 0 69 0;
#X coords 0 -1 1 1 102 62 2 100 100;
