#N canvas 87 0 868 519 10;
#X text 387 606 bugs and comments @ ydegoyon@free.fr [-_-];
#X text 256 524 (invoke with <right mouse>Properties );
#X text 256 506 You can set the following properties :;
#X text 321 108 Constructor : filterbank~ <lower freq> <higher freq>
<nbfilters> | filterbank~;
#X text 264 543 * Lower Frequency : lower frequency of all filters
;
#X text 264 556 * Higher Frequency : higher frequency of all filters
;
#X text 321 77 filterbank~ outputs the frequency response against a
set of band-pass filters;
#X obj 127 279 filterbank~ 0 2000 30;
#X text 387 588 part of unauthorized PD ( http://ydegoyon.free.fr )
;
#X msg 336 250 bang;
#X text 321 139 Example : filterbank~ 0 3000 30;
#X obj 86 330 env~;
#X obj 122 307 env~;
#X obj 121 329 env~;
#X obj 87 306 env~;
#X obj 54 352 vsl 8 128 0 127 0 0 empty empty empty 20 8 0 8 -262144
-1 -1 8449 1;
#X obj 113 359 vsl 8 128 0 127 0 0 empty empty empty 20 8 0 8 -262144
-1 -1 8408 1;
#X obj 125 360 vsl 8 128 0 127 0 0 empty empty empty 20 8 0 8 -262144
-1 -1 8163 1;
#X obj 138 360 vsl 8 128 0 127 0 0 empty empty empty 20 8 0 8 -262144
-1 -1 7938 1;
#X obj 156 331 env~;
#X obj 191 307 env~;
#X obj 191 330 env~;
#X obj 158 307 env~;
#X obj 171 360 vsl 8 128 0 127 0 0 empty empty empty 20 8 0 8 -262144
-1 -1 7818 1;
#X obj 183 360 vsl 8 128 0 127 0 0 empty empty empty 20 8 0 8 -262144
-1 -1 7870 1;
#X obj 195 360 vsl 8 128 0 127 0 0 empty empty empty 20 8 0 8 -262144
-1 -1 7906 1;
#X obj 208 361 vsl 8 128 0 127 0 0 empty empty empty 20 8 0 8 -262144
-1 -1 7972 1;
#X obj 227 331 env~;
#X obj 262 307 env~;
#X obj 262 330 env~;
#X obj 228 307 env~;
#X obj 242 360 vsl 8 128 0 127 0 0 empty empty empty 20 8 0 8 -262144
-1 -1 7796 1;
#X obj 254 360 vsl 8 128 0 127 0 0 empty empty empty 20 8 0 8 -262144
-1 -1 7731 1;
#X obj 266 360 vsl 8 128 0 127 0 0 empty empty empty 20 8 0 8 -262144
-1 -1 7804 1;
#X obj 279 361 vsl 8 128 0 127 0 0 empty empty empty 20 8 0 8 -262144
-1 -1 7799 1;
#X obj 297 331 env~;
#X obj 332 307 env~;
#X obj 332 330 env~;
#X obj 298 307 env~;
#X obj 312 360 vsl 8 128 0 127 0 0 empty empty empty 20 8 0 8 -262144
-1 -1 7525 1;
#X obj 324 360 vsl 8 128 0 127 0 0 empty empty empty 20 8 0 8 -262144
-1 -1 7298 1;
#X obj 336 360 vsl 8 128 0 127 0 0 empty empty empty 20 8 0 8 -262144
-1 -1 7195 1;
#X obj 349 361 vsl 8 128 0 127 0 0 empty empty empty 20 8 0 8 -262144
-1 -1 7131 1;
#X obj 367 331 env~;
#X obj 403 308 env~;
#X obj 402 330 env~;
#X obj 368 307 env~;
#X obj 382 360 vsl 8 128 0 127 0 0 empty empty empty 20 8 0 8 -262144
-1 -1 6979 1;
#X obj 394 360 vsl 8 128 0 127 0 0 empty empty empty 20 8 0 8 -262144
-1 -1 6899 1;
#X obj 406 360 vsl 8 128 0 127 0 0 empty empty empty 20 8 0 8 -262144
-1 -1 6896 1;
#X obj 419 361 vsl 8 128 0 127 0 0 empty empty empty 20 8 0 8 -262144
-1 -1 6896 1;
#X obj 438 330 env~;
#X obj 473 306 env~;
#X obj 473 329 env~;
#X obj 439 306 env~;
#X obj 453 359 vsl 8 128 0 127 0 0 empty empty empty 20 8 0 8 -262144
-1 -1 6828 1;
#X obj 465 359 vsl 8 128 0 127 0 0 empty empty empty 20 8 0 8 -262144
-1 -1 6931 1;
#X obj 477 359 vsl 8 128 0 127 0 0 empty empty empty 20 8 0 8 -262144
-1 -1 7138 1;
#X obj 490 360 vsl 8 128 0 127 0 0 empty empty empty 20 8 0 8 -262144
-1 -1 7034 1;
#X obj 513 328 env~;
#X obj 548 304 env~;
#X obj 548 327 env~;
#X obj 514 304 env~;
#X obj 528 357 vsl 8 128 0 127 0 0 empty empty empty 20 8 0 8 -262144
-1 -1 6782 1;
#X obj 540 357 vsl 8 128 0 127 0 0 empty empty empty 20 8 0 8 -262144
-1 -1 6608 1;
#X obj 552 357 vsl 8 128 0 127 0 0 empty empty empty 20 8 0 8 -262144
-1 -1 6495 1;
#X obj 565 358 vsl 8 128 0 127 0 0 empty empty empty 20 8 0 8 -262144
-1 -1 6421 1;
#X obj 580 328 env~;
#X obj 581 304 env~;
#X obj 595 357 vsl 8 128 0 127 0 0 empty empty empty 20 8 0 8 -262144
-1 -1 6373 1;
#X obj 607 357 vsl 8 128 0 127 0 0 empty empty empty 20 8 0 8 -262144
-1 -1 6342 1;
#X text 203 228 Step 2 : See the filterbank~ output;
#X text 451 252 Step 3 : shift all the outputs randomly;
#X msg 458 274 randomize 1;
#X msg 547 274 randomize 0;
#X obj 125 250 adc~;
#X obj 101 101 cnv 15 100 60 empty empty FilterBank 20 12 0 14 -233017
-66577 0;
#X floatatom 133 125 5 0 0 0 - - -;
#X obj 193 175 outlet;
#X obj 101 146 cnv 15 15 15 empty empty empty 20 12 0 14 -260097 -66577
0;
#X connect 7 0 14 0;
#X connect 7 1 11 0;
#X connect 7 2 12 0;
#X connect 7 3 13 0;
#X connect 7 4 22 0;
#X connect 7 5 19 0;
#X connect 7 6 20 0;
#X connect 7 7 21 0;
#X connect 7 8 30 0;
#X connect 7 9 27 0;
#X connect 7 10 28 0;
#X connect 7 11 29 0;
#X connect 7 12 38 0;
#X connect 7 13 35 0;
#X connect 7 14 36 0;
#X connect 7 15 37 0;
#X connect 7 16 46 0;
#X connect 7 17 43 0;
#X connect 7 18 44 0;
#X connect 7 18 45 0;
#X connect 7 20 54 0;
#X connect 7 21 51 0;
#X connect 7 22 52 0;
#X connect 7 23 53 0;
#X connect 7 24 62 0;
#X connect 7 25 59 0;
#X connect 7 26 60 0;
#X connect 7 27 61 0;
#X connect 7 28 68 0;
#X connect 7 29 67 0;
#X connect 9 0 75 0;
#X connect 11 0 16 0;
#X connect 12 0 17 0;
#X connect 13 0 18 0;
#X connect 14 0 15 0;
#X connect 14 0 77 0;
#X connect 14 0 78 0;
#X connect 19 0 24 0;
#X connect 20 0 25 0;
#X connect 21 0 26 0;
#X connect 22 0 23 0;
#X connect 27 0 32 0;
#X connect 28 0 33 0;
#X connect 29 0 34 0;
#X connect 30 0 31 0;
#X connect 35 0 40 0;
#X connect 36 0 41 0;
#X connect 37 0 42 0;
#X connect 38 0 39 0;
#X connect 43 0 48 0;
#X connect 44 0 49 0;
#X connect 45 0 50 0;
#X connect 46 0 47 0;
#X connect 51 0 56 0;
#X connect 52 0 57 0;
#X connect 53 0 58 0;
#X connect 54 0 55 0;
#X connect 59 0 64 0;
#X connect 60 0 65 0;
#X connect 61 0 66 0;
#X connect 62 0 63 0;
#X connect 67 0 70 0;
#X connect 68 0 69 0;
#X connect 73 0 7 0;
#X connect 74 0 7 0;
#X connect 75 0 7 0;
#X coords 0 -1 1 1 102 62 2 100 100;
