#N canvas 502 131 450 300 10;
#X obj 254 259 cnv 15 100 30 empty empty empty 20 12 0 14 -24198 -66577
0;
#X obj 98 178 cnv 15 65 75 empty empty empty 20 12 0 14 -24198 -66577
0;
#X msg 212 103 draw line;
#X msg 212 58 draw fill;
#X msg 212 80 draw point;
#X obj 270 4 gemhead;
#X msg 318 55 1 1 0;
#X msg 326 75 1 -1 0;
#X msg 336 115 -2 1 0;
#X msg 332 95 -1 -1 -3;
#X msg 212 123 draw linestrip;
#X msg 212 143 draw tri;
#X msg 212 165 draw tristrip;
#X msg 211 188 draw trifan;
#X msg 211 209 draw quad;
#X msg 211 231 draw quadstrip;
#X obj 270 28 rotateXYZ;
#X floatatom 328 5 5 0 0 0 - - -;
#X obj 270 266 curve 5;
#X obj 341 29 loadbang;
#X msg 101 198 width \$1;
#X msg 102 236 res \$1;
#X msg 338 153 \$1 \$1 \$1;
#X obj 101 101 cnv 15 100 60 empty empty empty 20 12 0 14 -24198 -66577
0;
#X floatatom 115 105 5 0 10 0 - - -;
#X floatatom 116 142 5 0 100 0 - - -;
#X floatatom 164 125 5 0 0 0 - - -;
#X obj 101 101 cnv 10 10 10 empty empty empty 20 12 0 14 -257985 -66577
0;
#X obj 101 151 cnv 10 10 10 empty empty empty 20 12 0 14 -260097 -66577
0;
#X text 149 104 width;
#X text 152 143 height;
#X text 125 124 color;
#X connect 2 0 18 0;
#X connect 3 0 18 0;
#X connect 4 0 18 0;
#X connect 5 0 16 0;
#X connect 6 0 18 1;
#X connect 7 0 18 2;
#X connect 8 0 18 4;
#X connect 9 0 18 3;
#X connect 10 0 18 0;
#X connect 11 0 18 0;
#X connect 12 0 18 0;
#X connect 13 0 18 0;
#X connect 14 0 18 0;
#X connect 15 0 18 0;
#X connect 16 0 18 0;
#X connect 17 0 16 1;
#X connect 17 0 16 3;
#X connect 19 0 6 0;
#X connect 20 0 18 0;
#X connect 21 0 18 0;
#X connect 22 0 18 5;
#X connect 24 0 20 0;
#X connect 25 0 21 0;
#X connect 26 0 22 0;
#X coords 0 -1 1 1 102 62 2 100 100;
