#N canvas 162 226 450 300 10;
#X obj 99 51 pix_rgba;
#X obj 101 101 cnv 15 100 60 empty empty empty 20 12 0 14 -4160 -66577
0;
#X obj 99 31 inlet;
#X obj 98 206 outlet;
#X obj 101 101 cnv 10 10 10 empty empty empty 20 12 0 14 -260097 -66577
0;
#X obj 191 101 cnv 10 10 10 empty empty empty 20 12 0 14 -260097 -66577
0;
#X obj 133 101 cnv 10 10 10 empty empty empty 20 12 0 14 -260097 -66577
0;
#X obj 159 31 inlet;
#X obj 209 31 inlet;
#X obj 117 114 hsl 48 8 0 1 0 0 empty empty empty -2 -8 0 10 -262144
-1 -1 0 1;
#X floatatom 169 112 5 0 0 0 - - -;
#X obj 105 130 hsl 48 8 0 1 0 0 empty empty empty -2 -8 0 10 -262144
-1 -1 0 1;
#X floatatom 157 128 5 0 0 0 - - -;
#X obj 99 73 pix_BackLightVFX;
#X obj 115 145 hsl 48 8 0 1 0 0 empty empty empty -2 -8 0 10 -262144
-1 -1 0 1;
#X floatatom 167 143 5 0 0 0 - - -;
#X obj 161 101 cnv 10 10 10 empty empty empty 20 12 0 14 -260097 -66577
0;
#X obj 101 151 cnv 10 10 10 empty empty empty 20 12 0 14 -260097 -66577
0;
#X obj 99 179 pix_texture;
#X text 116 130 BGLight;
#X connect 0 0 13 0;
#X connect 2 0 0 0;
#X connect 7 0 9 0;
#X connect 8 0 11 0;
#X connect 9 0 10 0;
#X connect 10 0 13 1;
#X connect 11 0 12 0;
#X connect 12 0 13 2;
#X connect 13 0 18 0;
#X connect 14 0 15 0;
#X connect 18 0 3 0;
#X coords 0 -1 1 1 102 62 2 100 100;
