#N canvas 92 198 450 300 10;
#X msg 5 55 draw line;
#X msg 5 76 draw fill;
#X msg 5 98 draw point;
#X obj 73 129 cube;
#X obj 101 101 cnv 15 100 60 empty empty empty 20 12 0 14 -203904 -66577
0;
#X floatatom 110 127 5 0 0 0 - - -;
#X text 110 111 size;
#X obj 94 59 inlet;
#X obj 94 188 outlet;
#X obj 100 151 cnv 10 10 10 empty empty empty 20 12 0 14 -1 -66577
0;
#X connect 0 0 3 0;
#X connect 1 0 3 0;
#X connect 2 0 3 0;
#X connect 3 0 8 0;
#X connect 5 0 3 1;
#X connect 7 0 3 0;
#X coords 0 -1 1 1 102 62 2 100 100;
