#N canvas 0 25 450 296 10;
#X obj 270 118 cnv 15 160 60 empty empty empty 20 12 0 14 -24198 -66577
0;
#X obj 271 156 pix_image;
#N canvas 0 0 450 300 openpanel 0;
#X obj 114 62 inlet;
#X obj 121 254 outlet;
#X obj 114 125 openpanel;
#X msg 114 162 set open \$1;
#X obj 114 199 t b a;
#X connect 0 0 2 0;
#X connect 2 0 3 0;
#X connect 3 0 4 0;
#X connect 4 0 1 0;
#X connect 4 1 1 0;
#X restore 287 97 pd openpanel;
#X msg 287 125 open /home/habib/phase3.jpg;
#X msg 341 156 thread \$1;
#X obj 412 160 tgl 15 0 empty empty empty 17 7 0 10 -262144 -1 -1 0
1;
#X obj 276 204 pix_texture;
#X obj 101 101 cnv 15 100 60 empty empty empty 20 12 0 14 -233017 -66577
0;
#X obj 133 111 bng 15 250 50 0 empty empty empty 0 -6 0 8 -262144 -1
-1;
#X obj 100 151 cnv 10 10 10 empty empty empty 20 12 0 14 -258113 -66577
0;
#X obj 267 61 gemhead;
#X obj 267 256 outlet;
#X connect 1 0 6 0;
#X connect 2 0 3 0;
#X connect 3 0 1 0;
#X connect 4 0 1 0;
#X connect 5 0 4 0;
#X connect 6 0 11 0;
#X connect 8 0 2 0;
#X connect 10 0 1 0;
#X coords 0 -1 1 1 102 62 2 100 100;
