#N canvas 154 25 450 300 10;
#X obj 174 -167 gemhead;
#X msg 203 -96 dimen 64 64;
#X msg 193 -121 dimen 256 128;
#X obj 46 22 pix_texture;
#X msg 242 41 enumerate;
#X msg 248 63 dialog;
#X msg 211 -67 colorspace RGBA;
#X obj 46 -4 pix_video;
#X msg 232 15 device /dev/dv1394/0;
#X msg 252 88 driver 0;
#X msg 216 -9 device 0;
#N canvas 162 133 570 420 serin 0;
#X obj 205 60 cnv 20 20 20 empty \$0-open-canvas 0 4 10 0 16 -233017
-1 0;
#X obj 60 61 hradio 18 1 1 8 empty empty empty 0 -6 0 8 -225271 -1
-1 0;
#X obj 60 13 inlet;
#X msg 200 202 label \$1;
#X obj 200 180 makefilename %d;
#X obj 59 108 int;
#X obj 59 337 outlet;
#X msg 201 306 set \$1 \$2;
#X obj 59 266 trigger bang anything;
#X obj 201 286 list;
#X obj 200 225 send \$0-open-canvas;
#X msg 60 210 device \$1;
#X connect 1 0 5 0;
#X connect 2 0 1 0;
#X connect 3 0 10 0;
#X connect 4 0 3 0;
#X connect 5 0 4 0;
#X connect 5 0 11 0;
#X connect 7 0 6 0;
#X connect 8 0 6 0;
#X connect 8 1 9 0;
#X connect 9 0 7 0;
#X connect 11 0 8 0;
#X coords 0 -1 1 1 165 20 1 60 60;
#X restore 216 -33 pd serin;
#X msg 259 114 driver dv;
#X obj 24 112 outlet;
#X obj 101 101 cnv 15 100 60 empty empty empty 20 12 0 14 -233017 -66577
0;
#X connect 0 0 7 0;
#X connect 1 0 7 0;
#X connect 2 0 7 0;
#X connect 3 0 13 0;
#X connect 4 0 7 0;
#X connect 5 0 7 0;
#X connect 6 0 7 0;
#X connect 7 0 3 0;
#X connect 8 0 7 0;
#X connect 9 0 7 0;
#X connect 10 0 7 0;
#X connect 11 0 10 0;
#X connect 12 0 7 0;
#X coords 0 -1 1 1 100 60 2 100 100;
