#N canvas 486 132 450 300 10;
#X obj 242 76 cnv 15 180 165 empty empty empty 20 12 0 14 -106458 -66577
0;
#X obj 240 253 cnv 15 50 30 empty empty empty 20 12 0 14 -24198 -66577
0;
#X obj 322 242 cnv 15 100 50 empty empty empty 20 12 0 14 -106458 -66577
0;
#X obj 243 259 model;
#X obj 256 98 openpanel;
#X msg 344 104 rescale \$1;
#X msg 260 164 smooth \$1;
#X obj 344 144 tgl 15 0 empty empty empty 0 -6 0 8 -262144 -1 -1 0
1;
#X msg 344 164 revert \$1;
#X msg 256 214 material \$1;
#X msg 344 214 texture \$1;
#X msg 346 266 group \$1;
#X msg 256 119 open \$1;
#X obj 256 194 tgl 15 0 empty empty empty 0 -6 0 8 -262144 -1 -1 0
1;
#X obj 101 101 cnv 15 100 60 empty empty empty 20 12 0 14 -261682 -66577
0;
#X obj 114 105 bng 15 250 50 0 empty empty empty 0 -6 0 8 -262144 -1
-1;
#X obj 114 123 tgl 15 0 empty empty empty 0 -6 0 8 -262144 -1 -1 0
1;
#X floatatom 114 141 5 0 1 0 - - -;
#X obj 145 130 hradio 15 1 0 3 empty empty empty 0 -6 0 8 -262144 -1
-1 0;
#X obj 145 111 hradio 15 1 0 3 empty empty empty 0 -6 0 8 -262144 -1
-1 0;
#X connect 4 0 12 0;
#X connect 5 0 3 0;
#X connect 6 0 3 0;
#X connect 7 0 8 0;
#X connect 8 0 3 0;
#X connect 9 0 3 0;
#X connect 10 0 3 0;
#X connect 11 0 3 0;
#X connect 12 0 3 0;
#X connect 13 0 9 0;
#X connect 15 0 4 0;
#X connect 16 0 5 0;
#X connect 17 0 6 0;
#X connect 18 0 11 0;
#X connect 19 0 10 0;
#X coords 0 -1 1 1 102 62 2 100 100;
