#N canvas 0 0 450 300 10;
#X obj 101 101 cnv 15 100 60 empty empty empty 20 12 0 14 -24198 -66577
0;
#X floatatom 112 112 3 -4 4 0 X - -;
#X obj 97 206 translateXYZ 1 2 0;
#X floatatom 142 122 3 -4 4 0 Y - -;
#X floatatom 173 134 3 -16 3 0 Z - -;
#X obj 86 242 outlet;
#X obj 101 60 inlet;
#X obj 101 100 cnv 15 10 10 empty empty empty 20 12 0 14 -260097 -66577
0;
#X obj 100 151 cnv 10 10 10 empty empty empty 20 12 0 14 -260097 -66577
0;
#X connect 1 0 2 1;
#X connect 2 0 5 0;
#X connect 3 0 2 2;
#X connect 4 0 2 3;
#X connect 6 0 2 0;
#X coords 0 -1 1 1 102 62 2 100 100;
