#N canvas 83 297 450 300 10;
#X obj 101 101 cnv 15 100 60 empty empty empty 20 12 0 14 -24198 -66577
0;
#X msg 28 20 draw line;
#X msg 28 51 draw fill;
#X msg 28 83 draw point;
#X floatatom 130 105 5 0 0 0 - - -;
#X text 168 104 size;
#X floatatom 173 135 3 0 0 0 - - -;
#X text 120 135 segments;
#X obj 108 179 cylinder;
#X obj 108 67 inlet;
#X obj 108 215 outlet;
#X obj 101 101 cnv 10 10 10 empty empty empty 20 12 0 14 -257985 -66577
0;
#X obj 101 151 cnv 10 10 10 empty empty empty 20 12 0 14 -260097 -66577
0;
#X connect 1 0 8 0;
#X connect 2 0 8 0;
#X connect 3 0 8 0;
#X connect 4 0 8 1;
#X connect 6 0 8 2;
#X connect 8 0 10 0;
#X connect 9 0 8 0;
#X coords 0 -1 1 1 102 62 2 100 100;
