#N canvas 507 111 450 300 10;
#X msg 217 221 \$1 \$2 \$3;
#X obj 331 212 bng 15 250 50 0 empty empty empty 17 7 0 10 -262144
-1 -1;
#X obj 356 129 t b f;
#X floatatom 368 170 5 0 0 0 - - -;
#X obj 279 112 t b f;
#X floatatom 291 153 5 0 0 0 - - -;
#X obj 216 58 t b f;
#X obj 100 100 cnv 15 100 20 empty empty empty 20 12 0 14 -258113 -66577
0;
#X obj 100 119 cnv 15 100 20 empty empty empty 20 12 0 14 -4034 -66577
0;
#X obj 100 140 cnv 15 100 20 empty empty empty 20 12 0 14 -4160 -66577
0;
#X obj 88 176 gemhead;
#X obj 88 195 world_light;
#X floatatom 118 102 5 0 1 0 - - -;
#X obj 216 181 pack 0 0 0;
#X floatatom 128 122 5 0 1 0 - - -;
#X floatatom 138 142 5 0 1 0 - - -;
#X floatatom 229 116 5 0 0 0 - - -;
#X connect 0 0 11 1;
#X connect 1 0 0 0;
#X connect 2 0 1 0;
#X connect 2 1 3 0;
#X connect 3 0 13 2;
#X connect 4 0 1 0;
#X connect 4 1 5 0;
#X connect 5 0 13 1;
#X connect 6 0 1 0;
#X connect 6 1 16 0;
#X connect 10 0 11 0;
#X connect 12 0 6 0;
#X connect 13 0 0 0;
#X connect 14 0 4 0;
#X connect 15 0 2 0;
#X connect 16 0 13 0;
#X coords 0 -1 1 1 100 60 2 100 100;
