#N canvas 341 25 450 300 10;
#X obj 101 101 cnv 15 100 60 empty empty empty 20 12 0 14 -233017 -66577
0;
#X obj 115 118 hsl 80 30 0 1 0 0 empty empty empty -2 -8 0 10 -1 -261234
-1 0 1;
#X obj 142 173 pix_mix;
#X obj 133 244 outlet;
#X obj 122 52 inlet;
#X obj 171 51 inlet;
#X obj 250 49 inlet;
#X obj 101 100 cnv 10 10 10 empty empty empty 20 12 0 14 -258113 -66577
0;
#X obj 191 100 cnv 10 10 10 empty empty empty 20 12 0 14 -258113 -66577
0;
#X obj 146 100 cnv 10 10 10 empty empty empty 20 12 0 14 -4034 -66577
0;
#X connect 1 0 2 2;
#X connect 2 0 3 0;
#X connect 4 0 2 0;
#X connect 5 0 1 0;
#X connect 6 0 2 1;
#X coords 0 -1 1 1 102 62 2 100 100;
