#N canvas 0 0 1272 714 10;
#X obj 180 326 outlet;
#X obj 190 346 outlet;
#X obj 101 101 grid grid1 150 0 1 150 0 1 1 1 1 10 10 136 141;
#X floatatom 503 109 5 0 0 0 - - -;
#X floatatom 615 108 5 0 0 0 - - -;
#X obj 440 106 pack f f;
#X msg 361 105 goto \$1 \$2;
#X msg 575 107 bang;
#X text 553 108 X;
#X text 362 87 Set position :;
#X text 660 109 Y;
#X floatatom 515 144 5 0 0 0 - - -;
#X floatatom 615 145 5 0 0 0 - - -;
#X obj 452 143 pack f f;
#X msg 575 144 bang;
#X text 559 144 X;
#X text 663 145 Y;
#X floatatom 557 180 5 0 0 0 - - -;
#X floatatom 662 180 5 0 0 0 - - -;
#X obj 494 177 pack f f;
#X msg 622 178 bang;
#X text 607 179 X;
#X text 708 180 Y;
#X floatatom 532 215 5 0 0 0 - - -;
#X floatatom 636 214 5 0 0 0 - - -;
#X obj 469 212 pack f f;
#X msg 597 213 bang;
#X text 582 214 X;
#X text 685 215 Y;
#X floatatom 568 248 5 0 0 0 - - -;
#X floatatom 667 250 5 0 0 0 - - -;
#X obj 501 247 pack f f;
#X msg 629 248 bang;
#X text 614 249 X;
#X text 714 249 Y;
#X msg 361 142 values \$1 \$2;
#X text 362 124 Set values :;
#X text 360 159 Set deltas for values :;
#X msg 362 176 valuemotion \$1 \$2;
#X msg 362 211 xvalues \$1 \$2;
#X text 363 194 Set values without changing output :;
#X text 361 229 Set deltas for values without changing output:;
#X msg 363 247 xvaluemotion \$1 \$2;
#X msg 363 274 color 123 45 185;
#X text 490 274 change bg color ( from alberto zin );
#X obj 502 17 inlet;
#X obj 614 22 inlet;
#X obj 465 308 loadbang;
#X obj 476 370 del 1000;
#X connect 2 0 0 0;
#X connect 2 1 1 0;
#X connect 3 0 5 0;
#X connect 4 0 5 1;
#X connect 4 0 7 0;
#X connect 5 0 6 0;
#X connect 6 0 2 0;
#X connect 7 0 3 0;
#X connect 11 0 13 0;
#X connect 12 0 13 1;
#X connect 12 0 14 0;
#X connect 13 0 35 0;
#X connect 14 0 11 0;
#X connect 17 0 19 0;
#X connect 18 0 19 1;
#X connect 18 0 20 0;
#X connect 19 0 38 0;
#X connect 20 0 17 0;
#X connect 23 0 25 0;
#X connect 24 0 25 1;
#X connect 24 0 26 0;
#X connect 25 0 39 0;
#X connect 26 0 23 0;
#X connect 29 0 31 0;
#X connect 30 0 31 1;
#X connect 30 0 32 0;
#X connect 31 0 42 0;
#X connect 32 0 29 0;
#X connect 35 0 2 0;
#X connect 38 0 2 0;
#X connect 39 0 2 0;
#X connect 42 0 2 0;
#X connect 43 0 2 0;
#X connect 45 0 3 0;
#X connect 46 0 4 0;
#X connect 47 0 48 0;
#X connect 48 0 43 0;
#X coords 0 -1 1 1 152 152 2 100 100;
