#N canvas 0 0 450 300 10;
#X obj 101 101 cnv 15 100 60 empty empty MapCor 20 30 0 54 -14789 -228856
0;
#X obj 13 299 pdp_glx;
#X floatatom 129 112 3 0 0 0 - - -;
#X floatatom 138 128 3 0 0 0 - - -;
#X floatatom 146 144 3 0 0 0 - - -;
#X floatatom 208 31 3 0 0 0 - - -;
#X floatatom 217 55 3 0 0 0 - - -;
#X msg -8 93 pick;
#X floatatom 262 148 3 0 0 0 - - -;
#X msg 273 176 luminosity \$1;
#X obj 374 178 tgl 15 0 empty empty empty 0 -6 0 8 -262144 -1 -1 0
1;
#X text 397 179 Use luminosity in color detection;
#X obj 358 201 tgl 15 0 empty empty empty 0 -6 0 8 -262144 -1 -1 0
1;
#X msg 282 200 cursor \$1;
#X text 381 202 Show cursor or not;
#X obj 80 186 pdp_cmap ----;
#X obj 198 10 hdl 15 1 0 10 empty empty empty 0 -6 0 8 -262144 -1 -1
0;
#X text 352 10 Select color index ( capacity is 10 by default );
#X text -19 70 Pick up the color;
#X text 256 30 X coordinate of cursor;
#X text 265 54 Y coordinate of cursor;
#X text 308 147 Tolerance ( default = 10 );
#X msg 290 224 clear;
#X msg 298 248 delete \$1;
#X text 420 250 Delete a mapping;
#X msg 321 275 resize 20;
#X floatatom 373 250 5 0 0 0 - - -;
#X obj 649 39 tgl 15 0 empty empty empty 0 -6 0 8 -262144 -1 -1 0 1
;
#X obj 649 91 pdp_control;
#X msg 649 64 thread \$1;
#X floatatom 649 152 5 0 0 0 - - -;
#X obj 649 123 route pdp_drop;
#X msg 63 299 cursor \$1;
#X obj 138 300 tgl 15 0 empty empty empty 0 -6 0 8 -262144 -1 -1 0
1;
#X text 381 202 Show cursor or not;
#X text 405 276 Resize the color table;
#X text 351 224 Clear the color table;
#X text -22 161 Set the cursor;
#X msg -18 127 setcur \$1 \$2;
#X msg 188 295 dim 160 120;
#X obj 80 234 outlet;
#X text 153 112 R;
#X text 161 127 G;
#X text 169 143 B;
#X obj 192 100 cnv 10 10 10 empty empty empty 20 12 0 14 -260097 -66577
0;
#X obj 100 100 cnv 10 10 10 empty empty empty 20 12 0 14 -260097 -66577
0;
#X obj 130 100 cnv 10 10 10 empty empty empty 20 12 0 14 -260097 -66577
0;
#X obj 160 100 cnv 10 10 10 empty empty empty 20 12 0 14 -260097 -66577
0;
#X obj 101 151 cnv 10 10 10 empty empty empty 20 12 0 14 -260097 -66577
0;
#X obj 36 26 inlet;
#X obj 129 21 inlet;
#X obj 139 31 inlet;
#X obj 149 41 inlet;
#X obj 216 274 loadbang;
#X connect 1 0 38 0;
#X connect 2 0 15 4;
#X connect 3 0 15 5;
#X connect 4 0 15 6;
#X connect 5 0 15 2;
#X connect 6 0 15 3;
#X connect 7 0 15 0;
#X connect 8 0 15 7;
#X connect 9 0 15 0;
#X connect 10 0 9 0;
#X connect 12 0 13 0;
#X connect 13 0 15 0;
#X connect 15 0 1 0;
#X connect 15 0 40 0;
#X connect 16 0 15 1;
#X connect 22 0 15 0;
#X connect 23 0 15 0;
#X connect 25 0 15 0;
#X connect 26 0 23 0;
#X connect 27 0 29 0;
#X connect 28 0 31 0;
#X connect 29 0 28 0;
#X connect 31 0 30 0;
#X connect 32 0 1 0;
#X connect 33 0 32 0;
#X connect 38 0 15 0;
#X connect 38 0 7 0;
#X connect 39 0 1 0;
#X connect 49 0 15 0;
#X connect 50 0 2 0;
#X connect 51 0 3 0;
#X connect 52 0 4 0;
#X connect 53 0 39 0;
#X coords 0 -1 1 1 102 62 1 100 100;
