#N canvas 0 0 450 300 10;
#X obj 102 101 playlist .MOV 200 150 {Helvetica 10 bold} #ffffff #000000
black red;
#X obj 102 265 outlet;
#X obj 39 20 initbang;
#X obj 38 41 loadbang;
#X msg 102 54 location /home/habib/videos;
#X connect 0 0 1 0;
#X connect 2 0 4 0;
#X connect 3 0 4 0;
#X connect 4 0 0 0;
#X coords 0 -1 1 1 204 152 2 100 100;
