#N canvas 480 27 595 649 10;
#X obj 101 102 popup 124 25 red Effects aging cycle binary dice edge
ascii nervous dilate warhol baltan mapcolor delay6 chromium colorReduce
colorWrap cstd dilate directBlur dodge exclusion fisheye Gblur glow
halfTone kaleidascope levels lionelBlur lumaCycle lumaKey lumaOff7
metaImg mixer PanSpinZoom posterize radialBlur rectDistort refraction
slide smear solarize spiralblur squash static stretch tile timeBlur
timeslice timeWarp TVpixel vectorize wave;
#X obj 151 2 loadbang;
#X msg 171 19 bgcolour red;
#X obj 139 640 s por_abrir;
#X msg 101 191 symbol aging;
#X msg 114 211 symbol cycle;
#X msg 128 231 symbol binary;
#X msg 142 251 symbol dice;
#X msg 155 271 symbol edge;
#X msg 169 291 symbol ascii;
#X msg 183 311 symbol nervous;
#X msg 196 331 symbol dilate;
#X msg 210 351 symbol warhol;
#X msg 220 371 symbol baltan;
#X msg 230 391 symbol mapcolor;
#X msg 240 411 symbol delay6;
#X msg 250 431 symbol ff-chromium;
#X obj 101 145 sel 0 1 2 3 4 5 6 7 8 9 10 11 12 13 14 15 16 17 18 19
29 21 22 23 24 25 26 27 28 29 30 31 32 33 34 35 36 37 38 39 40 41 42
43 44 45 46 47 48 49 50;
#X msg 260 451 symbol ff-colorreduce;
#X msg 270 471 symbol ff-colorwarp;
#X msg 280 491 symbol ff-cstd;
#X msg 290 511 symbol ff-dilate;
#X msg 300 531 symbol ff-directblur;
#X msg 310 551 symbol ff-dodge;
#X msg 320 571 symbol ff-exclusion;
#X msg 330 591 symbol ff-fisheye;
#X msg 340 611 symbol ff-gblur;
#X msg 350 631 symbol ff-glow;
#X msg 360 651 symbol ff-halftone;
#X msg 267 191 symbol ff-kaleidas;
#X msg 279 212 symbol ff-levels;
#X msg 293 232 symbol ff-lionblur;
#X msg 307 252 symbol ff-lumacycle;
#X msg 225 34 options aging cycle binary dice edge ascii nervous dilate
warhol baltan mapcolor delay6 chromium colorReduce colorWrap cstd dilate
directBlur dodge exclusion fisheye Gblur glow halfTone kaleidascope
levels lionelBlur lumaCycle lumaKey lumaOff7 metaImg mixer PanSpinZoom
posterize radialBlur rectDistort refraction slide smear solarize spiralblur
squash static stretch tile timeBlur timeslice timeWarp TVpixel vectorize
wave;
#X msg 350 312 symbol ff-metaimg;
#X msg 364 332 symbol ff-mixer;
#X msg 378 352 symbol ff-panspinzoom;
#X msg 391 372 symbol ff-posterize;
#X msg 405 392 symbol ff-radialblur;
#X msg 415 412 symbol ff-rectdist;
#X msg 425 432 symbol ff-refraction;
#X msg 435 452 symbol ff-slide;
#X msg 445 472 symbol ff-smear;
#X msg 455 492 symbol ff-solarize;
#X msg 465 511 symbol ff-spiralblur;
#X msg 475 532 symbol ff-squash;
#X msg 485 551 symbol ff-static;
#X msg 495 572 symbol ff-stretch;
#X msg 505 592 symbol ff-tile;
#X msg 515 612 symbol ff-timeblur;
#X msg 525 632 symbol ff-timeslice;
#X msg 535 652 symbol ff-timewarp;
#X msg 440 221 symbol ff-tvpixel;
#X msg 451 241 symbol ff-vectorize;
#X msg 462 261 symbol ff-wave;
#X msg 320 272 symbol ff-lumakey;
#X msg 336 292 symbol ff-lumaoffset;
#X msg 91 19 name EffecTV;
#X connect 0 0 17 0;
#X connect 1 0 57 0;
#X connect 1 0 2 0;
#X connect 1 0 33 0;
#X connect 2 0 0 0;
#X connect 4 0 3 0;
#X connect 5 0 3 0;
#X connect 6 0 3 0;
#X connect 7 0 3 0;
#X connect 8 0 3 0;
#X connect 9 0 3 0;
#X connect 10 0 3 0;
#X connect 11 0 3 0;
#X connect 12 0 3 0;
#X connect 13 0 3 0;
#X connect 14 0 3 0;
#X connect 15 0 3 0;
#X connect 16 0 3 0;
#X connect 17 0 4 0;
#X connect 17 1 5 0;
#X connect 17 2 6 0;
#X connect 17 3 7 0;
#X connect 17 4 8 0;
#X connect 17 5 9 0;
#X connect 17 6 10 0;
#X connect 17 7 11 0;
#X connect 17 8 12 0;
#X connect 17 9 13 0;
#X connect 17 10 14 0;
#X connect 17 11 15 0;
#X connect 17 12 16 0;
#X connect 17 13 18 0;
#X connect 17 14 19 0;
#X connect 17 15 20 0;
#X connect 17 16 21 0;
#X connect 17 17 22 0;
#X connect 17 18 23 0;
#X connect 17 19 24 0;
#X connect 17 20 25 0;
#X connect 17 21 26 0;
#X connect 17 22 27 0;
#X connect 17 23 28 0;
#X connect 17 24 29 0;
#X connect 17 25 30 0;
#X connect 17 26 31 0;
#X connect 17 27 32 0;
#X connect 17 28 55 0;
#X connect 17 29 56 0;
#X connect 17 30 34 0;
#X connect 17 31 35 0;
#X connect 17 32 36 0;
#X connect 17 33 37 0;
#X connect 17 34 38 0;
#X connect 17 35 39 0;
#X connect 17 36 40 0;
#X connect 17 37 41 0;
#X connect 17 38 42 0;
#X connect 17 39 43 0;
#X connect 17 40 44 0;
#X connect 17 41 45 0;
#X connect 17 42 46 0;
#X connect 17 43 47 0;
#X connect 17 44 48 0;
#X connect 17 45 49 0;
#X connect 17 46 50 0;
#X connect 17 47 51 0;
#X connect 17 48 52 0;
#X connect 17 49 53 0;
#X connect 17 50 54 0;
#X connect 18 0 3 0;
#X connect 19 0 3 0;
#X connect 20 0 3 0;
#X connect 21 0 3 0;
#X connect 22 0 3 0;
#X connect 23 0 3 0;
#X connect 24 0 3 0;
#X connect 25 0 3 0;
#X connect 26 0 3 0;
#X connect 27 0 3 0;
#X connect 28 0 3 0;
#X connect 29 0 3 0;
#X connect 30 0 3 0;
#X connect 31 0 3 0;
#X connect 32 0 3 0;
#X connect 33 0 0 0;
#X connect 34 0 3 0;
#X connect 35 0 3 0;
#X connect 36 0 3 0;
#X connect 37 0 3 0;
#X connect 38 0 3 0;
#X connect 39 0 3 0;
#X connect 40 0 3 0;
#X connect 41 0 3 0;
#X connect 42 0 3 0;
#X connect 43 0 3 0;
#X connect 44 0 3 0;
#X connect 45 0 3 0;
#X connect 46 0 3 0;
#X connect 47 0 3 0;
#X connect 48 0 3 0;
#X connect 49 0 3 0;
#X connect 50 0 3 0;
#X connect 51 0 3 0;
#X connect 52 0 3 0;
#X connect 53 0 3 0;
#X connect 54 0 3 0;
#X connect 55 0 3 0;
#X connect 56 0 3 0;
#X connect 57 0 0 0;
#X coords 0 -1 1 1 125 30 2 100 100;
