#N canvas 155 25 834 506 10;
#X obj 101 102 popup 124 25 blue GEM-FreeFrame chromium colorReduce
colourWrap cstd dilate directBlur dodge exclusion fisheye Gblur glow
halfTone kaleidascope levels lionelBlur lumaCycle lumaKey lumaOff7
metaImg mixer panspinZoom posterize radialBlur rectDistort refraction
slide smear solarize spiralblur squash static stretch tile timeBlur
timeslice timeWarp TVpixel vectorize wave;
#X obj 151 2 loadbang;
#X obj 569 564 s por_abrir;
#X obj 71 568 bng 60 250 50 0 empty empty empty 17 7 0 10 -262144 -1
-1;
#X msg 71 19 name GEM-FreeFrame;
#X obj 600 6 pix_BackDropKeyVFX;
#X obj 600 28 pix_BackLightVFX;
#X obj 600 50 pix_BloomVFX;
#X obj 600 71 pix_BurnVFX;
#X obj 600 93 pix_ChromiumVFX;
#X obj 600 114 pix_ColourReduceVFX;
#X obj 763 6 pix_ColourWarpVFX;
#X obj 763 27 pix_DeInterlaceVFX;
#X obj 763 48 pix_DilateVFX;
#X obj 763 68 pix_DirectionalBlurVFX;
#X obj 763 88 pix_DodgeVFX;
#X obj 763 108 pix_ExclusionVFX;
#X obj 763 128 pix_FishEyeVFX;
#X obj 763 148 pix_GaussianBlurVFX;
#X obj 913 6 pix_GlowVFX;
#X obj 913 27 pix_HalfToneVFX;
#X obj 913 48 pix_KaleidascopeVFX;
#X obj 913 68 pix_LevelsVFX -----------------------;
#X obj 913 88 pix_LionelBlurVFX;
#X obj 913 108 pix_LumaCycleVFX;
#X obj 913 128 pix_LumaKeyVFX;
#X obj 913 148 pix_LumaOffsetVFX;
#X obj 913 169 pix_MetaImageVFX;
#X obj 913 190 pix_MixerVFX;
#X obj 913 211 pix_PanSpinZoomVFX;
#X obj 913 231 pix_PosterizeVFX;
#X obj 913 251 pix_RadialBlurVFX;
#X obj 913 271 pix_RectDistortVFX;
#X obj 913 291 pix_RefractionVFX;
#X obj 913 311 pix_SlideVFX;
#X obj 913 331 pix_SmearVFX;
#X obj 913 352 pix_SolarizeVFX;
#X obj 913 373 pix_SpiralBlurVFX;
#X obj 913 394 pix_SquashVFX;
#X obj 913 414 pix_StaticVFX;
#X obj 913 434 pix_StretchVFX;
#X obj 913 454 pix_TileVFX;
#X obj 913 474 pix_TimeBlurVFX;
#X obj 913 494 pix_TimeSliceVFX;
#X obj 913 514 pix_TimeWarpVFX;
#X obj 913 534 pix_TVPixelVFX;
#X obj 913 554 pix_VectorizeVFX;
#X obj 913 574 pix_WaveVFX;
#X msg 101 191 symbol GEM-ff-BackDropKey;
#X msg 131 251 symbol GEM-ff-Burn;
#X msg 121 231 symbol GEM-ff-Bloom;
#X msg 111 211 symbol GEM-ff-BackLight;
#X msg 141 271 symbol GEM-ff-Chromium;
#X msg 151 291 symbol GEM-ff-ColourReduce;
#X msg 161 311 symbol GEM-ff-ColourWrap;
#X msg 171 331 symbol GEM-ff-DeInterlace;
#X msg 181 351 symbol GEM-ff-Dilate;
#X msg 191 371 symbol GEM-ff-DirectonalBLur;
#X msg 201 391 symbol GEM-ff-Dodge;
#X msg 211 411 symbol GEM-ff-Excluion;
#X msg 267 191 symbol GEM-ff-FishEye;
#X msg 279 212 symbol GEM-ff-FishEye;
#X msg 293 232 symbol GEM-ff-GaussianBlur;
#X msg 307 252 symbol GEM-ff-Glow;
#X msg 318 272 symbol GEM-ff-HalfTone;
#X msg 336 292 symbol GEM-ff-Kaleidas;
#X msg 350 312 symbol GEM-ff-Levels;
#X msg 364 332 symbol GEM-ff-LionelBlur;
#X msg 378 352 symbol GEM-ff-LumaCycle;
#X msg 391 372 symbol GEM-ff-LumaKey;
#X msg 405 392 symbol GEM-ff-MetaImage;
#X msg 415 412 symbol GEM-ff-Mixer;
#X msg 476 183 symbol GEM-ff-PanSpinZoon;
#X msg 486 203 symbol GEM-ff-Posterize;
#X msg 496 223 symbol GEM-ff-RadialBlur;
#X msg 506 243 symbol GEM-ff-RectDistort;
#X msg 516 262 symbol GEM-ff-Refraction;
#X msg 526 283 symbol GEM-ff-Slide;
#X msg 536 302 symbol GEM-ff-Smear;
#X msg 546 323 symbol GEM-ff-Solarize;
#X msg 556 343 symbol GEM-ff-SpiralBlur;
#X msg 566 363 symbol GEM-ff-Squash;
#X msg 576 383 symbol GEM-ff-Static;
#X msg 586 403 symbol GEM-ff-Stretch;
#X msg 652 181 symbol GEM-ff-Tile;
#X msg 662 201 symbol GEM-ff-TimeBlur;
#X msg 674 221 symbol GEM-ff-TimeSlice;
#X msg 682 241 symbol GEM-ff-TimeWrap;
#X msg 692 261 symbol GEM-ff-TVPixel;
#X msg 704 281 symbol GEM-ff-Vectorize;
#X msg 714 301 symbol GEM-ff-Wave;
#X obj 101 142 sel 0 1 2 3 4 5 6 7 8 9 10 11 12 13 14 15 16 17 18 19
20 21 22 23 24 25 26 27 28 29 30 31 32 33 34 35 36 37 38 39 40 41 42
43;
#X msg 195 19 bgcolour blue;
#X msg 225 33 options BgDropKey BgLight Bloom Burn Chormium ColourReduce
ColourWrap DeInterlace Dilate DirectionalBlur Dodge Exclusion FishEye
GaussianBlur Glow HalfTone Kaleidas Levels LionelBlur LumaCycle LumaKey
LumaOffSet MetaImage Mixer PanSpinZoom Posterize RadialBlur RectDistort
Refraction Slide Smear Solarize Spiralblur Squash Static Stretch Tile
TimeBlur TimeSlice TimeWarp TVpixel Vectorize Wave;
#X connect 0 0 91 0;
#X connect 1 0 4 0;
#X connect 1 0 92 0;
#X connect 1 0 93 0;
#X connect 3 0 4 0;
#X connect 4 0 0 0;
#X connect 48 0 2 0;
#X connect 48 0 3 0;
#X connect 49 0 2 0;
#X connect 49 0 3 0;
#X connect 50 0 2 0;
#X connect 50 0 3 0;
#X connect 51 0 2 0;
#X connect 51 0 3 0;
#X connect 52 0 2 0;
#X connect 52 0 3 0;
#X connect 53 0 2 0;
#X connect 53 0 3 0;
#X connect 54 0 2 0;
#X connect 54 0 3 0;
#X connect 55 0 2 0;
#X connect 55 0 3 0;
#X connect 56 0 2 0;
#X connect 56 0 3 0;
#X connect 57 0 2 0;
#X connect 57 0 3 0;
#X connect 58 0 2 0;
#X connect 58 0 3 0;
#X connect 59 0 2 0;
#X connect 59 0 3 0;
#X connect 60 0 2 0;
#X connect 60 0 3 0;
#X connect 61 0 2 0;
#X connect 61 0 3 0;
#X connect 62 0 2 0;
#X connect 62 0 3 0;
#X connect 63 0 2 0;
#X connect 63 0 3 0;
#X connect 64 0 2 0;
#X connect 64 0 3 0;
#X connect 65 0 2 0;
#X connect 65 0 3 0;
#X connect 66 0 2 0;
#X connect 66 0 3 0;
#X connect 67 0 2 0;
#X connect 67 0 3 0;
#X connect 68 0 2 0;
#X connect 68 0 3 0;
#X connect 69 0 2 0;
#X connect 69 0 3 0;
#X connect 70 0 2 0;
#X connect 70 0 3 0;
#X connect 71 0 2 0;
#X connect 71 0 3 0;
#X connect 72 0 2 0;
#X connect 72 0 3 0;
#X connect 73 0 2 0;
#X connect 73 0 3 0;
#X connect 74 0 2 0;
#X connect 74 0 3 0;
#X connect 75 0 2 0;
#X connect 75 0 3 0;
#X connect 76 0 2 0;
#X connect 76 0 3 0;
#X connect 77 0 2 0;
#X connect 77 0 3 0;
#X connect 78 0 2 0;
#X connect 78 0 3 0;
#X connect 79 0 2 0;
#X connect 79 0 3 0;
#X connect 80 0 2 0;
#X connect 80 0 3 0;
#X connect 81 0 2 0;
#X connect 81 0 3 0;
#X connect 82 0 2 0;
#X connect 82 0 3 0;
#X connect 83 0 2 0;
#X connect 83 0 3 0;
#X connect 84 0 2 0;
#X connect 84 0 3 0;
#X connect 85 0 2 0;
#X connect 85 0 3 0;
#X connect 86 0 2 0;
#X connect 86 0 3 0;
#X connect 87 0 3 0;
#X connect 88 0 3 0;
#X connect 89 0 3 0;
#X connect 90 0 3 0;
#X connect 91 0 48 0;
#X connect 91 1 51 0;
#X connect 91 2 50 0;
#X connect 91 3 49 0;
#X connect 91 4 52 0;
#X connect 91 5 53 0;
#X connect 91 6 54 0;
#X connect 91 7 55 0;
#X connect 91 8 56 0;
#X connect 91 9 57 0;
#X connect 91 10 58 0;
#X connect 91 11 59 0;
#X connect 91 12 60 0;
#X connect 91 13 61 0;
#X connect 91 14 62 0;
#X connect 91 15 63 0;
#X connect 91 16 64 0;
#X connect 91 17 65 0;
#X connect 91 18 66 0;
#X connect 91 19 67 0;
#X connect 91 20 68 0;
#X connect 91 21 69 0;
#X connect 91 22 70 0;
#X connect 91 23 71 0;
#X connect 91 24 72 0;
#X connect 91 25 73 0;
#X connect 91 26 74 0;
#X connect 91 27 75 0;
#X connect 91 28 76 0;
#X connect 91 29 77 0;
#X connect 91 30 78 0;
#X connect 91 31 79 0;
#X connect 91 32 80 0;
#X connect 91 33 81 0;
#X connect 91 34 82 0;
#X connect 91 35 83 0;
#X connect 91 36 84 0;
#X connect 91 37 85 0;
#X connect 91 38 86 0;
#X connect 91 39 87 0;
#X connect 91 40 88 0;
#X connect 91 41 89 0;
#X connect 91 42 90 0;
#X connect 92 0 0 0;
#X connect 93 0 0 0;
#X coords 0 -1 1 1 125 30 2 100 100;
