#N canvas 353 198 671 291 10;
#X obj 101 102 popup 124 25 red GEM-HEAD gemhead gemwin gemLight;
#X obj 29 246 s por_abrir;
#X obj 137 18 loadbang;
#X obj 57 170 bng 15 250 50 0 empty empty empty 17 7 0 10 -262144 -1
-1;
#X msg 91 57 name GEM-HEAD;
#X msg 181 50 bgcolour red;
#X msg 101 151 symbol GEM-head;
#X msg 114 171 symbol GEM-win;
#X obj 101 130 sel 0 1 2;
#X msg 167 84 options gemhead gemwin gemLight;
#X msg 130 192 symbol GEM-worldlight;
#X connect 0 0 8 0;
#X connect 2 0 4 0;
#X connect 2 0 9 0;
#X connect 2 0 5 0;
#X connect 2 0 3 0;
#X connect 3 0 4 0;
#X connect 4 0 0 0;
#X connect 5 0 0 0;
#X connect 6 0 1 0;
#X connect 6 0 3 0;
#X connect 7 0 1 0;
#X connect 7 0 3 0;
#X connect 8 0 6 0;
#X connect 8 1 7 0;
#X connect 8 2 10 0;
#X connect 9 0 0 0;
#X connect 10 0 1 0;
#X connect 10 0 3 0;
#X coords 0 -1 1 1 125 30 2 100 100;
