#N canvas 807 455 450 300 10;
#X obj 101 102 popup 124 25 green VideoOUT xv glx sdl;
#X msg 84 63 name VideoOUT;
#X obj 178 18 loadbang;
#X msg 298 84 options xv glx sdl;
#X obj 101 149 sel 0 1 2;
#X msg 101 174 symbol xv;
#X msg 113 193 symbol glx;
#X msg 123 213 symbol glx;
#X obj 101 242 s por_abrir;
#X obj 16 153 bng 15 250 50 0 empty empty empty 17 7 0 10 -262144 -1
-1;
#X msg 178 62 bgcolour green;
#X connect 0 0 4 0;
#X connect 1 0 0 0;
#X connect 2 0 1 0;
#X connect 2 0 10 0;
#X connect 2 0 3 0;
#X connect 3 0 0 0;
#X connect 4 0 5 0;
#X connect 4 1 6 0;
#X connect 4 2 7 0;
#X connect 5 0 8 0;
#X connect 5 0 9 0;
#X connect 6 0 8 0;
#X connect 6 0 9 0;
#X connect 7 0 8 0;
#X connect 7 0 9 0;
#X connect 9 0 1 0;
#X connect 10 0 0 0;
#X coords 0 -1 1 1 125 30 2 100 100;
