#N canvas 386 36 450 300 10;
#X obj 101 102 popup 124 25 darkblue Mixers mix 3dmix add mult divide
;
#X obj 29 246 s por_abrir;
#X obj 101 130 sel 0 1 2 3 4 5 6;
#X obj 57 170 bng 15 250 50 0 empty empty empty 17 7 0 10 -262144 -1
-1;
#X msg 128 191 symbol DV;
#X msg 91 57 name Mixers;
#X msg 181 50 bgcolour darkblue;
#X msg 101 151 symbol mixer;
#X obj 137 18 initbang;
#X msg 167 84 options mix 3dmix add mult divide;
#X msg 114 171 symbol GEM-pix_mix;
#X connect 0 0 2 0;
#X connect 2 0 7 0;
#X connect 2 1 10 0;
#X connect 2 2 4 0;
#X connect 3 0 5 0;
#X connect 4 0 1 0;
#X connect 4 0 3 0;
#X connect 5 0 0 0;
#X connect 6 0 0 0;
#X connect 7 0 1 0;
#X connect 7 0 3 0;
#X connect 8 0 5 0;
#X connect 8 0 9 0;
#X connect 8 0 6 0;
#X connect 9 0 0 0;
#X connect 10 0 1 0;
#X connect 10 0 3 0;
#X coords 0 -1 1 1 125 30 2 100 100;
