#N canvas 528 132 671 300 10;
#X obj 101 102 popup 124 25 pink GL sphere cube torus cone curve3d
cylinder model;
#X obj 29 246 s por_abrir;
#X obj 137 18 loadbang;
#X msg 91 57 name GL;
#X msg 167 84 options sphere cube torus cone curve3d cylinder model
;
#X msg 181 50 bgcolour pink;
#X obj 101 130 sel 0 1 2 3 4 5 6;
#X obj 57 170 bng 15 250 50 0 empty empty empty 17 7 0 10 -262144 -1
-1;
#X msg 101 151 symbol GEM-sphere;
#X msg 114 171 symbol GEM-cube;
#X msg 128 191 symbol GEM-torus;
#X msg 141 211 symbol GEM-cone;
#X msg 154 231 symbol GEM-curve;
#X msg 168 251 symbol GEM-cylinder;
#X msg 178 271 symbol GEM-model;
#X connect 0 0 6 0;
#X connect 2 0 3 0;
#X connect 2 0 4 0;
#X connect 2 0 5 0;
#X connect 3 0 0 0;
#X connect 4 0 0 0;
#X connect 5 0 0 0;
#X connect 6 0 8 0;
#X connect 6 1 9 0;
#X connect 6 2 10 0;
#X connect 6 3 11 0;
#X connect 6 4 12 0;
#X connect 6 5 13 0;
#X connect 6 6 14 0;
#X connect 7 0 3 0;
#X connect 8 0 1 0;
#X connect 8 0 7 0;
#X connect 9 0 1 0;
#X connect 9 0 7 0;
#X connect 10 0 1 0;
#X connect 10 0 7 0;
#X connect 11 0 1 0;
#X connect 11 0 7 0;
#X connect 12 0 1 0;
#X connect 12 0 7 0;
#X connect 13 0 1 0;
#X connect 13 0 7 0;
#X connect 14 0 1 0;
#X connect 14 0 7 0;
#X coords 0 -1 1 1 125 30 1 100 100;
