#N canvas 2 54 450 300 10;
#X obj 101 102 popup 124 25 yellow Bridges pdp2gem gem2pdp gem2#;
#X obj 27 308 s por_abrir;
#X obj 137 18 loadbang;
#X obj 101 130 sel 0 1 2;
#X msg 91 57 name Bridges;
#X msg 181 50 bgcolour yellow;
#X msg 101 151 symbol pdp2gem;
#X msg 114 171 symbol gem2pdp;
#X msg 128 191 symbol gem2#;
#X msg 167 84 options pdp2gem gem2pdp gem2#;
#X connect 0 0 3 0;
#X connect 2 0 4 0;
#X connect 2 0 9 0;
#X connect 2 0 5 0;
#X connect 3 0 6 0;
#X connect 3 1 7 0;
#X connect 3 2 8 0;
#X connect 4 0 0 0;
#X connect 5 0 0 0;
#X connect 6 0 1 0;
#X connect 7 0 1 0;
#X connect 8 0 1 0;
#X connect 9 0 0 0;
#X coords 0 -1 1 1 125 30 2 100 100;
