#N canvas 13 39 816 670 10;
#X obj 101 102 popup 124 25 purple FreeFrame chromium colorReduce colourWrap
cstd dilate directBlur dodge exclusion fisheye Gblur glow halfTone
kaleidascope levels lionelBlur lumaCycle lumaKey lumaOff7 metaImg mixer
panspinZoom posterize radialBlur rectDistort refraction slide smear
solarize spiralblur squash static stretch tile timeBlur timeslice timeWarp
TVpixel vectorize wave;
#X obj 151 2 loadbang;
#X obj 569 564 s por_abrir;
#X msg 101 191 symbol ff-chromium;
#X msg 111 211 symbol ff-colorreduce;
#X msg 131 251 symbol ff-cstd;
#X msg 141 271 symbol ff-dilate;
#X msg 151 291 symbol ff-directblur;
#X msg 161 311 symbol ff-dodge;
#X msg 171 331 symbol ff-exclusion;
#X msg 181 351 symbol ff-fisheye;
#X msg 201 391 symbol ff-glow;
#X msg 211 411 symbol ff-halftone;
#X msg 267 191 symbol ff-kaleidas;
#X msg 279 212 symbol ff-levels;
#X msg 293 232 symbol ff-lionblur;
#X msg 307 252 symbol ff-lumacycle;
#X msg 350 312 symbol ff-metaimg;
#X msg 364 332 symbol ff-mixer;
#X msg 378 352 symbol ff-panspinzoom;
#X msg 391 372 symbol ff-posterize;
#X msg 405 392 symbol ff-radialblur;
#X msg 415 412 symbol ff-rectdist;
#X msg 476 183 symbol ff-refraction;
#X msg 486 203 symbol ff-slide;
#X msg 496 223 symbol ff-smear;
#X msg 506 243 symbol ff-solarize;
#X msg 516 262 symbol ff-spiralblur;
#X msg 526 283 symbol ff-squash;
#X msg 536 302 symbol ff-static;
#X msg 546 323 symbol ff-stretch;
#X msg 556 343 symbol ff-tile;
#X msg 566 363 symbol ff-timeblur;
#X msg 576 383 symbol ff-timeslice;
#X msg 586 403 symbol ff-timewarp;
#X msg 652 181 symbol ff-tvpixel;
#X msg 663 201 symbol ff-vectorize;
#X msg 674 221 symbol ff-wave;
#X msg 320 272 symbol ff-lumakey;
#X msg 336 292 symbol ff-lumaoffset;
#X msg 71 19 name FreeFrame;
#X msg 171 19 bgcolour purple;
#X msg 121 231 symbol ff-colourwarp;
#X msg 225 34 options chromium colorReduce colourWrap cstd dilate directBlur
dodge exclusion fisheye Gblur glow halfTone kaleidascope levels lionelBlur
lumaCycle lumaKey lumaOff7 metaImg mixer panspinZoom posterize radialBlur
rectDistort refraction slide smear solarize spiralblur squash static
stretch tile timeBlur timeslice timeWarp TVpixel vectorize wave;
#X obj 100 145 sel 0 1 2 3 4 5 6 7 8 9 10 11 12 13 14 15 16 17 18 19
20 21 22 23 24 25 26 27 28 29 30 31 32 33 34 35 36 37 38;
#X obj 71 568 bng 60 250 50 0 empty empty empty 17 7 0 10 -262144 -1
-1;
#X msg 191 371 symbol ff-gblur;
#X connect 0 0 44 0;
#X connect 1 0 40 0;
#X connect 1 0 41 0;
#X connect 1 0 43 0;
#X connect 3 0 2 0;
#X connect 3 0 45 0;
#X connect 4 0 2 0;
#X connect 4 0 45 0;
#X connect 5 0 2 0;
#X connect 5 0 45 0;
#X connect 6 0 2 0;
#X connect 6 0 45 0;
#X connect 7 0 2 0;
#X connect 7 0 45 0;
#X connect 8 0 2 0;
#X connect 8 0 45 0;
#X connect 9 0 2 0;
#X connect 9 0 45 0;
#X connect 10 0 2 0;
#X connect 10 0 45 0;
#X connect 11 0 2 0;
#X connect 11 0 45 0;
#X connect 12 0 2 0;
#X connect 12 0 45 0;
#X connect 13 0 2 0;
#X connect 13 0 45 0;
#X connect 14 0 2 0;
#X connect 14 0 45 0;
#X connect 15 0 2 0;
#X connect 15 0 45 0;
#X connect 16 0 2 0;
#X connect 16 0 45 0;
#X connect 17 0 2 0;
#X connect 17 0 45 0;
#X connect 18 0 2 0;
#X connect 18 0 45 0;
#X connect 19 0 2 0;
#X connect 19 0 45 0;
#X connect 20 0 2 0;
#X connect 20 0 45 0;
#X connect 21 0 2 0;
#X connect 21 0 45 0;
#X connect 22 0 2 0;
#X connect 22 0 45 0;
#X connect 23 0 2 0;
#X connect 23 0 45 0;
#X connect 24 0 2 0;
#X connect 24 0 45 0;
#X connect 25 0 2 0;
#X connect 25 0 45 0;
#X connect 26 0 2 0;
#X connect 26 0 45 0;
#X connect 27 0 2 0;
#X connect 27 0 45 0;
#X connect 28 0 2 0;
#X connect 28 0 45 0;
#X connect 29 0 2 0;
#X connect 29 0 45 0;
#X connect 30 0 2 0;
#X connect 30 0 45 0;
#X connect 31 0 2 0;
#X connect 31 0 45 0;
#X connect 32 0 2 0;
#X connect 32 0 45 0;
#X connect 33 0 2 0;
#X connect 33 0 45 0;
#X connect 34 0 2 0;
#X connect 34 0 45 0;
#X connect 35 0 2 0;
#X connect 35 0 45 0;
#X connect 36 0 2 0;
#X connect 36 0 45 0;
#X connect 37 0 2 0;
#X connect 37 0 45 0;
#X connect 38 0 2 0;
#X connect 38 0 45 0;
#X connect 39 0 2 0;
#X connect 39 0 45 0;
#X connect 40 0 0 0;
#X connect 41 0 0 0;
#X connect 42 0 2 0;
#X connect 42 0 45 0;
#X connect 43 0 0 0;
#X connect 44 0 3 0;
#X connect 44 1 4 0;
#X connect 44 2 42 0;
#X connect 44 3 5 0;
#X connect 44 4 6 0;
#X connect 44 5 7 0;
#X connect 44 6 8 0;
#X connect 44 7 9 0;
#X connect 44 8 10 0;
#X connect 44 9 46 0;
#X connect 44 10 11 0;
#X connect 44 11 12 0;
#X connect 44 12 13 0;
#X connect 44 13 14 0;
#X connect 44 14 15 0;
#X connect 44 15 16 0;
#X connect 44 16 38 0;
#X connect 44 17 39 0;
#X connect 44 18 17 0;
#X connect 44 19 18 0;
#X connect 44 20 19 0;
#X connect 44 21 20 0;
#X connect 44 22 21 0;
#X connect 44 23 22 0;
#X connect 44 24 23 0;
#X connect 44 25 24 0;
#X connect 44 26 25 0;
#X connect 44 27 26 0;
#X connect 44 28 27 0;
#X connect 44 29 28 0;
#X connect 44 30 29 0;
#X connect 44 31 30 0;
#X connect 44 32 31 0;
#X connect 44 33 32 0;
#X connect 44 34 33 0;
#X connect 44 35 34 0;
#X connect 44 36 35 0;
#X connect 44 37 36 0;
#X connect 44 38 37 0;
#X connect 45 0 40 0;
#X connect 46 0 2 0;
#X connect 46 0 45 0;
#X coords 0 -1 1 1 125 30 2 100 100;
