#N canvas 1 27 450 300 10;
#X obj 101 102 popup 124 25 green GUI grid colorgrid videogrid;
#X obj 27 308 s por_abrir;
#X obj 137 18 loadbang;
#X msg 181 50 bgcolour green;
#X msg 91 57 name GUI;
#X obj 101 130 sel 0 1 2;
#X msg 101 151 symbol grid;
#X msg 114 171 symbol colorgrid;
#X msg 128 191 symbol videogrid;
#X msg 167 84 options grid colorgrid videogrid;
#X text 181 139 BUGADO - por algum motivo o grid;
#X text 180 151 quebra o PD se for removido do patch;
#X connect 0 0 5 0;
#X connect 2 0 4 0;
#X connect 2 0 9 0;
#X connect 2 0 3 0;
#X connect 3 0 0 0;
#X connect 4 0 0 0;
#X connect 5 0 6 0;
#X connect 5 1 7 0;
#X connect 5 2 8 0;
#X connect 6 0 1 0;
#X connect 7 0 1 0;
#X connect 8 0 1 0;
#X connect 9 0 0 0;
#X coords 0 -1 1 1 125 30 1 100 100;
