#N canvas 575 39 595 668 10;
#X obj 101 102 popup 124 25 red EffecTV aging cycle binary dice edge
ascii nervous dilate warhol baltan mapcolor delay6;
#X obj 151 2 loadbang;
#X msg 171 19 bgcolour red;
#X obj 139 640 s por_abrir;
#X msg 101 191 symbol aging;
#X msg 114 211 symbol cycle;
#X msg 128 231 symbol binary;
#X msg 142 251 symbol dice;
#X msg 155 271 symbol edge;
#X msg 169 291 symbol ascii;
#X msg 183 311 symbol nervous;
#X msg 196 331 symbol dilate;
#X msg 210 351 symbol warhol;
#X msg 220 371 symbol baltan;
#X msg 230 391 symbol mapcolor;
#X msg 240 411 symbol delay6;
#X msg 91 30 name EffecTV;
#X msg 225 34 options aging cycle binary dice edge ascii nervous dilate
warhol baltan mapcolor delay6;
#X obj 101 145 sel 0 1 2 3 4 5 6 7 8 9 10;
#X obj 34 383 bng 15 250 50 0 empty empty empty 17 7 0 10 -262144 -1
-1;
#X connect 0 0 18 0;
#X connect 1 0 16 0;
#X connect 1 0 2 0;
#X connect 1 0 17 0;
#X connect 2 0 0 0;
#X connect 4 0 3 0;
#X connect 4 0 19 0;
#X connect 5 0 3 0;
#X connect 5 0 19 0;
#X connect 6 0 3 0;
#X connect 7 0 3 0;
#X connect 7 0 19 0;
#X connect 8 0 3 0;
#X connect 8 0 19 0;
#X connect 9 0 3 0;
#X connect 9 0 19 0;
#X connect 10 0 3 0;
#X connect 10 0 19 0;
#X connect 11 0 3 0;
#X connect 11 0 19 0;
#X connect 12 0 3 0;
#X connect 12 0 19 0;
#X connect 13 0 3 0;
#X connect 13 0 19 0;
#X connect 14 0 3 0;
#X connect 14 0 19 0;
#X connect 15 0 3 0;
#X connect 15 0 19 0;
#X connect 16 0 0 0;
#X connect 17 0 0 0;
#X connect 18 0 4 0;
#X connect 18 1 5 0;
#X connect 18 2 6 0;
#X connect 18 3 7 0;
#X connect 18 4 8 0;
#X connect 18 5 9 0;
#X connect 18 6 10 0;
#X connect 18 7 11 0;
#X connect 18 8 12 0;
#X connect 18 9 13 0;
#X connect 18 10 14 0;
#X connect 18 11 15 0;
#X connect 19 0 16 0;
#X coords 0 -1 1 1 125 30 2 100 100;
