#N canvas 2 54 450 300 10;
#X obj 101 102 popup 124 25 blue Sources v4l v4l2 yqt plasma noise
text img color form;
#X msg 167 84 options v4l v4l2 yqt plasma noise text img color form
;
#X msg 91 57 name Sources;
#X obj 101 130 sel 0 1 2 3 4 5 6 7 8;
#X msg 101 151 symbol v4l;
#X obj 27 308 s por_abrir;
#X msg 114 171 symbol v4l2;
#X msg 128 191 symbol yqt;
#X msg 142 211 symbol plasma;
#X msg 155 231 symbol noise;
#X msg 169 251 symbol text;
#X msg 183 271 symbol img;
#X msg 196 291 symbol color;
#X msg 210 311 symbol form;
#X obj 137 18 loadbang;
#X msg 181 50 bgcolour blue;
#X connect 0 0 3 0;
#X connect 1 0 0 0;
#X connect 2 0 0 0;
#X connect 3 0 4 0;
#X connect 3 1 6 0;
#X connect 3 2 7 0;
#X connect 3 3 8 0;
#X connect 3 4 9 0;
#X connect 3 5 10 0;
#X connect 3 6 11 0;
#X connect 3 7 12 0;
#X connect 3 8 13 0;
#X connect 4 0 5 0;
#X connect 6 0 5 0;
#X connect 7 0 5 0;
#X connect 8 0 5 0;
#X connect 9 0 5 0;
#X connect 10 0 5 0;
#X connect 11 0 5 0;
#X connect 12 0 5 0;
#X connect 13 0 5 0;
#X connect 14 0 2 0;
#X connect 14 0 1 0;
#X connect 14 0 15 0;
#X connect 15 0 0 0;
#X coords 0 -1 1 1 125 30 2 100 100;
