#N canvas 75 25 834 506 10;
#X obj 101 102 popup 124 25 #00ff99 Interface hSlider vSlider knob
color playlist contador MIDI OSC arduino;
#X obj 151 2 loadbang;
#X obj 102 391 s por_abrir;
#X obj 71 288 bng 60 250 50 0 empty empty empty 17 7 0 10 -262144 -1
-1;
#X msg 195 18 bgcolour #00ff99;
#X msg 71 19 name Interface;
#X msg 101 191 symbol hSlider;
#X msg 111 211 symbol vSider;
#X msg 121 231 symbol colorgrid;
#X msg 131 251 symbol playlist;
#X msg 150 44 options hSlider vSlider color playlist knob contador
MIDI OSC arduino;
#X msg 141 271 symbol knob;
#X msg 151 291 symbol contador;
#X msg 161 311 symbol MIDi;
#X msg 171 331 symbol OSC;
#X msg 181 351 symbol Arduino;
#X obj 101 141 sel 0 1 2 3 4 5 6 7 8;
#X connect 0 0 16 0;
#X connect 1 0 5 0;
#X connect 1 0 4 0;
#X connect 1 0 10 0;
#X connect 3 0 5 0;
#X connect 4 0 0 0;
#X connect 5 0 0 0;
#X connect 6 0 2 0;
#X connect 6 0 3 0;
#X connect 7 0 2 0;
#X connect 7 0 3 0;
#X connect 8 0 2 0;
#X connect 8 0 3 0;
#X connect 9 0 2 0;
#X connect 9 0 3 0;
#X connect 10 0 0 0;
#X connect 11 0 2 0;
#X connect 11 0 3 0;
#X connect 12 0 2 0;
#X connect 12 0 3 0;
#X connect 13 0 2 0;
#X connect 13 0 3 0;
#X connect 14 0 2 0;
#X connect 14 0 3 0;
#X connect 15 0 2 0;
#X connect 15 0 3 0;
#X connect 16 0 6 0;
#X connect 16 1 7 0;
#X connect 16 2 8 0;
#X connect 16 3 9 0;
#X connect 16 4 11 0;
#X connect 16 5 12 0;
#X connect 16 6 13 0;
#X connect 16 7 14 0;
#X connect 16 8 15 0;
#X coords 0 -1 1 1 125 30 2 100 100;
