#N canvas 170 25 835 506 10;
#X obj 101 102 popup 124 25 purple GEM-FreeFrame chromium colorReduce
colourWrap cstd dilate directBlur dodge exclusion fisheye Gblur glow
halfTone kaleidascope levels lionelBlur lumaCycle lumaKey lumaOff7
metaImg mixer panspinZoom posterize radialBlur rectDistort refraction
slide smear solarize spiralblur squash static stretch tile timeBlur
timeslice timeWarp TVpixel vectorize wave;
#X obj 151 2 loadbang;
#X obj 569 564 s por_abrir;
#X msg 101 191 symbol ff-chromium;
#X msg 111 211 symbol ff-colorreduce;
#X msg 131 251 symbol ff-cstd;
#X msg 141 271 symbol ff-dilate;
#X msg 151 291 symbol ff-directblur;
#X msg 161 311 symbol ff-dodge;
#X msg 171 331 symbol ff-exclusion;
#X msg 181 351 symbol ff-fisheye;
#X msg 201 391 symbol ff-glow;
#X msg 211 411 symbol ff-halftone;
#X msg 267 191 symbol ff-kaleidas;
#X msg 279 212 symbol ff-levels;
#X msg 293 232 symbol ff-lionblur;
#X msg 307 252 symbol ff-lumacycle;
#X msg 350 312 symbol ff-metaimg;
#X msg 364 332 symbol ff-mixer;
#X msg 378 352 symbol ff-panspinzoom;
#X msg 391 372 symbol ff-posterize;
#X msg 405 392 symbol ff-radialblur;
#X msg 415 412 symbol ff-rectdist;
#X msg 476 183 symbol ff-refraction;
#X msg 486 203 symbol ff-slide;
#X msg 496 223 symbol ff-smear;
#X msg 506 243 symbol ff-solarize;
#X msg 516 262 symbol ff-spiralblur;
#X msg 526 283 symbol ff-squash;
#X msg 536 302 symbol ff-static;
#X msg 546 323 symbol ff-stretch;
#X msg 556 343 symbol ff-tile;
#X msg 566 363 symbol ff-timeblur;
#X msg 576 383 symbol ff-timeslice;
#X msg 586 403 symbol ff-timewarp;
#X msg 652 181 symbol ff-tvpixel;
#X msg 663 201 symbol ff-vectorize;
#X msg 674 221 symbol ff-wave;
#X msg 320 272 symbol ff-lumakey;
#X msg 336 292 symbol ff-lumaoffset;
#X msg 171 19 bgcolour purple;
#X msg 121 231 symbol ff-colourwarp;
#X msg 225 34 options chromium colorReduce colourWrap cstd dilate directBlur
dodge exclusion fisheye Gblur glow halfTone kaleidascope levels lionelBlur
lumaCycle lumaKey lumaOff7 metaImg mixer panspinZoom posterize radialBlur
rectDistort refraction slide smear solarize spiralblur squash static
stretch tile timeBlur timeslice timeWarp TVpixel vectorize wave;
#X obj 100 145 sel 0 1 2 3 4 5 6 7 8 9 10 11 12 13 14 15 16 17 18 19
20 21 22 23 24 25 26 27 28 29 30 31 32 33 34 35 36 37 38;
#X obj 71 568 bng 60 250 50 0 empty empty empty 17 7 0 10 -262144 -1
-1;
#X msg 191 371 symbol ff-gblur;
#X msg 71 19 name GEM-FreeFrame;
#X obj 600 6 pix_BackDropKeyVFX;
#X obj 600 28 pix_BackLightVFX;
#X obj 600 50 pix_BloomVFX;
#X obj 600 71 pix_BurnVFX;
#X obj 600 93 pix_ChromiumVFX;
#X obj 600 114 pix_ColourReduceVFX;
#X obj 763 6 pix_ColourWarpVFX;
#X obj 763 27 pix_DeInterlaceVFX;
#X obj 763 48 pix_DilateVFX;
#X obj 763 68 pix_DirectionalBlurVFX;
#X obj 763 88 pix_DodgeVFX;
#X obj 763 108 pix_ExclusionVFX;
#X obj 763 128 pix_FishEyeVFX;
#X obj 763 148 pix_GaussianBlurVFX;
#X obj 913 6 pix_GlowVFX;
#X obj 913 27 pix_HalfToneVFX;
#X obj 913 48 pix_KaleidascopeVFX;
#X obj 913 68 pix_LevelsVFX -----------------------;
#X obj 913 88 pix_LionelBlurVFX;
#X obj 913 108 pix_LumaCycleVFX;
#X obj 913 128 pix_LumaKeyVFX;
#X obj 913 148 pix_LumaOffsetVFX;
#X obj 913 169 pix_MetaImageVFX;
#X obj 913 190 pix_MixerVFX;
#X obj 913 211 pix_PanSpinZoomVFX;
#X obj 913 231 pix_PosterizeVFX;
#X obj 913 251 pix_RadialBlurVFX;
#X obj 913 271 pix_RectDistortVFX;
#X obj 913 291 pix_RefractionVFX;
#X obj 913 311 pix_SlideVFX;
#X obj 913 331 pix_SmearVFX;
#X obj 913 352 pix_SolarizeVFX;
#X obj 913 373 pix_SpiralBlurVFX;
#X obj 913 394 pix_SquashVFX;
#X obj 913 414 pix_StaticVFX;
#X obj 913 434 pix_StretchVFX;
#X obj 913 454 pix_TileVFX;
#X obj 913 474 pix_TimeBlurVFX;
#X obj 913 494 pix_TimeSliceVFX;
#X obj 913 514 pix_TimeWarpVFX;
#X obj 913 534 pix_TVPixelVFX;
#X obj 913 554 pix_VectorizeVFX;
#X obj 913 574 pix_WaveVFX;
#X connect 0 0 43 0;
#X connect 1 0 46 0;
#X connect 1 0 40 0;
#X connect 1 0 42 0;
#X connect 3 0 2 0;
#X connect 3 0 44 0;
#X connect 4 0 2 0;
#X connect 4 0 44 0;
#X connect 5 0 2 0;
#X connect 5 0 44 0;
#X connect 6 0 2 0;
#X connect 6 0 44 0;
#X connect 7 0 2 0;
#X connect 7 0 44 0;
#X connect 8 0 2 0;
#X connect 8 0 44 0;
#X connect 9 0 2 0;
#X connect 9 0 44 0;
#X connect 10 0 2 0;
#X connect 10 0 44 0;
#X connect 11 0 2 0;
#X connect 11 0 44 0;
#X connect 12 0 2 0;
#X connect 12 0 44 0;
#X connect 13 0 2 0;
#X connect 13 0 44 0;
#X connect 14 0 2 0;
#X connect 14 0 44 0;
#X connect 15 0 2 0;
#X connect 15 0 44 0;
#X connect 16 0 2 0;
#X connect 16 0 44 0;
#X connect 17 0 2 0;
#X connect 17 0 44 0;
#X connect 18 0 2 0;
#X connect 18 0 44 0;
#X connect 19 0 2 0;
#X connect 19 0 44 0;
#X connect 20 0 2 0;
#X connect 20 0 44 0;
#X connect 21 0 2 0;
#X connect 21 0 44 0;
#X connect 22 0 2 0;
#X connect 22 0 44 0;
#X connect 23 0 2 0;
#X connect 23 0 44 0;
#X connect 24 0 2 0;
#X connect 24 0 44 0;
#X connect 25 0 2 0;
#X connect 25 0 44 0;
#X connect 26 0 2 0;
#X connect 26 0 44 0;
#X connect 27 0 2 0;
#X connect 27 0 44 0;
#X connect 28 0 2 0;
#X connect 28 0 44 0;
#X connect 29 0 2 0;
#X connect 29 0 44 0;
#X connect 30 0 2 0;
#X connect 30 0 44 0;
#X connect 31 0 2 0;
#X connect 31 0 44 0;
#X connect 32 0 2 0;
#X connect 32 0 44 0;
#X connect 33 0 2 0;
#X connect 33 0 44 0;
#X connect 34 0 2 0;
#X connect 34 0 44 0;
#X connect 35 0 2 0;
#X connect 35 0 44 0;
#X connect 36 0 2 0;
#X connect 36 0 44 0;
#X connect 37 0 2 0;
#X connect 37 0 44 0;
#X connect 38 0 2 0;
#X connect 38 0 44 0;
#X connect 39 0 2 0;
#X connect 39 0 44 0;
#X connect 40 0 0 0;
#X connect 41 0 2 0;
#X connect 41 0 44 0;
#X connect 42 0 0 0;
#X connect 43 0 3 0;
#X connect 43 1 4 0;
#X connect 43 2 41 0;
#X connect 43 3 5 0;
#X connect 43 4 6 0;
#X connect 43 5 7 0;
#X connect 43 6 8 0;
#X connect 43 7 9 0;
#X connect 43 8 10 0;
#X connect 43 9 45 0;
#X connect 43 10 11 0;
#X connect 43 11 12 0;
#X connect 43 12 13 0;
#X connect 43 13 14 0;
#X connect 43 14 15 0;
#X connect 43 15 16 0;
#X connect 43 16 38 0;
#X connect 43 17 39 0;
#X connect 43 18 17 0;
#X connect 43 19 18 0;
#X connect 43 20 19 0;
#X connect 43 21 20 0;
#X connect 43 22 21 0;
#X connect 43 23 22 0;
#X connect 43 24 23 0;
#X connect 43 25 24 0;
#X connect 43 26 25 0;
#X connect 43 27 26 0;
#X connect 43 28 27 0;
#X connect 43 29 28 0;
#X connect 43 30 29 0;
#X connect 43 31 30 0;
#X connect 43 32 31 0;
#X connect 43 33 32 0;
#X connect 43 34 33 0;
#X connect 43 35 34 0;
#X connect 43 36 35 0;
#X connect 43 37 36 0;
#X connect 43 38 37 0;
#X connect 44 0 46 0;
#X connect 45 0 2 0;
#X connect 45 0 44 0;
#X connect 46 0 0 0;
#X coords 0 -1 1 1 125 30 2 100 100;
