#N canvas 65 356 571 353 10;
#X obj 101 102 popup 124 25 blue Sources v4l v4l2 video plasma noise
text img color form videolists;
#X msg 91 57 name Sources;
#X msg 101 151 symbol v4l;
#X obj 27 308 s por_abrir;
#X msg 114 171 symbol v4l2;
#X msg 128 191 symbol yqt;
#X msg 142 211 symbol plasma;
#X msg 155 231 symbol noise;
#X msg 169 251 symbol text;
#X msg 183 271 symbol img;
#X msg 196 291 symbol color;
#X msg 209 311 symbol form;
#X obj 137 18 loadbang;
#X msg 181 50 bgcolour blue;
#X msg 223 67 options v4l v4l2 video plasma noise text img color form
videolists;
#X obj 101 130 sel 0 1 2 3 4 5 6 7 8 9;
#X msg 222 331 symbol videolists;
#X obj 310 228 bng 15 250 50 0 empty empty empty 17 7 0 10 -262144
-1 -1;
#X connect 0 0 15 0;
#X connect 1 0 0 0;
#X connect 2 0 3 0;
#X connect 2 0 17 0;
#X connect 4 0 3 0;
#X connect 4 0 17 0;
#X connect 5 0 3 0;
#X connect 5 0 17 0;
#X connect 6 0 3 0;
#X connect 6 0 17 0;
#X connect 7 0 3 0;
#X connect 7 0 17 0;
#X connect 8 0 3 0;
#X connect 8 0 17 0;
#X connect 9 0 3 0;
#X connect 9 0 17 0;
#X connect 10 0 3 0;
#X connect 10 0 17 0;
#X connect 11 0 3 0;
#X connect 11 0 17 0;
#X connect 12 0 1 0;
#X connect 12 0 14 0;
#X connect 12 0 13 0;
#X connect 13 0 0 0;
#X connect 14 0 0 0;
#X connect 15 0 2 0;
#X connect 15 1 4 0;
#X connect 15 2 5 0;
#X connect 15 3 6 0;
#X connect 15 4 7 0;
#X connect 15 5 8 0;
#X connect 15 6 9 0;
#X connect 15 7 10 0;
#X connect 15 8 11 0;
#X connect 15 9 16 0;
#X connect 16 0 3 0;
#X connect 16 0 17 0;
#X connect 17 0 1 0;
#X coords 0 -1 1 1 125 30 2 100 100;
