#N canvas 0 0 450 300 10;
#N canvas 0 0 450 300 text 0;
#X obj 101 101 cnv 15 100 60 empty empty Text 20 12 0 42 -233017 -66577
0;
#X obj 658 461 tgl 15 0 empty empty empty 0 -6 0 8 -262144 -1 -1 0
1;
#X obj 658 513 pdp_control;
#X msg 658 486 thread \$1;
#X floatatom 658 574 5 0 0 0 - - -;
#X obj 658 545 route pdp_drop;
#X text 231 627 pdp_text : text rendering in PDP;
#X text 232 641 written by Yves Degoyon (ydegoyon@free.fr);
#X msg 196 394 text %34%48%49:37:58%34 20 220;
#X msg 187 369 text "01:37:58" 230 220;
#X msg 181 340 text a%32hundred%32%% 120 128 255 0 0;
#X obj 214 435 hdl 15 1 0 10 empty empty empty 0 -6 0 8 -262144 -1
-1 0;
#X text 374 434 Select current text ( 10 items by default );
#X text 318 292 Add a simple text;
#X text 359 315 Add a text with special characters;
#X text 448 340 Add a real percent now ( but in red );
#X text 365 369 Have to put a quote (%34) before starting numbers;
#X text 419 394 This time \, it's real quotes ( tricky \, hey?? );
#X floatatom 229 461 5 0 0 0 - - -;
#X text 277 460 X coordinate;
#X floatatom 250 482 5 0 0 0 - - -;
#X floatatom 275 503 5 0 0 0 - - -;
#X floatatom 293 523 5 0 0 0 - - -;
#X floatatom 313 543 5 0 0 0 - - -;
#X text 298 481 Y coordinate;
#X text 323 502 R component;
#X text 341 522 G component;
#X text 361 542 B component;
#X msg 39 362 clear;
#X msg 40 397 delete 1;
#X msg 40 431 resize 20;
#X msg 40 499 font helmetr/14;
#X obj 165 608 pdp_text -----------------;
#X text 149 264 text <text> x y [ r g b angle ];
#X floatatom 341 564 5 0 0 0 - - -;
#X text 389 563 Angle;
#X msg 71 526 dither \$1;
#X floatatom 23 528 5 0 0 0 - - -;
#X floatatom 24 551 5 0 0 0 - - -;
#X msg 73 550 blend \$1;
#X floatatom 24 572 5 0 0 0 - - -;
#X msg 74 570 antialias \$1;
#X msg 39 468 font helmetr/5;
#X floatatom 364 582 5 0 0 0 - - -;
#X text 410 582 Scroll;
#X obj 390 604 hsl 128 15 0 1 0 0 empty empty empty -2 -6 0 8 -262144
-1 -1 0 1;
#X text 527 604 Alpha ( global );
#X msg 173 314 text on%32air!! 150 78;
#X obj 36 21 inlet;
#X symbolatom 131 134 10 0 0 0 - - -;
#X msg 154 292 text \$1 34 58;
#X obj 162 637 outlet;
#X obj 101 151 cnv 10 10 10 empty empty empty 20 12 0 14 -260097 -66577
0;
#X obj 101 101 cnv 10 10 10 empty empty empty 20 12 0 14 -260097 -66577
0;
#X connect 1 0 3 0;
#X connect 2 0 5 0;
#X connect 3 0 2 0;
#X connect 5 0 4 0;
#X connect 8 0 32 0;
#X connect 9 0 32 0;
#X connect 10 0 32 0;
#X connect 11 0 32 1;
#X connect 18 0 32 2;
#X connect 20 0 32 3;
#X connect 21 0 32 4;
#X connect 22 0 32 5;
#X connect 23 0 32 6;
#X connect 28 0 32 0;
#X connect 29 0 32 0;
#X connect 30 0 32 0;
#X connect 31 0 32 0;
#X connect 32 0 51 0;
#X connect 34 0 32 7;
#X connect 36 0 32 0;
#X connect 37 0 36 0;
#X connect 38 0 39 0;
#X connect 39 0 32 0;
#X connect 40 0 41 0;
#X connect 41 0 32 0;
#X connect 42 0 32 0;
#X connect 43 0 32 8;
#X connect 45 0 32 9;
#X connect 47 0 32 0;
#X connect 48 0 32 0;
#X connect 49 0 50 0;
#X connect 50 0 32 0;
#X coords 0 -1 1 1 102 62 1 100 100;
#X restore 100 100 pd text;
#X obj 17 72 inlet;
#X obj 32 219 outlet;
#X connect 0 0 2 0;
#X connect 1 0 0 0;
#X coords 0 -1 1 1 102 62 1 100 100;
