#N canvas 0 0 450 300 10;
#X obj 101 59 inlet;
#X obj 141 59 inlet;
#X obj 181 59 inlet;
#X obj 98 196 outlet;
#X obj 101 101 cnv 15 100 60 empty empty V4L 20 12 0 48 -135233 -228856
0;
#X obj 16 170 metro 40;
#X obj 117 139 tgl 15 0 empty empty empty 17 7 0 10 -262144 -1 -1 0
1;
#X symbolatom 140 124 3 0 0 0 - - -;
#X text 163 125 dev;
#X msg 257 213 open /dev/video\$1;
#X obj 101 101 cnv 10 10 10 empty empty empty 20 12 0 14 -260097 -66577
0;
#X obj 147 101 cnv 10 10 10 empty empty empty 20 12 0 14 -260097 -66577
0;
#X obj 191 101 cnv 10 10 10 empty empty empty 20 12 0 14 -260097 -66577
0;
#X obj 101 151 cnv 10 10 10 empty empty empty 20 12 0 14 -260097 -66577
0;
#X obj 14 214 pdp_v4l;
#X text 142 140 comment;
#X connect 1 0 6 0;
#X connect 2 0 7 0;
#X connect 5 0 14 0;
#X connect 6 0 5 0;
#X connect 7 0 9 0;
#X connect 9 0 14 0;
#X connect 14 0 3 0;
#X coords 0 -1 1 1 102 62 1 100 100;
