#N canvas 4 108 450 300 10;
#X obj 101 101 cnv 15 100 60 empty empty XV 20 12 0 54 -24967 -66577
0;
#X obj 100 100 cnv 15 15 15 empty empty empty 20 12 0 14 -257985 -66577
0;
#X obj 31 125 inlet;
#X obj 76 200 pdp_xv;
#X msg 299 210 dim 640 480;
#X msg 271 102 fullscreen;
#X obj 131 112 bng 15 250 50 0 empty empty empty 17 7 0 10 -262144
-1 -1;
#X obj 140 145 bng 15 250 50 0 empty empty empty 17 7 0 10 -262144
-1 -1;
#X connect 2 0 3 0;
#X connect 4 0 3 0;
#X connect 5 0 3 0;
#X connect 6 0 5 0;
#X connect 7 0 4 0;
#X coords 0 -1 1 1 102 62 1 100 100;
